G04 #@! TF.GenerationSoftware,KiCad,Pcbnew,(5.1.8)-1*
G04 #@! TF.CreationDate,2021-02-24T11:35:28+01:00*
G04 #@! TF.ProjectId,UART_peripheral_card_A,55415254-5f70-4657-9269-70686572616c,A V1.0*
G04 #@! TF.SameCoordinates,PX4fa1be0PY3fe56c0*
G04 #@! TF.FileFunction,Copper,L1,Top*
G04 #@! TF.FilePolarity,Positive*
%FSLAX46Y46*%
G04 Gerber Fmt 4.6, Leading zero omitted, Abs format (unit mm)*
G04 Created by KiCad (PCBNEW (5.1.8)-1) date 2021-02-24 11:35:28*
%MOMM*%
%LPD*%
G01*
G04 APERTURE LIST*
G04 #@! TA.AperFunction,SMDPad,CuDef*
%ADD10R,1.700000X7.500000*%
G04 #@! TD*
G04 #@! TA.AperFunction,ComponentPad*
%ADD11R,1.700000X1.700000*%
G04 #@! TD*
G04 #@! TA.AperFunction,ComponentPad*
%ADD12O,1.700000X1.700000*%
G04 #@! TD*
G04 #@! TA.AperFunction,ViaPad*
%ADD13C,0.450000*%
G04 #@! TD*
G04 #@! TA.AperFunction,Conductor*
%ADD14C,0.250000*%
G04 #@! TD*
G04 #@! TA.AperFunction,Conductor*
%ADD15C,0.200000*%
G04 #@! TD*
G04 #@! TA.AperFunction,Conductor*
%ADD16C,0.254000*%
G04 #@! TD*
G04 #@! TA.AperFunction,Conductor*
%ADD17C,0.100000*%
G04 #@! TD*
G04 APERTURE END LIST*
D10*
X72500000Y-49900000D03*
X69960000Y-49900000D03*
X67420000Y-49900000D03*
X64880000Y-49900000D03*
X62340000Y-49900000D03*
X59800000Y-49900000D03*
X57260000Y-49900000D03*
X54720000Y-49900000D03*
X52180000Y-49900000D03*
X49640000Y-49900000D03*
X47100000Y-49900000D03*
X44560000Y-49900000D03*
X42020000Y-49900000D03*
X39480000Y-49900000D03*
X36940000Y-49900000D03*
X34400000Y-49900000D03*
X24240000Y-49900000D03*
X26780000Y-49900000D03*
X29320000Y-49900000D03*
X31860000Y-49900000D03*
G04 #@! TA.AperFunction,SMDPad,CuDef*
G36*
G01*
X24450000Y-42025000D02*
X24450000Y-42975000D01*
G75*
G02*
X24200000Y-43225000I-250000J0D01*
G01*
X23700000Y-43225000D01*
G75*
G02*
X23450000Y-42975000I0J250000D01*
G01*
X23450000Y-42025000D01*
G75*
G02*
X23700000Y-41775000I250000J0D01*
G01*
X24200000Y-41775000D01*
G75*
G02*
X24450000Y-42025000I0J-250000D01*
G01*
G37*
G04 #@! TD.AperFunction*
G04 #@! TA.AperFunction,SMDPad,CuDef*
G36*
G01*
X22550000Y-42025000D02*
X22550000Y-42975000D01*
G75*
G02*
X22300000Y-43225000I-250000J0D01*
G01*
X21800000Y-43225000D01*
G75*
G02*
X21550000Y-42975000I0J250000D01*
G01*
X21550000Y-42025000D01*
G75*
G02*
X21800000Y-41775000I250000J0D01*
G01*
X22300000Y-41775000D01*
G75*
G02*
X22550000Y-42025000I0J-250000D01*
G01*
G37*
G04 #@! TD.AperFunction*
G04 #@! TA.AperFunction,SMDPad,CuDef*
G36*
G01*
X22550000Y-40025000D02*
X22550000Y-40975000D01*
G75*
G02*
X22300000Y-41225000I-250000J0D01*
G01*
X21800000Y-41225000D01*
G75*
G02*
X21550000Y-40975000I0J250000D01*
G01*
X21550000Y-40025000D01*
G75*
G02*
X21800000Y-39775000I250000J0D01*
G01*
X22300000Y-39775000D01*
G75*
G02*
X22550000Y-40025000I0J-250000D01*
G01*
G37*
G04 #@! TD.AperFunction*
G04 #@! TA.AperFunction,SMDPad,CuDef*
G36*
G01*
X24450000Y-40025000D02*
X24450000Y-40975000D01*
G75*
G02*
X24200000Y-41225000I-250000J0D01*
G01*
X23700000Y-41225000D01*
G75*
G02*
X23450000Y-40975000I0J250000D01*
G01*
X23450000Y-40025000D01*
G75*
G02*
X23700000Y-39775000I250000J0D01*
G01*
X24200000Y-39775000D01*
G75*
G02*
X24450000Y-40025000I0J-250000D01*
G01*
G37*
G04 #@! TD.AperFunction*
G04 #@! TA.AperFunction,SMDPad,CuDef*
G36*
G01*
X49050000Y-22525000D02*
X49050000Y-23475000D01*
G75*
G02*
X48800000Y-23725000I-250000J0D01*
G01*
X48300000Y-23725000D01*
G75*
G02*
X48050000Y-23475000I0J250000D01*
G01*
X48050000Y-22525000D01*
G75*
G02*
X48300000Y-22275000I250000J0D01*
G01*
X48800000Y-22275000D01*
G75*
G02*
X49050000Y-22525000I0J-250000D01*
G01*
G37*
G04 #@! TD.AperFunction*
G04 #@! TA.AperFunction,SMDPad,CuDef*
G36*
G01*
X50950000Y-22525000D02*
X50950000Y-23475000D01*
G75*
G02*
X50700000Y-23725000I-250000J0D01*
G01*
X50200000Y-23725000D01*
G75*
G02*
X49950000Y-23475000I0J250000D01*
G01*
X49950000Y-22525000D01*
G75*
G02*
X50200000Y-22275000I250000J0D01*
G01*
X50700000Y-22275000D01*
G75*
G02*
X50950000Y-22525000I0J-250000D01*
G01*
G37*
G04 #@! TD.AperFunction*
G04 #@! TA.AperFunction,SMDPad,CuDef*
G36*
G01*
X17050000Y-27975000D02*
X17050000Y-27025000D01*
G75*
G02*
X17300000Y-26775000I250000J0D01*
G01*
X17800000Y-26775000D01*
G75*
G02*
X18050000Y-27025000I0J-250000D01*
G01*
X18050000Y-27975000D01*
G75*
G02*
X17800000Y-28225000I-250000J0D01*
G01*
X17300000Y-28225000D01*
G75*
G02*
X17050000Y-27975000I0J250000D01*
G01*
G37*
G04 #@! TD.AperFunction*
G04 #@! TA.AperFunction,SMDPad,CuDef*
G36*
G01*
X18950000Y-27975000D02*
X18950000Y-27025000D01*
G75*
G02*
X19200000Y-26775000I250000J0D01*
G01*
X19700000Y-26775000D01*
G75*
G02*
X19950000Y-27025000I0J-250000D01*
G01*
X19950000Y-27975000D01*
G75*
G02*
X19700000Y-28225000I-250000J0D01*
G01*
X19200000Y-28225000D01*
G75*
G02*
X18950000Y-27975000I0J250000D01*
G01*
G37*
G04 #@! TD.AperFunction*
G04 #@! TA.AperFunction,SMDPad,CuDef*
G36*
G01*
X50950000Y-8525000D02*
X50950000Y-9475000D01*
G75*
G02*
X50700000Y-9725000I-250000J0D01*
G01*
X50200000Y-9725000D01*
G75*
G02*
X49950000Y-9475000I0J250000D01*
G01*
X49950000Y-8525000D01*
G75*
G02*
X50200000Y-8275000I250000J0D01*
G01*
X50700000Y-8275000D01*
G75*
G02*
X50950000Y-8525000I0J-250000D01*
G01*
G37*
G04 #@! TD.AperFunction*
G04 #@! TA.AperFunction,SMDPad,CuDef*
G36*
G01*
X49050000Y-8525000D02*
X49050000Y-9475000D01*
G75*
G02*
X48800000Y-9725000I-250000J0D01*
G01*
X48300000Y-9725000D01*
G75*
G02*
X48050000Y-9475000I0J250000D01*
G01*
X48050000Y-8525000D01*
G75*
G02*
X48300000Y-8275000I250000J0D01*
G01*
X48800000Y-8275000D01*
G75*
G02*
X49050000Y-8525000I0J-250000D01*
G01*
G37*
G04 #@! TD.AperFunction*
G04 #@! TA.AperFunction,SMDPad,CuDef*
G36*
G01*
X31450000Y-27975000D02*
X31450000Y-27025000D01*
G75*
G02*
X31700000Y-26775000I250000J0D01*
G01*
X32200000Y-26775000D01*
G75*
G02*
X32450000Y-27025000I0J-250000D01*
G01*
X32450000Y-27975000D01*
G75*
G02*
X32200000Y-28225000I-250000J0D01*
G01*
X31700000Y-28225000D01*
G75*
G02*
X31450000Y-27975000I0J250000D01*
G01*
G37*
G04 #@! TD.AperFunction*
G04 #@! TA.AperFunction,SMDPad,CuDef*
G36*
G01*
X29550000Y-27975000D02*
X29550000Y-27025000D01*
G75*
G02*
X29800000Y-26775000I250000J0D01*
G01*
X30300000Y-26775000D01*
G75*
G02*
X30550000Y-27025000I0J-250000D01*
G01*
X30550000Y-27975000D01*
G75*
G02*
X30300000Y-28225000I-250000J0D01*
G01*
X29800000Y-28225000D01*
G75*
G02*
X29550000Y-27975000I0J250000D01*
G01*
G37*
G04 #@! TD.AperFunction*
D11*
X90500000Y-29500000D03*
D12*
X90500000Y-32040000D03*
X90500000Y-34580000D03*
X90500000Y-37120000D03*
D11*
X90500000Y-16000000D03*
D12*
X90500000Y-18540000D03*
X90500000Y-21080000D03*
D11*
X13000000Y-34500000D03*
D12*
X13000000Y-37040000D03*
X13000000Y-39580000D03*
G04 #@! TA.AperFunction,SMDPad,CuDef*
G36*
G01*
X54549999Y-26987500D02*
X55450001Y-26987500D01*
G75*
G02*
X55700000Y-27237499I0J-249999D01*
G01*
X55700000Y-27762501D01*
G75*
G02*
X55450001Y-28012500I-249999J0D01*
G01*
X54549999Y-28012500D01*
G75*
G02*
X54300000Y-27762501I0J249999D01*
G01*
X54300000Y-27237499D01*
G75*
G02*
X54549999Y-26987500I249999J0D01*
G01*
G37*
G04 #@! TD.AperFunction*
G04 #@! TA.AperFunction,SMDPad,CuDef*
G36*
G01*
X54549999Y-25162500D02*
X55450001Y-25162500D01*
G75*
G02*
X55700000Y-25412499I0J-249999D01*
G01*
X55700000Y-25937501D01*
G75*
G02*
X55450001Y-26187500I-249999J0D01*
G01*
X54549999Y-26187500D01*
G75*
G02*
X54300000Y-25937501I0J249999D01*
G01*
X54300000Y-25412499D01*
G75*
G02*
X54549999Y-25162500I249999J0D01*
G01*
G37*
G04 #@! TD.AperFunction*
G04 #@! TA.AperFunction,SMDPad,CuDef*
G36*
G01*
X54549999Y-28575000D02*
X55450001Y-28575000D01*
G75*
G02*
X55700000Y-28824999I0J-249999D01*
G01*
X55700000Y-29350001D01*
G75*
G02*
X55450001Y-29600000I-249999J0D01*
G01*
X54549999Y-29600000D01*
G75*
G02*
X54300000Y-29350001I0J249999D01*
G01*
X54300000Y-28824999D01*
G75*
G02*
X54549999Y-28575000I249999J0D01*
G01*
G37*
G04 #@! TD.AperFunction*
G04 #@! TA.AperFunction,SMDPad,CuDef*
G36*
G01*
X54549999Y-30400000D02*
X55450001Y-30400000D01*
G75*
G02*
X55700000Y-30649999I0J-249999D01*
G01*
X55700000Y-31175001D01*
G75*
G02*
X55450001Y-31425000I-249999J0D01*
G01*
X54549999Y-31425000D01*
G75*
G02*
X54300000Y-31175001I0J249999D01*
G01*
X54300000Y-30649999D01*
G75*
G02*
X54549999Y-30400000I249999J0D01*
G01*
G37*
G04 #@! TD.AperFunction*
G04 #@! TA.AperFunction,SMDPad,CuDef*
G36*
G01*
X44950001Y-27100000D02*
X44049999Y-27100000D01*
G75*
G02*
X43800000Y-26850001I0J249999D01*
G01*
X43800000Y-26324999D01*
G75*
G02*
X44049999Y-26075000I249999J0D01*
G01*
X44950001Y-26075000D01*
G75*
G02*
X45200000Y-26324999I0J-249999D01*
G01*
X45200000Y-26850001D01*
G75*
G02*
X44950001Y-27100000I-249999J0D01*
G01*
G37*
G04 #@! TD.AperFunction*
G04 #@! TA.AperFunction,SMDPad,CuDef*
G36*
G01*
X44950001Y-28925000D02*
X44049999Y-28925000D01*
G75*
G02*
X43800000Y-28675001I0J249999D01*
G01*
X43800000Y-28149999D01*
G75*
G02*
X44049999Y-27900000I249999J0D01*
G01*
X44950001Y-27900000D01*
G75*
G02*
X45200000Y-28149999I0J-249999D01*
G01*
X45200000Y-28675001D01*
G75*
G02*
X44950001Y-28925000I-249999J0D01*
G01*
G37*
G04 #@! TD.AperFunction*
G04 #@! TA.AperFunction,SMDPad,CuDef*
G36*
G01*
X54549999Y-13900000D02*
X55450001Y-13900000D01*
G75*
G02*
X55700000Y-14149999I0J-249999D01*
G01*
X55700000Y-14675001D01*
G75*
G02*
X55450001Y-14925000I-249999J0D01*
G01*
X54549999Y-14925000D01*
G75*
G02*
X54300000Y-14675001I0J249999D01*
G01*
X54300000Y-14149999D01*
G75*
G02*
X54549999Y-13900000I249999J0D01*
G01*
G37*
G04 #@! TD.AperFunction*
G04 #@! TA.AperFunction,SMDPad,CuDef*
G36*
G01*
X54549999Y-12075000D02*
X55450001Y-12075000D01*
G75*
G02*
X55700000Y-12324999I0J-249999D01*
G01*
X55700000Y-12850001D01*
G75*
G02*
X55450001Y-13100000I-249999J0D01*
G01*
X54549999Y-13100000D01*
G75*
G02*
X54300000Y-12850001I0J249999D01*
G01*
X54300000Y-12324999D01*
G75*
G02*
X54549999Y-12075000I249999J0D01*
G01*
G37*
G04 #@! TD.AperFunction*
G04 #@! TA.AperFunction,SMDPad,CuDef*
G36*
G01*
X54549999Y-17400000D02*
X55450001Y-17400000D01*
G75*
G02*
X55700000Y-17649999I0J-249999D01*
G01*
X55700000Y-18175001D01*
G75*
G02*
X55450001Y-18425000I-249999J0D01*
G01*
X54549999Y-18425000D01*
G75*
G02*
X54300000Y-18175001I0J249999D01*
G01*
X54300000Y-17649999D01*
G75*
G02*
X54549999Y-17400000I249999J0D01*
G01*
G37*
G04 #@! TD.AperFunction*
G04 #@! TA.AperFunction,SMDPad,CuDef*
G36*
G01*
X54549999Y-15575000D02*
X55450001Y-15575000D01*
G75*
G02*
X55700000Y-15824999I0J-249999D01*
G01*
X55700000Y-16350001D01*
G75*
G02*
X55450001Y-16600000I-249999J0D01*
G01*
X54549999Y-16600000D01*
G75*
G02*
X54300000Y-16350001I0J249999D01*
G01*
X54300000Y-15824999D01*
G75*
G02*
X54549999Y-15575000I249999J0D01*
G01*
G37*
G04 #@! TD.AperFunction*
G04 #@! TA.AperFunction,SMDPad,CuDef*
G36*
G01*
X45450001Y-15837500D02*
X44549999Y-15837500D01*
G75*
G02*
X44300000Y-15587501I0J249999D01*
G01*
X44300000Y-15062499D01*
G75*
G02*
X44549999Y-14812500I249999J0D01*
G01*
X45450001Y-14812500D01*
G75*
G02*
X45700000Y-15062499I0J-249999D01*
G01*
X45700000Y-15587501D01*
G75*
G02*
X45450001Y-15837500I-249999J0D01*
G01*
G37*
G04 #@! TD.AperFunction*
G04 #@! TA.AperFunction,SMDPad,CuDef*
G36*
G01*
X45450001Y-14012500D02*
X44549999Y-14012500D01*
G75*
G02*
X44300000Y-13762501I0J249999D01*
G01*
X44300000Y-13237499D01*
G75*
G02*
X44549999Y-12987500I249999J0D01*
G01*
X45450001Y-12987500D01*
G75*
G02*
X45700000Y-13237499I0J-249999D01*
G01*
X45700000Y-13762501D01*
G75*
G02*
X45450001Y-14012500I-249999J0D01*
G01*
G37*
G04 #@! TD.AperFunction*
G04 #@! TA.AperFunction,SMDPad,CuDef*
G36*
G01*
X55450001Y-21600000D02*
X54549999Y-21600000D01*
G75*
G02*
X54300000Y-21350001I0J249999D01*
G01*
X54300000Y-20824999D01*
G75*
G02*
X54549999Y-20575000I249999J0D01*
G01*
X55450001Y-20575000D01*
G75*
G02*
X55700000Y-20824999I0J-249999D01*
G01*
X55700000Y-21350001D01*
G75*
G02*
X55450001Y-21600000I-249999J0D01*
G01*
G37*
G04 #@! TD.AperFunction*
G04 #@! TA.AperFunction,SMDPad,CuDef*
G36*
G01*
X55450001Y-23425000D02*
X54549999Y-23425000D01*
G75*
G02*
X54300000Y-23175001I0J249999D01*
G01*
X54300000Y-22649999D01*
G75*
G02*
X54549999Y-22400000I249999J0D01*
G01*
X55450001Y-22400000D01*
G75*
G02*
X55700000Y-22649999I0J-249999D01*
G01*
X55700000Y-23175001D01*
G75*
G02*
X55450001Y-23425000I-249999J0D01*
G01*
G37*
G04 #@! TD.AperFunction*
G04 #@! TA.AperFunction,SMDPad,CuDef*
G36*
G01*
X48200000Y-37525000D02*
X47900000Y-37525000D01*
G75*
G02*
X47750000Y-37375000I0J150000D01*
G01*
X47750000Y-36350000D01*
G75*
G02*
X47900000Y-36200000I150000J0D01*
G01*
X48200000Y-36200000D01*
G75*
G02*
X48350000Y-36350000I0J-150000D01*
G01*
X48350000Y-37375000D01*
G75*
G02*
X48200000Y-37525000I-150000J0D01*
G01*
G37*
G04 #@! TD.AperFunction*
G04 #@! TA.AperFunction,SMDPad,CuDef*
G36*
G01*
X50100000Y-37525000D02*
X49800000Y-37525000D01*
G75*
G02*
X49650000Y-37375000I0J150000D01*
G01*
X49650000Y-36350000D01*
G75*
G02*
X49800000Y-36200000I150000J0D01*
G01*
X50100000Y-36200000D01*
G75*
G02*
X50250000Y-36350000I0J-150000D01*
G01*
X50250000Y-37375000D01*
G75*
G02*
X50100000Y-37525000I-150000J0D01*
G01*
G37*
G04 #@! TD.AperFunction*
G04 #@! TA.AperFunction,SMDPad,CuDef*
G36*
G01*
X50100000Y-39800000D02*
X49800000Y-39800000D01*
G75*
G02*
X49650000Y-39650000I0J150000D01*
G01*
X49650000Y-38625000D01*
G75*
G02*
X49800000Y-38475000I150000J0D01*
G01*
X50100000Y-38475000D01*
G75*
G02*
X50250000Y-38625000I0J-150000D01*
G01*
X50250000Y-39650000D01*
G75*
G02*
X50100000Y-39800000I-150000J0D01*
G01*
G37*
G04 #@! TD.AperFunction*
G04 #@! TA.AperFunction,SMDPad,CuDef*
G36*
G01*
X49150000Y-39800000D02*
X48850000Y-39800000D01*
G75*
G02*
X48700000Y-39650000I0J150000D01*
G01*
X48700000Y-38625000D01*
G75*
G02*
X48850000Y-38475000I150000J0D01*
G01*
X49150000Y-38475000D01*
G75*
G02*
X49300000Y-38625000I0J-150000D01*
G01*
X49300000Y-39650000D01*
G75*
G02*
X49150000Y-39800000I-150000J0D01*
G01*
G37*
G04 #@! TD.AperFunction*
G04 #@! TA.AperFunction,SMDPad,CuDef*
G36*
G01*
X48200000Y-39800000D02*
X47900000Y-39800000D01*
G75*
G02*
X47750000Y-39650000I0J150000D01*
G01*
X47750000Y-38625000D01*
G75*
G02*
X47900000Y-38475000I150000J0D01*
G01*
X48200000Y-38475000D01*
G75*
G02*
X48350000Y-38625000I0J-150000D01*
G01*
X48350000Y-39650000D01*
G75*
G02*
X48200000Y-39800000I-150000J0D01*
G01*
G37*
G04 #@! TD.AperFunction*
G04 #@! TA.AperFunction,SMDPad,CuDef*
G36*
G01*
X53200000Y-39800000D02*
X52900000Y-39800000D01*
G75*
G02*
X52750000Y-39650000I0J150000D01*
G01*
X52750000Y-38625000D01*
G75*
G02*
X52900000Y-38475000I150000J0D01*
G01*
X53200000Y-38475000D01*
G75*
G02*
X53350000Y-38625000I0J-150000D01*
G01*
X53350000Y-39650000D01*
G75*
G02*
X53200000Y-39800000I-150000J0D01*
G01*
G37*
G04 #@! TD.AperFunction*
G04 #@! TA.AperFunction,SMDPad,CuDef*
G36*
G01*
X54150000Y-39800000D02*
X53850000Y-39800000D01*
G75*
G02*
X53700000Y-39650000I0J150000D01*
G01*
X53700000Y-38625000D01*
G75*
G02*
X53850000Y-38475000I150000J0D01*
G01*
X54150000Y-38475000D01*
G75*
G02*
X54300000Y-38625000I0J-150000D01*
G01*
X54300000Y-39650000D01*
G75*
G02*
X54150000Y-39800000I-150000J0D01*
G01*
G37*
G04 #@! TD.AperFunction*
G04 #@! TA.AperFunction,SMDPad,CuDef*
G36*
G01*
X55100000Y-39800000D02*
X54800000Y-39800000D01*
G75*
G02*
X54650000Y-39650000I0J150000D01*
G01*
X54650000Y-38625000D01*
G75*
G02*
X54800000Y-38475000I150000J0D01*
G01*
X55100000Y-38475000D01*
G75*
G02*
X55250000Y-38625000I0J-150000D01*
G01*
X55250000Y-39650000D01*
G75*
G02*
X55100000Y-39800000I-150000J0D01*
G01*
G37*
G04 #@! TD.AperFunction*
G04 #@! TA.AperFunction,SMDPad,CuDef*
G36*
G01*
X55100000Y-37525000D02*
X54800000Y-37525000D01*
G75*
G02*
X54650000Y-37375000I0J150000D01*
G01*
X54650000Y-36350000D01*
G75*
G02*
X54800000Y-36200000I150000J0D01*
G01*
X55100000Y-36200000D01*
G75*
G02*
X55250000Y-36350000I0J-150000D01*
G01*
X55250000Y-37375000D01*
G75*
G02*
X55100000Y-37525000I-150000J0D01*
G01*
G37*
G04 #@! TD.AperFunction*
G04 #@! TA.AperFunction,SMDPad,CuDef*
G36*
G01*
X53200000Y-37525000D02*
X52900000Y-37525000D01*
G75*
G02*
X52750000Y-37375000I0J150000D01*
G01*
X52750000Y-36350000D01*
G75*
G02*
X52900000Y-36200000I150000J0D01*
G01*
X53200000Y-36200000D01*
G75*
G02*
X53350000Y-36350000I0J-150000D01*
G01*
X53350000Y-37375000D01*
G75*
G02*
X53200000Y-37525000I-150000J0D01*
G01*
G37*
G04 #@! TD.AperFunction*
G04 #@! TA.AperFunction,SMDPad,CuDef*
G36*
G01*
X69200000Y-39800000D02*
X68900000Y-39800000D01*
G75*
G02*
X68750000Y-39650000I0J150000D01*
G01*
X68750000Y-38625000D01*
G75*
G02*
X68900000Y-38475000I150000J0D01*
G01*
X69200000Y-38475000D01*
G75*
G02*
X69350000Y-38625000I0J-150000D01*
G01*
X69350000Y-39650000D01*
G75*
G02*
X69200000Y-39800000I-150000J0D01*
G01*
G37*
G04 #@! TD.AperFunction*
G04 #@! TA.AperFunction,SMDPad,CuDef*
G36*
G01*
X70150000Y-39800000D02*
X69850000Y-39800000D01*
G75*
G02*
X69700000Y-39650000I0J150000D01*
G01*
X69700000Y-38625000D01*
G75*
G02*
X69850000Y-38475000I150000J0D01*
G01*
X70150000Y-38475000D01*
G75*
G02*
X70300000Y-38625000I0J-150000D01*
G01*
X70300000Y-39650000D01*
G75*
G02*
X70150000Y-39800000I-150000J0D01*
G01*
G37*
G04 #@! TD.AperFunction*
G04 #@! TA.AperFunction,SMDPad,CuDef*
G36*
G01*
X71100000Y-39800000D02*
X70800000Y-39800000D01*
G75*
G02*
X70650000Y-39650000I0J150000D01*
G01*
X70650000Y-38625000D01*
G75*
G02*
X70800000Y-38475000I150000J0D01*
G01*
X71100000Y-38475000D01*
G75*
G02*
X71250000Y-38625000I0J-150000D01*
G01*
X71250000Y-39650000D01*
G75*
G02*
X71100000Y-39800000I-150000J0D01*
G01*
G37*
G04 #@! TD.AperFunction*
G04 #@! TA.AperFunction,SMDPad,CuDef*
G36*
G01*
X71100000Y-37525000D02*
X70800000Y-37525000D01*
G75*
G02*
X70650000Y-37375000I0J150000D01*
G01*
X70650000Y-36350000D01*
G75*
G02*
X70800000Y-36200000I150000J0D01*
G01*
X71100000Y-36200000D01*
G75*
G02*
X71250000Y-36350000I0J-150000D01*
G01*
X71250000Y-37375000D01*
G75*
G02*
X71100000Y-37525000I-150000J0D01*
G01*
G37*
G04 #@! TD.AperFunction*
G04 #@! TA.AperFunction,SMDPad,CuDef*
G36*
G01*
X69200000Y-37525000D02*
X68900000Y-37525000D01*
G75*
G02*
X68750000Y-37375000I0J150000D01*
G01*
X68750000Y-36350000D01*
G75*
G02*
X68900000Y-36200000I150000J0D01*
G01*
X69200000Y-36200000D01*
G75*
G02*
X69350000Y-36350000I0J-150000D01*
G01*
X69350000Y-37375000D01*
G75*
G02*
X69200000Y-37525000I-150000J0D01*
G01*
G37*
G04 #@! TD.AperFunction*
G04 #@! TA.AperFunction,SMDPad,CuDef*
G36*
G01*
X63200000Y-39800000D02*
X62900000Y-39800000D01*
G75*
G02*
X62750000Y-39650000I0J150000D01*
G01*
X62750000Y-38625000D01*
G75*
G02*
X62900000Y-38475000I150000J0D01*
G01*
X63200000Y-38475000D01*
G75*
G02*
X63350000Y-38625000I0J-150000D01*
G01*
X63350000Y-39650000D01*
G75*
G02*
X63200000Y-39800000I-150000J0D01*
G01*
G37*
G04 #@! TD.AperFunction*
G04 #@! TA.AperFunction,SMDPad,CuDef*
G36*
G01*
X64150000Y-39800000D02*
X63850000Y-39800000D01*
G75*
G02*
X63700000Y-39650000I0J150000D01*
G01*
X63700000Y-38625000D01*
G75*
G02*
X63850000Y-38475000I150000J0D01*
G01*
X64150000Y-38475000D01*
G75*
G02*
X64300000Y-38625000I0J-150000D01*
G01*
X64300000Y-39650000D01*
G75*
G02*
X64150000Y-39800000I-150000J0D01*
G01*
G37*
G04 #@! TD.AperFunction*
G04 #@! TA.AperFunction,SMDPad,CuDef*
G36*
G01*
X65100000Y-39800000D02*
X64800000Y-39800000D01*
G75*
G02*
X64650000Y-39650000I0J150000D01*
G01*
X64650000Y-38625000D01*
G75*
G02*
X64800000Y-38475000I150000J0D01*
G01*
X65100000Y-38475000D01*
G75*
G02*
X65250000Y-38625000I0J-150000D01*
G01*
X65250000Y-39650000D01*
G75*
G02*
X65100000Y-39800000I-150000J0D01*
G01*
G37*
G04 #@! TD.AperFunction*
G04 #@! TA.AperFunction,SMDPad,CuDef*
G36*
G01*
X65100000Y-37525000D02*
X64800000Y-37525000D01*
G75*
G02*
X64650000Y-37375000I0J150000D01*
G01*
X64650000Y-36350000D01*
G75*
G02*
X64800000Y-36200000I150000J0D01*
G01*
X65100000Y-36200000D01*
G75*
G02*
X65250000Y-36350000I0J-150000D01*
G01*
X65250000Y-37375000D01*
G75*
G02*
X65100000Y-37525000I-150000J0D01*
G01*
G37*
G04 #@! TD.AperFunction*
G04 #@! TA.AperFunction,SMDPad,CuDef*
G36*
G01*
X63200000Y-37525000D02*
X62900000Y-37525000D01*
G75*
G02*
X62750000Y-37375000I0J150000D01*
G01*
X62750000Y-36350000D01*
G75*
G02*
X62900000Y-36200000I150000J0D01*
G01*
X63200000Y-36200000D01*
G75*
G02*
X63350000Y-36350000I0J-150000D01*
G01*
X63350000Y-37375000D01*
G75*
G02*
X63200000Y-37525000I-150000J0D01*
G01*
G37*
G04 #@! TD.AperFunction*
G04 #@! TA.AperFunction,SMDPad,CuDef*
G36*
G01*
X58200000Y-37525000D02*
X57900000Y-37525000D01*
G75*
G02*
X57750000Y-37375000I0J150000D01*
G01*
X57750000Y-36350000D01*
G75*
G02*
X57900000Y-36200000I150000J0D01*
G01*
X58200000Y-36200000D01*
G75*
G02*
X58350000Y-36350000I0J-150000D01*
G01*
X58350000Y-37375000D01*
G75*
G02*
X58200000Y-37525000I-150000J0D01*
G01*
G37*
G04 #@! TD.AperFunction*
G04 #@! TA.AperFunction,SMDPad,CuDef*
G36*
G01*
X60100000Y-37525000D02*
X59800000Y-37525000D01*
G75*
G02*
X59650000Y-37375000I0J150000D01*
G01*
X59650000Y-36350000D01*
G75*
G02*
X59800000Y-36200000I150000J0D01*
G01*
X60100000Y-36200000D01*
G75*
G02*
X60250000Y-36350000I0J-150000D01*
G01*
X60250000Y-37375000D01*
G75*
G02*
X60100000Y-37525000I-150000J0D01*
G01*
G37*
G04 #@! TD.AperFunction*
G04 #@! TA.AperFunction,SMDPad,CuDef*
G36*
G01*
X60100000Y-39800000D02*
X59800000Y-39800000D01*
G75*
G02*
X59650000Y-39650000I0J150000D01*
G01*
X59650000Y-38625000D01*
G75*
G02*
X59800000Y-38475000I150000J0D01*
G01*
X60100000Y-38475000D01*
G75*
G02*
X60250000Y-38625000I0J-150000D01*
G01*
X60250000Y-39650000D01*
G75*
G02*
X60100000Y-39800000I-150000J0D01*
G01*
G37*
G04 #@! TD.AperFunction*
G04 #@! TA.AperFunction,SMDPad,CuDef*
G36*
G01*
X59150000Y-39800000D02*
X58850000Y-39800000D01*
G75*
G02*
X58700000Y-39650000I0J150000D01*
G01*
X58700000Y-38625000D01*
G75*
G02*
X58850000Y-38475000I150000J0D01*
G01*
X59150000Y-38475000D01*
G75*
G02*
X59300000Y-38625000I0J-150000D01*
G01*
X59300000Y-39650000D01*
G75*
G02*
X59150000Y-39800000I-150000J0D01*
G01*
G37*
G04 #@! TD.AperFunction*
G04 #@! TA.AperFunction,SMDPad,CuDef*
G36*
G01*
X58200000Y-39800000D02*
X57900000Y-39800000D01*
G75*
G02*
X57750000Y-39650000I0J150000D01*
G01*
X57750000Y-38625000D01*
G75*
G02*
X57900000Y-38475000I150000J0D01*
G01*
X58200000Y-38475000D01*
G75*
G02*
X58350000Y-38625000I0J-150000D01*
G01*
X58350000Y-39650000D01*
G75*
G02*
X58200000Y-39800000I-150000J0D01*
G01*
G37*
G04 #@! TD.AperFunction*
G04 #@! TA.AperFunction,SMDPad,CuDef*
G36*
G01*
X66200000Y-22800000D02*
X65900000Y-22800000D01*
G75*
G02*
X65750000Y-22650000I0J150000D01*
G01*
X65750000Y-21625000D01*
G75*
G02*
X65900000Y-21475000I150000J0D01*
G01*
X66200000Y-21475000D01*
G75*
G02*
X66350000Y-21625000I0J-150000D01*
G01*
X66350000Y-22650000D01*
G75*
G02*
X66200000Y-22800000I-150000J0D01*
G01*
G37*
G04 #@! TD.AperFunction*
G04 #@! TA.AperFunction,SMDPad,CuDef*
G36*
G01*
X67150000Y-22800000D02*
X66850000Y-22800000D01*
G75*
G02*
X66700000Y-22650000I0J150000D01*
G01*
X66700000Y-21625000D01*
G75*
G02*
X66850000Y-21475000I150000J0D01*
G01*
X67150000Y-21475000D01*
G75*
G02*
X67300000Y-21625000I0J-150000D01*
G01*
X67300000Y-22650000D01*
G75*
G02*
X67150000Y-22800000I-150000J0D01*
G01*
G37*
G04 #@! TD.AperFunction*
G04 #@! TA.AperFunction,SMDPad,CuDef*
G36*
G01*
X68100000Y-22800000D02*
X67800000Y-22800000D01*
G75*
G02*
X67650000Y-22650000I0J150000D01*
G01*
X67650000Y-21625000D01*
G75*
G02*
X67800000Y-21475000I150000J0D01*
G01*
X68100000Y-21475000D01*
G75*
G02*
X68250000Y-21625000I0J-150000D01*
G01*
X68250000Y-22650000D01*
G75*
G02*
X68100000Y-22800000I-150000J0D01*
G01*
G37*
G04 #@! TD.AperFunction*
G04 #@! TA.AperFunction,SMDPad,CuDef*
G36*
G01*
X68100000Y-20525000D02*
X67800000Y-20525000D01*
G75*
G02*
X67650000Y-20375000I0J150000D01*
G01*
X67650000Y-19350000D01*
G75*
G02*
X67800000Y-19200000I150000J0D01*
G01*
X68100000Y-19200000D01*
G75*
G02*
X68250000Y-19350000I0J-150000D01*
G01*
X68250000Y-20375000D01*
G75*
G02*
X68100000Y-20525000I-150000J0D01*
G01*
G37*
G04 #@! TD.AperFunction*
G04 #@! TA.AperFunction,SMDPad,CuDef*
G36*
G01*
X66200000Y-20525000D02*
X65900000Y-20525000D01*
G75*
G02*
X65750000Y-20375000I0J150000D01*
G01*
X65750000Y-19350000D01*
G75*
G02*
X65900000Y-19200000I150000J0D01*
G01*
X66200000Y-19200000D01*
G75*
G02*
X66350000Y-19350000I0J-150000D01*
G01*
X66350000Y-20375000D01*
G75*
G02*
X66200000Y-20525000I-150000J0D01*
G01*
G37*
G04 #@! TD.AperFunction*
G04 #@! TA.AperFunction,SMDPad,CuDef*
G36*
G01*
X20500000Y-25295000D02*
X20500000Y-25595000D01*
G75*
G02*
X20350000Y-25745000I-150000J0D01*
G01*
X18650000Y-25745000D01*
G75*
G02*
X18500000Y-25595000I0J150000D01*
G01*
X18500000Y-25295000D01*
G75*
G02*
X18650000Y-25145000I150000J0D01*
G01*
X20350000Y-25145000D01*
G75*
G02*
X20500000Y-25295000I0J-150000D01*
G01*
G37*
G04 #@! TD.AperFunction*
G04 #@! TA.AperFunction,SMDPad,CuDef*
G36*
G01*
X20500000Y-24025000D02*
X20500000Y-24325000D01*
G75*
G02*
X20350000Y-24475000I-150000J0D01*
G01*
X18650000Y-24475000D01*
G75*
G02*
X18500000Y-24325000I0J150000D01*
G01*
X18500000Y-24025000D01*
G75*
G02*
X18650000Y-23875000I150000J0D01*
G01*
X20350000Y-23875000D01*
G75*
G02*
X20500000Y-24025000I0J-150000D01*
G01*
G37*
G04 #@! TD.AperFunction*
G04 #@! TA.AperFunction,SMDPad,CuDef*
G36*
G01*
X20500000Y-22755000D02*
X20500000Y-23055000D01*
G75*
G02*
X20350000Y-23205000I-150000J0D01*
G01*
X18650000Y-23205000D01*
G75*
G02*
X18500000Y-23055000I0J150000D01*
G01*
X18500000Y-22755000D01*
G75*
G02*
X18650000Y-22605000I150000J0D01*
G01*
X20350000Y-22605000D01*
G75*
G02*
X20500000Y-22755000I0J-150000D01*
G01*
G37*
G04 #@! TD.AperFunction*
G04 #@! TA.AperFunction,SMDPad,CuDef*
G36*
G01*
X20500000Y-21485000D02*
X20500000Y-21785000D01*
G75*
G02*
X20350000Y-21935000I-150000J0D01*
G01*
X18650000Y-21935000D01*
G75*
G02*
X18500000Y-21785000I0J150000D01*
G01*
X18500000Y-21485000D01*
G75*
G02*
X18650000Y-21335000I150000J0D01*
G01*
X20350000Y-21335000D01*
G75*
G02*
X20500000Y-21485000I0J-150000D01*
G01*
G37*
G04 #@! TD.AperFunction*
G04 #@! TA.AperFunction,SMDPad,CuDef*
G36*
G01*
X20500000Y-20215000D02*
X20500000Y-20515000D01*
G75*
G02*
X20350000Y-20665000I-150000J0D01*
G01*
X18650000Y-20665000D01*
G75*
G02*
X18500000Y-20515000I0J150000D01*
G01*
X18500000Y-20215000D01*
G75*
G02*
X18650000Y-20065000I150000J0D01*
G01*
X20350000Y-20065000D01*
G75*
G02*
X20500000Y-20215000I0J-150000D01*
G01*
G37*
G04 #@! TD.AperFunction*
G04 #@! TA.AperFunction,SMDPad,CuDef*
G36*
G01*
X20500000Y-18945000D02*
X20500000Y-19245000D01*
G75*
G02*
X20350000Y-19395000I-150000J0D01*
G01*
X18650000Y-19395000D01*
G75*
G02*
X18500000Y-19245000I0J150000D01*
G01*
X18500000Y-18945000D01*
G75*
G02*
X18650000Y-18795000I150000J0D01*
G01*
X20350000Y-18795000D01*
G75*
G02*
X20500000Y-18945000I0J-150000D01*
G01*
G37*
G04 #@! TD.AperFunction*
G04 #@! TA.AperFunction,SMDPad,CuDef*
G36*
G01*
X20500000Y-17675000D02*
X20500000Y-17975000D01*
G75*
G02*
X20350000Y-18125000I-150000J0D01*
G01*
X18650000Y-18125000D01*
G75*
G02*
X18500000Y-17975000I0J150000D01*
G01*
X18500000Y-17675000D01*
G75*
G02*
X18650000Y-17525000I150000J0D01*
G01*
X20350000Y-17525000D01*
G75*
G02*
X20500000Y-17675000I0J-150000D01*
G01*
G37*
G04 #@! TD.AperFunction*
G04 #@! TA.AperFunction,SMDPad,CuDef*
G36*
G01*
X20500000Y-16405000D02*
X20500000Y-16705000D01*
G75*
G02*
X20350000Y-16855000I-150000J0D01*
G01*
X18650000Y-16855000D01*
G75*
G02*
X18500000Y-16705000I0J150000D01*
G01*
X18500000Y-16405000D01*
G75*
G02*
X18650000Y-16255000I150000J0D01*
G01*
X20350000Y-16255000D01*
G75*
G02*
X20500000Y-16405000I0J-150000D01*
G01*
G37*
G04 #@! TD.AperFunction*
G04 #@! TA.AperFunction,SMDPad,CuDef*
G36*
G01*
X25500000Y-16405000D02*
X25500000Y-16705000D01*
G75*
G02*
X25350000Y-16855000I-150000J0D01*
G01*
X23650000Y-16855000D01*
G75*
G02*
X23500000Y-16705000I0J150000D01*
G01*
X23500000Y-16405000D01*
G75*
G02*
X23650000Y-16255000I150000J0D01*
G01*
X25350000Y-16255000D01*
G75*
G02*
X25500000Y-16405000I0J-150000D01*
G01*
G37*
G04 #@! TD.AperFunction*
G04 #@! TA.AperFunction,SMDPad,CuDef*
G36*
G01*
X25500000Y-17675000D02*
X25500000Y-17975000D01*
G75*
G02*
X25350000Y-18125000I-150000J0D01*
G01*
X23650000Y-18125000D01*
G75*
G02*
X23500000Y-17975000I0J150000D01*
G01*
X23500000Y-17675000D01*
G75*
G02*
X23650000Y-17525000I150000J0D01*
G01*
X25350000Y-17525000D01*
G75*
G02*
X25500000Y-17675000I0J-150000D01*
G01*
G37*
G04 #@! TD.AperFunction*
G04 #@! TA.AperFunction,SMDPad,CuDef*
G36*
G01*
X25500000Y-18945000D02*
X25500000Y-19245000D01*
G75*
G02*
X25350000Y-19395000I-150000J0D01*
G01*
X23650000Y-19395000D01*
G75*
G02*
X23500000Y-19245000I0J150000D01*
G01*
X23500000Y-18945000D01*
G75*
G02*
X23650000Y-18795000I150000J0D01*
G01*
X25350000Y-18795000D01*
G75*
G02*
X25500000Y-18945000I0J-150000D01*
G01*
G37*
G04 #@! TD.AperFunction*
G04 #@! TA.AperFunction,SMDPad,CuDef*
G36*
G01*
X25500000Y-20215000D02*
X25500000Y-20515000D01*
G75*
G02*
X25350000Y-20665000I-150000J0D01*
G01*
X23650000Y-20665000D01*
G75*
G02*
X23500000Y-20515000I0J150000D01*
G01*
X23500000Y-20215000D01*
G75*
G02*
X23650000Y-20065000I150000J0D01*
G01*
X25350000Y-20065000D01*
G75*
G02*
X25500000Y-20215000I0J-150000D01*
G01*
G37*
G04 #@! TD.AperFunction*
G04 #@! TA.AperFunction,SMDPad,CuDef*
G36*
G01*
X25500000Y-21485000D02*
X25500000Y-21785000D01*
G75*
G02*
X25350000Y-21935000I-150000J0D01*
G01*
X23650000Y-21935000D01*
G75*
G02*
X23500000Y-21785000I0J150000D01*
G01*
X23500000Y-21485000D01*
G75*
G02*
X23650000Y-21335000I150000J0D01*
G01*
X25350000Y-21335000D01*
G75*
G02*
X25500000Y-21485000I0J-150000D01*
G01*
G37*
G04 #@! TD.AperFunction*
G04 #@! TA.AperFunction,SMDPad,CuDef*
G36*
G01*
X25500000Y-22755000D02*
X25500000Y-23055000D01*
G75*
G02*
X25350000Y-23205000I-150000J0D01*
G01*
X23650000Y-23205000D01*
G75*
G02*
X23500000Y-23055000I0J150000D01*
G01*
X23500000Y-22755000D01*
G75*
G02*
X23650000Y-22605000I150000J0D01*
G01*
X25350000Y-22605000D01*
G75*
G02*
X25500000Y-22755000I0J-150000D01*
G01*
G37*
G04 #@! TD.AperFunction*
G04 #@! TA.AperFunction,SMDPad,CuDef*
G36*
G01*
X25500000Y-24025000D02*
X25500000Y-24325000D01*
G75*
G02*
X25350000Y-24475000I-150000J0D01*
G01*
X23650000Y-24475000D01*
G75*
G02*
X23500000Y-24325000I0J150000D01*
G01*
X23500000Y-24025000D01*
G75*
G02*
X23650000Y-23875000I150000J0D01*
G01*
X25350000Y-23875000D01*
G75*
G02*
X25500000Y-24025000I0J-150000D01*
G01*
G37*
G04 #@! TD.AperFunction*
G04 #@! TA.AperFunction,SMDPad,CuDef*
G36*
G01*
X25500000Y-25295000D02*
X25500000Y-25595000D01*
G75*
G02*
X25350000Y-25745000I-150000J0D01*
G01*
X23650000Y-25745000D01*
G75*
G02*
X23500000Y-25595000I0J150000D01*
G01*
X23500000Y-25295000D01*
G75*
G02*
X23650000Y-25145000I150000J0D01*
G01*
X25350000Y-25145000D01*
G75*
G02*
X25500000Y-25295000I0J-150000D01*
G01*
G37*
G04 #@! TD.AperFunction*
G04 #@! TA.AperFunction,SMDPad,CuDef*
G36*
G01*
X47700000Y-26200000D02*
X47700000Y-25900000D01*
G75*
G02*
X47850000Y-25750000I150000J0D01*
G01*
X48875000Y-25750000D01*
G75*
G02*
X49025000Y-25900000I0J-150000D01*
G01*
X49025000Y-26200000D01*
G75*
G02*
X48875000Y-26350000I-150000J0D01*
G01*
X47850000Y-26350000D01*
G75*
G02*
X47700000Y-26200000I0J150000D01*
G01*
G37*
G04 #@! TD.AperFunction*
G04 #@! TA.AperFunction,SMDPad,CuDef*
G36*
G01*
X47700000Y-27150000D02*
X47700000Y-26850000D01*
G75*
G02*
X47850000Y-26700000I150000J0D01*
G01*
X48875000Y-26700000D01*
G75*
G02*
X49025000Y-26850000I0J-150000D01*
G01*
X49025000Y-27150000D01*
G75*
G02*
X48875000Y-27300000I-150000J0D01*
G01*
X47850000Y-27300000D01*
G75*
G02*
X47700000Y-27150000I0J150000D01*
G01*
G37*
G04 #@! TD.AperFunction*
G04 #@! TA.AperFunction,SMDPad,CuDef*
G36*
G01*
X47700000Y-28100000D02*
X47700000Y-27800000D01*
G75*
G02*
X47850000Y-27650000I150000J0D01*
G01*
X48875000Y-27650000D01*
G75*
G02*
X49025000Y-27800000I0J-150000D01*
G01*
X49025000Y-28100000D01*
G75*
G02*
X48875000Y-28250000I-150000J0D01*
G01*
X47850000Y-28250000D01*
G75*
G02*
X47700000Y-28100000I0J150000D01*
G01*
G37*
G04 #@! TD.AperFunction*
G04 #@! TA.AperFunction,SMDPad,CuDef*
G36*
G01*
X49975000Y-28100000D02*
X49975000Y-27800000D01*
G75*
G02*
X50125000Y-27650000I150000J0D01*
G01*
X51150000Y-27650000D01*
G75*
G02*
X51300000Y-27800000I0J-150000D01*
G01*
X51300000Y-28100000D01*
G75*
G02*
X51150000Y-28250000I-150000J0D01*
G01*
X50125000Y-28250000D01*
G75*
G02*
X49975000Y-28100000I0J150000D01*
G01*
G37*
G04 #@! TD.AperFunction*
G04 #@! TA.AperFunction,SMDPad,CuDef*
G36*
G01*
X49975000Y-27150000D02*
X49975000Y-26850000D01*
G75*
G02*
X50125000Y-26700000I150000J0D01*
G01*
X51150000Y-26700000D01*
G75*
G02*
X51300000Y-26850000I0J-150000D01*
G01*
X51300000Y-27150000D01*
G75*
G02*
X51150000Y-27300000I-150000J0D01*
G01*
X50125000Y-27300000D01*
G75*
G02*
X49975000Y-27150000I0J150000D01*
G01*
G37*
G04 #@! TD.AperFunction*
G04 #@! TA.AperFunction,SMDPad,CuDef*
G36*
G01*
X49975000Y-26200000D02*
X49975000Y-25900000D01*
G75*
G02*
X50125000Y-25750000I150000J0D01*
G01*
X51150000Y-25750000D01*
G75*
G02*
X51300000Y-25900000I0J-150000D01*
G01*
X51300000Y-26200000D01*
G75*
G02*
X51150000Y-26350000I-150000J0D01*
G01*
X50125000Y-26350000D01*
G75*
G02*
X49975000Y-26200000I0J150000D01*
G01*
G37*
G04 #@! TD.AperFunction*
G04 #@! TA.AperFunction,SMDPad,CuDef*
G36*
G01*
X49975000Y-12700000D02*
X49975000Y-12400000D01*
G75*
G02*
X50125000Y-12250000I150000J0D01*
G01*
X51150000Y-12250000D01*
G75*
G02*
X51300000Y-12400000I0J-150000D01*
G01*
X51300000Y-12700000D01*
G75*
G02*
X51150000Y-12850000I-150000J0D01*
G01*
X50125000Y-12850000D01*
G75*
G02*
X49975000Y-12700000I0J150000D01*
G01*
G37*
G04 #@! TD.AperFunction*
G04 #@! TA.AperFunction,SMDPad,CuDef*
G36*
G01*
X49975000Y-13650000D02*
X49975000Y-13350000D01*
G75*
G02*
X50125000Y-13200000I150000J0D01*
G01*
X51150000Y-13200000D01*
G75*
G02*
X51300000Y-13350000I0J-150000D01*
G01*
X51300000Y-13650000D01*
G75*
G02*
X51150000Y-13800000I-150000J0D01*
G01*
X50125000Y-13800000D01*
G75*
G02*
X49975000Y-13650000I0J150000D01*
G01*
G37*
G04 #@! TD.AperFunction*
G04 #@! TA.AperFunction,SMDPad,CuDef*
G36*
G01*
X49975000Y-14600000D02*
X49975000Y-14300000D01*
G75*
G02*
X50125000Y-14150000I150000J0D01*
G01*
X51150000Y-14150000D01*
G75*
G02*
X51300000Y-14300000I0J-150000D01*
G01*
X51300000Y-14600000D01*
G75*
G02*
X51150000Y-14750000I-150000J0D01*
G01*
X50125000Y-14750000D01*
G75*
G02*
X49975000Y-14600000I0J150000D01*
G01*
G37*
G04 #@! TD.AperFunction*
G04 #@! TA.AperFunction,SMDPad,CuDef*
G36*
G01*
X47700000Y-14600000D02*
X47700000Y-14300000D01*
G75*
G02*
X47850000Y-14150000I150000J0D01*
G01*
X48875000Y-14150000D01*
G75*
G02*
X49025000Y-14300000I0J-150000D01*
G01*
X49025000Y-14600000D01*
G75*
G02*
X48875000Y-14750000I-150000J0D01*
G01*
X47850000Y-14750000D01*
G75*
G02*
X47700000Y-14600000I0J150000D01*
G01*
G37*
G04 #@! TD.AperFunction*
G04 #@! TA.AperFunction,SMDPad,CuDef*
G36*
G01*
X47700000Y-13650000D02*
X47700000Y-13350000D01*
G75*
G02*
X47850000Y-13200000I150000J0D01*
G01*
X48875000Y-13200000D01*
G75*
G02*
X49025000Y-13350000I0J-150000D01*
G01*
X49025000Y-13650000D01*
G75*
G02*
X48875000Y-13800000I-150000J0D01*
G01*
X47850000Y-13800000D01*
G75*
G02*
X47700000Y-13650000I0J150000D01*
G01*
G37*
G04 #@! TD.AperFunction*
G04 #@! TA.AperFunction,SMDPad,CuDef*
G36*
G01*
X47700000Y-12700000D02*
X47700000Y-12400000D01*
G75*
G02*
X47850000Y-12250000I150000J0D01*
G01*
X48875000Y-12250000D01*
G75*
G02*
X49025000Y-12400000I0J-150000D01*
G01*
X49025000Y-12700000D01*
G75*
G02*
X48875000Y-12850000I-150000J0D01*
G01*
X47850000Y-12850000D01*
G75*
G02*
X47700000Y-12700000I0J150000D01*
G01*
G37*
G04 #@! TD.AperFunction*
G04 #@! TA.AperFunction,SMDPad,CuDef*
G36*
G01*
X12800000Y-24300000D02*
X12800000Y-24600000D01*
G75*
G02*
X12650000Y-24750000I-150000J0D01*
G01*
X11625000Y-24750000D01*
G75*
G02*
X11475000Y-24600000I0J150000D01*
G01*
X11475000Y-24300000D01*
G75*
G02*
X11625000Y-24150000I150000J0D01*
G01*
X12650000Y-24150000D01*
G75*
G02*
X12800000Y-24300000I0J-150000D01*
G01*
G37*
G04 #@! TD.AperFunction*
G04 #@! TA.AperFunction,SMDPad,CuDef*
G36*
G01*
X12800000Y-23350000D02*
X12800000Y-23650000D01*
G75*
G02*
X12650000Y-23800000I-150000J0D01*
G01*
X11625000Y-23800000D01*
G75*
G02*
X11475000Y-23650000I0J150000D01*
G01*
X11475000Y-23350000D01*
G75*
G02*
X11625000Y-23200000I150000J0D01*
G01*
X12650000Y-23200000D01*
G75*
G02*
X12800000Y-23350000I0J-150000D01*
G01*
G37*
G04 #@! TD.AperFunction*
G04 #@! TA.AperFunction,SMDPad,CuDef*
G36*
G01*
X12800000Y-22400000D02*
X12800000Y-22700000D01*
G75*
G02*
X12650000Y-22850000I-150000J0D01*
G01*
X11625000Y-22850000D01*
G75*
G02*
X11475000Y-22700000I0J150000D01*
G01*
X11475000Y-22400000D01*
G75*
G02*
X11625000Y-22250000I150000J0D01*
G01*
X12650000Y-22250000D01*
G75*
G02*
X12800000Y-22400000I0J-150000D01*
G01*
G37*
G04 #@! TD.AperFunction*
G04 #@! TA.AperFunction,SMDPad,CuDef*
G36*
G01*
X10525000Y-22400000D02*
X10525000Y-22700000D01*
G75*
G02*
X10375000Y-22850000I-150000J0D01*
G01*
X9350000Y-22850000D01*
G75*
G02*
X9200000Y-22700000I0J150000D01*
G01*
X9200000Y-22400000D01*
G75*
G02*
X9350000Y-22250000I150000J0D01*
G01*
X10375000Y-22250000D01*
G75*
G02*
X10525000Y-22400000I0J-150000D01*
G01*
G37*
G04 #@! TD.AperFunction*
G04 #@! TA.AperFunction,SMDPad,CuDef*
G36*
G01*
X10525000Y-24300000D02*
X10525000Y-24600000D01*
G75*
G02*
X10375000Y-24750000I-150000J0D01*
G01*
X9350000Y-24750000D01*
G75*
G02*
X9200000Y-24600000I0J150000D01*
G01*
X9200000Y-24300000D01*
G75*
G02*
X9350000Y-24150000I150000J0D01*
G01*
X10375000Y-24150000D01*
G75*
G02*
X10525000Y-24300000I0J-150000D01*
G01*
G37*
G04 #@! TD.AperFunction*
G04 #@! TA.AperFunction,SMDPad,CuDef*
G36*
G01*
X10525000Y-19300000D02*
X10525000Y-19600000D01*
G75*
G02*
X10375000Y-19750000I-150000J0D01*
G01*
X9350000Y-19750000D01*
G75*
G02*
X9200000Y-19600000I0J150000D01*
G01*
X9200000Y-19300000D01*
G75*
G02*
X9350000Y-19150000I150000J0D01*
G01*
X10375000Y-19150000D01*
G75*
G02*
X10525000Y-19300000I0J-150000D01*
G01*
G37*
G04 #@! TD.AperFunction*
G04 #@! TA.AperFunction,SMDPad,CuDef*
G36*
G01*
X10525000Y-17400000D02*
X10525000Y-17700000D01*
G75*
G02*
X10375000Y-17850000I-150000J0D01*
G01*
X9350000Y-17850000D01*
G75*
G02*
X9200000Y-17700000I0J150000D01*
G01*
X9200000Y-17400000D01*
G75*
G02*
X9350000Y-17250000I150000J0D01*
G01*
X10375000Y-17250000D01*
G75*
G02*
X10525000Y-17400000I0J-150000D01*
G01*
G37*
G04 #@! TD.AperFunction*
G04 #@! TA.AperFunction,SMDPad,CuDef*
G36*
G01*
X12800000Y-17400000D02*
X12800000Y-17700000D01*
G75*
G02*
X12650000Y-17850000I-150000J0D01*
G01*
X11625000Y-17850000D01*
G75*
G02*
X11475000Y-17700000I0J150000D01*
G01*
X11475000Y-17400000D01*
G75*
G02*
X11625000Y-17250000I150000J0D01*
G01*
X12650000Y-17250000D01*
G75*
G02*
X12800000Y-17400000I0J-150000D01*
G01*
G37*
G04 #@! TD.AperFunction*
G04 #@! TA.AperFunction,SMDPad,CuDef*
G36*
G01*
X12800000Y-18350000D02*
X12800000Y-18650000D01*
G75*
G02*
X12650000Y-18800000I-150000J0D01*
G01*
X11625000Y-18800000D01*
G75*
G02*
X11475000Y-18650000I0J150000D01*
G01*
X11475000Y-18350000D01*
G75*
G02*
X11625000Y-18200000I150000J0D01*
G01*
X12650000Y-18200000D01*
G75*
G02*
X12800000Y-18350000I0J-150000D01*
G01*
G37*
G04 #@! TD.AperFunction*
G04 #@! TA.AperFunction,SMDPad,CuDef*
G36*
G01*
X12800000Y-19300000D02*
X12800000Y-19600000D01*
G75*
G02*
X12650000Y-19750000I-150000J0D01*
G01*
X11625000Y-19750000D01*
G75*
G02*
X11475000Y-19600000I0J150000D01*
G01*
X11475000Y-19300000D01*
G75*
G02*
X11625000Y-19150000I150000J0D01*
G01*
X12650000Y-19150000D01*
G75*
G02*
X12800000Y-19300000I0J-150000D01*
G01*
G37*
G04 #@! TD.AperFunction*
G04 #@! TA.AperFunction,SMDPad,CuDef*
G36*
G01*
X27200000Y-32700000D02*
X27200000Y-32400000D01*
G75*
G02*
X27350000Y-32250000I150000J0D01*
G01*
X28375000Y-32250000D01*
G75*
G02*
X28525000Y-32400000I0J-150000D01*
G01*
X28525000Y-32700000D01*
G75*
G02*
X28375000Y-32850000I-150000J0D01*
G01*
X27350000Y-32850000D01*
G75*
G02*
X27200000Y-32700000I0J150000D01*
G01*
G37*
G04 #@! TD.AperFunction*
G04 #@! TA.AperFunction,SMDPad,CuDef*
G36*
G01*
X27200000Y-33650000D02*
X27200000Y-33350000D01*
G75*
G02*
X27350000Y-33200000I150000J0D01*
G01*
X28375000Y-33200000D01*
G75*
G02*
X28525000Y-33350000I0J-150000D01*
G01*
X28525000Y-33650000D01*
G75*
G02*
X28375000Y-33800000I-150000J0D01*
G01*
X27350000Y-33800000D01*
G75*
G02*
X27200000Y-33650000I0J150000D01*
G01*
G37*
G04 #@! TD.AperFunction*
G04 #@! TA.AperFunction,SMDPad,CuDef*
G36*
G01*
X27200000Y-34600000D02*
X27200000Y-34300000D01*
G75*
G02*
X27350000Y-34150000I150000J0D01*
G01*
X28375000Y-34150000D01*
G75*
G02*
X28525000Y-34300000I0J-150000D01*
G01*
X28525000Y-34600000D01*
G75*
G02*
X28375000Y-34750000I-150000J0D01*
G01*
X27350000Y-34750000D01*
G75*
G02*
X27200000Y-34600000I0J150000D01*
G01*
G37*
G04 #@! TD.AperFunction*
G04 #@! TA.AperFunction,SMDPad,CuDef*
G36*
G01*
X29475000Y-34600000D02*
X29475000Y-34300000D01*
G75*
G02*
X29625000Y-34150000I150000J0D01*
G01*
X30650000Y-34150000D01*
G75*
G02*
X30800000Y-34300000I0J-150000D01*
G01*
X30800000Y-34600000D01*
G75*
G02*
X30650000Y-34750000I-150000J0D01*
G01*
X29625000Y-34750000D01*
G75*
G02*
X29475000Y-34600000I0J150000D01*
G01*
G37*
G04 #@! TD.AperFunction*
G04 #@! TA.AperFunction,SMDPad,CuDef*
G36*
G01*
X29475000Y-32700000D02*
X29475000Y-32400000D01*
G75*
G02*
X29625000Y-32250000I150000J0D01*
G01*
X30650000Y-32250000D01*
G75*
G02*
X30800000Y-32400000I0J-150000D01*
G01*
X30800000Y-32700000D01*
G75*
G02*
X30650000Y-32850000I-150000J0D01*
G01*
X29625000Y-32850000D01*
G75*
G02*
X29475000Y-32700000I0J150000D01*
G01*
G37*
G04 #@! TD.AperFunction*
G04 #@! TA.AperFunction,SMDPad,CuDef*
G36*
G01*
X35475000Y-32700000D02*
X35475000Y-32400000D01*
G75*
G02*
X35625000Y-32250000I150000J0D01*
G01*
X36650000Y-32250000D01*
G75*
G02*
X36800000Y-32400000I0J-150000D01*
G01*
X36800000Y-32700000D01*
G75*
G02*
X36650000Y-32850000I-150000J0D01*
G01*
X35625000Y-32850000D01*
G75*
G02*
X35475000Y-32700000I0J150000D01*
G01*
G37*
G04 #@! TD.AperFunction*
G04 #@! TA.AperFunction,SMDPad,CuDef*
G36*
G01*
X35475000Y-34600000D02*
X35475000Y-34300000D01*
G75*
G02*
X35625000Y-34150000I150000J0D01*
G01*
X36650000Y-34150000D01*
G75*
G02*
X36800000Y-34300000I0J-150000D01*
G01*
X36800000Y-34600000D01*
G75*
G02*
X36650000Y-34750000I-150000J0D01*
G01*
X35625000Y-34750000D01*
G75*
G02*
X35475000Y-34600000I0J150000D01*
G01*
G37*
G04 #@! TD.AperFunction*
G04 #@! TA.AperFunction,SMDPad,CuDef*
G36*
G01*
X33200000Y-34600000D02*
X33200000Y-34300000D01*
G75*
G02*
X33350000Y-34150000I150000J0D01*
G01*
X34375000Y-34150000D01*
G75*
G02*
X34525000Y-34300000I0J-150000D01*
G01*
X34525000Y-34600000D01*
G75*
G02*
X34375000Y-34750000I-150000J0D01*
G01*
X33350000Y-34750000D01*
G75*
G02*
X33200000Y-34600000I0J150000D01*
G01*
G37*
G04 #@! TD.AperFunction*
G04 #@! TA.AperFunction,SMDPad,CuDef*
G36*
G01*
X33200000Y-33650000D02*
X33200000Y-33350000D01*
G75*
G02*
X33350000Y-33200000I150000J0D01*
G01*
X34375000Y-33200000D01*
G75*
G02*
X34525000Y-33350000I0J-150000D01*
G01*
X34525000Y-33650000D01*
G75*
G02*
X34375000Y-33800000I-150000J0D01*
G01*
X33350000Y-33800000D01*
G75*
G02*
X33200000Y-33650000I0J150000D01*
G01*
G37*
G04 #@! TD.AperFunction*
G04 #@! TA.AperFunction,SMDPad,CuDef*
G36*
G01*
X33200000Y-32700000D02*
X33200000Y-32400000D01*
G75*
G02*
X33350000Y-32250000I150000J0D01*
G01*
X34375000Y-32250000D01*
G75*
G02*
X34525000Y-32400000I0J-150000D01*
G01*
X34525000Y-32700000D01*
G75*
G02*
X34375000Y-32850000I-150000J0D01*
G01*
X33350000Y-32850000D01*
G75*
G02*
X33200000Y-32700000I0J150000D01*
G01*
G37*
G04 #@! TD.AperFunction*
G04 #@! TA.AperFunction,SMDPad,CuDef*
G36*
G01*
X74700000Y-20525000D02*
X74400000Y-20525000D01*
G75*
G02*
X74250000Y-20375000I0J150000D01*
G01*
X74250000Y-19350000D01*
G75*
G02*
X74400000Y-19200000I150000J0D01*
G01*
X74700000Y-19200000D01*
G75*
G02*
X74850000Y-19350000I0J-150000D01*
G01*
X74850000Y-20375000D01*
G75*
G02*
X74700000Y-20525000I-150000J0D01*
G01*
G37*
G04 #@! TD.AperFunction*
G04 #@! TA.AperFunction,SMDPad,CuDef*
G36*
G01*
X76600000Y-20525000D02*
X76300000Y-20525000D01*
G75*
G02*
X76150000Y-20375000I0J150000D01*
G01*
X76150000Y-19350000D01*
G75*
G02*
X76300000Y-19200000I150000J0D01*
G01*
X76600000Y-19200000D01*
G75*
G02*
X76750000Y-19350000I0J-150000D01*
G01*
X76750000Y-20375000D01*
G75*
G02*
X76600000Y-20525000I-150000J0D01*
G01*
G37*
G04 #@! TD.AperFunction*
G04 #@! TA.AperFunction,SMDPad,CuDef*
G36*
G01*
X76600000Y-22800000D02*
X76300000Y-22800000D01*
G75*
G02*
X76150000Y-22650000I0J150000D01*
G01*
X76150000Y-21625000D01*
G75*
G02*
X76300000Y-21475000I150000J0D01*
G01*
X76600000Y-21475000D01*
G75*
G02*
X76750000Y-21625000I0J-150000D01*
G01*
X76750000Y-22650000D01*
G75*
G02*
X76600000Y-22800000I-150000J0D01*
G01*
G37*
G04 #@! TD.AperFunction*
G04 #@! TA.AperFunction,SMDPad,CuDef*
G36*
G01*
X75650000Y-22800000D02*
X75350000Y-22800000D01*
G75*
G02*
X75200000Y-22650000I0J150000D01*
G01*
X75200000Y-21625000D01*
G75*
G02*
X75350000Y-21475000I150000J0D01*
G01*
X75650000Y-21475000D01*
G75*
G02*
X75800000Y-21625000I0J-150000D01*
G01*
X75800000Y-22650000D01*
G75*
G02*
X75650000Y-22800000I-150000J0D01*
G01*
G37*
G04 #@! TD.AperFunction*
G04 #@! TA.AperFunction,SMDPad,CuDef*
G36*
G01*
X74700000Y-22800000D02*
X74400000Y-22800000D01*
G75*
G02*
X74250000Y-22650000I0J150000D01*
G01*
X74250000Y-21625000D01*
G75*
G02*
X74400000Y-21475000I150000J0D01*
G01*
X74700000Y-21475000D01*
G75*
G02*
X74850000Y-21625000I0J-150000D01*
G01*
X74850000Y-22650000D01*
G75*
G02*
X74700000Y-22800000I-150000J0D01*
G01*
G37*
G04 #@! TD.AperFunction*
G04 #@! TA.AperFunction,SMDPad,CuDef*
G36*
G01*
X82475000Y-20200000D02*
X82475000Y-19900000D01*
G75*
G02*
X82625000Y-19750000I150000J0D01*
G01*
X83650000Y-19750000D01*
G75*
G02*
X83800000Y-19900000I0J-150000D01*
G01*
X83800000Y-20200000D01*
G75*
G02*
X83650000Y-20350000I-150000J0D01*
G01*
X82625000Y-20350000D01*
G75*
G02*
X82475000Y-20200000I0J150000D01*
G01*
G37*
G04 #@! TD.AperFunction*
G04 #@! TA.AperFunction,SMDPad,CuDef*
G36*
G01*
X82475000Y-22100000D02*
X82475000Y-21800000D01*
G75*
G02*
X82625000Y-21650000I150000J0D01*
G01*
X83650000Y-21650000D01*
G75*
G02*
X83800000Y-21800000I0J-150000D01*
G01*
X83800000Y-22100000D01*
G75*
G02*
X83650000Y-22250000I-150000J0D01*
G01*
X82625000Y-22250000D01*
G75*
G02*
X82475000Y-22100000I0J150000D01*
G01*
G37*
G04 #@! TD.AperFunction*
G04 #@! TA.AperFunction,SMDPad,CuDef*
G36*
G01*
X80200000Y-22100000D02*
X80200000Y-21800000D01*
G75*
G02*
X80350000Y-21650000I150000J0D01*
G01*
X81375000Y-21650000D01*
G75*
G02*
X81525000Y-21800000I0J-150000D01*
G01*
X81525000Y-22100000D01*
G75*
G02*
X81375000Y-22250000I-150000J0D01*
G01*
X80350000Y-22250000D01*
G75*
G02*
X80200000Y-22100000I0J150000D01*
G01*
G37*
G04 #@! TD.AperFunction*
G04 #@! TA.AperFunction,SMDPad,CuDef*
G36*
G01*
X80200000Y-21150000D02*
X80200000Y-20850000D01*
G75*
G02*
X80350000Y-20700000I150000J0D01*
G01*
X81375000Y-20700000D01*
G75*
G02*
X81525000Y-20850000I0J-150000D01*
G01*
X81525000Y-21150000D01*
G75*
G02*
X81375000Y-21300000I-150000J0D01*
G01*
X80350000Y-21300000D01*
G75*
G02*
X80200000Y-21150000I0J150000D01*
G01*
G37*
G04 #@! TD.AperFunction*
G04 #@! TA.AperFunction,SMDPad,CuDef*
G36*
G01*
X80200000Y-20200000D02*
X80200000Y-19900000D01*
G75*
G02*
X80350000Y-19750000I150000J0D01*
G01*
X81375000Y-19750000D01*
G75*
G02*
X81525000Y-19900000I0J-150000D01*
G01*
X81525000Y-20200000D01*
G75*
G02*
X81375000Y-20350000I-150000J0D01*
G01*
X80350000Y-20350000D01*
G75*
G02*
X80200000Y-20200000I0J150000D01*
G01*
G37*
G04 #@! TD.AperFunction*
G04 #@! TA.AperFunction,SMDPad,CuDef*
G36*
G01*
X33000000Y-25295000D02*
X33000000Y-25595000D01*
G75*
G02*
X32850000Y-25745000I-150000J0D01*
G01*
X31200000Y-25745000D01*
G75*
G02*
X31050000Y-25595000I0J150000D01*
G01*
X31050000Y-25295000D01*
G75*
G02*
X31200000Y-25145000I150000J0D01*
G01*
X32850000Y-25145000D01*
G75*
G02*
X33000000Y-25295000I0J-150000D01*
G01*
G37*
G04 #@! TD.AperFunction*
G04 #@! TA.AperFunction,SMDPad,CuDef*
G36*
G01*
X33000000Y-24025000D02*
X33000000Y-24325000D01*
G75*
G02*
X32850000Y-24475000I-150000J0D01*
G01*
X31200000Y-24475000D01*
G75*
G02*
X31050000Y-24325000I0J150000D01*
G01*
X31050000Y-24025000D01*
G75*
G02*
X31200000Y-23875000I150000J0D01*
G01*
X32850000Y-23875000D01*
G75*
G02*
X33000000Y-24025000I0J-150000D01*
G01*
G37*
G04 #@! TD.AperFunction*
G04 #@! TA.AperFunction,SMDPad,CuDef*
G36*
G01*
X33000000Y-22755000D02*
X33000000Y-23055000D01*
G75*
G02*
X32850000Y-23205000I-150000J0D01*
G01*
X31200000Y-23205000D01*
G75*
G02*
X31050000Y-23055000I0J150000D01*
G01*
X31050000Y-22755000D01*
G75*
G02*
X31200000Y-22605000I150000J0D01*
G01*
X32850000Y-22605000D01*
G75*
G02*
X33000000Y-22755000I0J-150000D01*
G01*
G37*
G04 #@! TD.AperFunction*
G04 #@! TA.AperFunction,SMDPad,CuDef*
G36*
G01*
X33000000Y-21485000D02*
X33000000Y-21785000D01*
G75*
G02*
X32850000Y-21935000I-150000J0D01*
G01*
X31200000Y-21935000D01*
G75*
G02*
X31050000Y-21785000I0J150000D01*
G01*
X31050000Y-21485000D01*
G75*
G02*
X31200000Y-21335000I150000J0D01*
G01*
X32850000Y-21335000D01*
G75*
G02*
X33000000Y-21485000I0J-150000D01*
G01*
G37*
G04 #@! TD.AperFunction*
G04 #@! TA.AperFunction,SMDPad,CuDef*
G36*
G01*
X33000000Y-20215000D02*
X33000000Y-20515000D01*
G75*
G02*
X32850000Y-20665000I-150000J0D01*
G01*
X31200000Y-20665000D01*
G75*
G02*
X31050000Y-20515000I0J150000D01*
G01*
X31050000Y-20215000D01*
G75*
G02*
X31200000Y-20065000I150000J0D01*
G01*
X32850000Y-20065000D01*
G75*
G02*
X33000000Y-20215000I0J-150000D01*
G01*
G37*
G04 #@! TD.AperFunction*
G04 #@! TA.AperFunction,SMDPad,CuDef*
G36*
G01*
X33000000Y-18945000D02*
X33000000Y-19245000D01*
G75*
G02*
X32850000Y-19395000I-150000J0D01*
G01*
X31200000Y-19395000D01*
G75*
G02*
X31050000Y-19245000I0J150000D01*
G01*
X31050000Y-18945000D01*
G75*
G02*
X31200000Y-18795000I150000J0D01*
G01*
X32850000Y-18795000D01*
G75*
G02*
X33000000Y-18945000I0J-150000D01*
G01*
G37*
G04 #@! TD.AperFunction*
G04 #@! TA.AperFunction,SMDPad,CuDef*
G36*
G01*
X33000000Y-17675000D02*
X33000000Y-17975000D01*
G75*
G02*
X32850000Y-18125000I-150000J0D01*
G01*
X31200000Y-18125000D01*
G75*
G02*
X31050000Y-17975000I0J150000D01*
G01*
X31050000Y-17675000D01*
G75*
G02*
X31200000Y-17525000I150000J0D01*
G01*
X32850000Y-17525000D01*
G75*
G02*
X33000000Y-17675000I0J-150000D01*
G01*
G37*
G04 #@! TD.AperFunction*
G04 #@! TA.AperFunction,SMDPad,CuDef*
G36*
G01*
X33000000Y-16405000D02*
X33000000Y-16705000D01*
G75*
G02*
X32850000Y-16855000I-150000J0D01*
G01*
X31200000Y-16855000D01*
G75*
G02*
X31050000Y-16705000I0J150000D01*
G01*
X31050000Y-16405000D01*
G75*
G02*
X31200000Y-16255000I150000J0D01*
G01*
X32850000Y-16255000D01*
G75*
G02*
X33000000Y-16405000I0J-150000D01*
G01*
G37*
G04 #@! TD.AperFunction*
G04 #@! TA.AperFunction,SMDPad,CuDef*
G36*
G01*
X37950000Y-16405000D02*
X37950000Y-16705000D01*
G75*
G02*
X37800000Y-16855000I-150000J0D01*
G01*
X36150000Y-16855000D01*
G75*
G02*
X36000000Y-16705000I0J150000D01*
G01*
X36000000Y-16405000D01*
G75*
G02*
X36150000Y-16255000I150000J0D01*
G01*
X37800000Y-16255000D01*
G75*
G02*
X37950000Y-16405000I0J-150000D01*
G01*
G37*
G04 #@! TD.AperFunction*
G04 #@! TA.AperFunction,SMDPad,CuDef*
G36*
G01*
X37950000Y-17675000D02*
X37950000Y-17975000D01*
G75*
G02*
X37800000Y-18125000I-150000J0D01*
G01*
X36150000Y-18125000D01*
G75*
G02*
X36000000Y-17975000I0J150000D01*
G01*
X36000000Y-17675000D01*
G75*
G02*
X36150000Y-17525000I150000J0D01*
G01*
X37800000Y-17525000D01*
G75*
G02*
X37950000Y-17675000I0J-150000D01*
G01*
G37*
G04 #@! TD.AperFunction*
G04 #@! TA.AperFunction,SMDPad,CuDef*
G36*
G01*
X37950000Y-18945000D02*
X37950000Y-19245000D01*
G75*
G02*
X37800000Y-19395000I-150000J0D01*
G01*
X36150000Y-19395000D01*
G75*
G02*
X36000000Y-19245000I0J150000D01*
G01*
X36000000Y-18945000D01*
G75*
G02*
X36150000Y-18795000I150000J0D01*
G01*
X37800000Y-18795000D01*
G75*
G02*
X37950000Y-18945000I0J-150000D01*
G01*
G37*
G04 #@! TD.AperFunction*
G04 #@! TA.AperFunction,SMDPad,CuDef*
G36*
G01*
X37950000Y-20215000D02*
X37950000Y-20515000D01*
G75*
G02*
X37800000Y-20665000I-150000J0D01*
G01*
X36150000Y-20665000D01*
G75*
G02*
X36000000Y-20515000I0J150000D01*
G01*
X36000000Y-20215000D01*
G75*
G02*
X36150000Y-20065000I150000J0D01*
G01*
X37800000Y-20065000D01*
G75*
G02*
X37950000Y-20215000I0J-150000D01*
G01*
G37*
G04 #@! TD.AperFunction*
G04 #@! TA.AperFunction,SMDPad,CuDef*
G36*
G01*
X37950000Y-21485000D02*
X37950000Y-21785000D01*
G75*
G02*
X37800000Y-21935000I-150000J0D01*
G01*
X36150000Y-21935000D01*
G75*
G02*
X36000000Y-21785000I0J150000D01*
G01*
X36000000Y-21485000D01*
G75*
G02*
X36150000Y-21335000I150000J0D01*
G01*
X37800000Y-21335000D01*
G75*
G02*
X37950000Y-21485000I0J-150000D01*
G01*
G37*
G04 #@! TD.AperFunction*
G04 #@! TA.AperFunction,SMDPad,CuDef*
G36*
G01*
X37950000Y-22755000D02*
X37950000Y-23055000D01*
G75*
G02*
X37800000Y-23205000I-150000J0D01*
G01*
X36150000Y-23205000D01*
G75*
G02*
X36000000Y-23055000I0J150000D01*
G01*
X36000000Y-22755000D01*
G75*
G02*
X36150000Y-22605000I150000J0D01*
G01*
X37800000Y-22605000D01*
G75*
G02*
X37950000Y-22755000I0J-150000D01*
G01*
G37*
G04 #@! TD.AperFunction*
G04 #@! TA.AperFunction,SMDPad,CuDef*
G36*
G01*
X37950000Y-24025000D02*
X37950000Y-24325000D01*
G75*
G02*
X37800000Y-24475000I-150000J0D01*
G01*
X36150000Y-24475000D01*
G75*
G02*
X36000000Y-24325000I0J150000D01*
G01*
X36000000Y-24025000D01*
G75*
G02*
X36150000Y-23875000I150000J0D01*
G01*
X37800000Y-23875000D01*
G75*
G02*
X37950000Y-24025000I0J-150000D01*
G01*
G37*
G04 #@! TD.AperFunction*
G04 #@! TA.AperFunction,SMDPad,CuDef*
G36*
G01*
X37950000Y-25295000D02*
X37950000Y-25595000D01*
G75*
G02*
X37800000Y-25745000I-150000J0D01*
G01*
X36150000Y-25745000D01*
G75*
G02*
X36000000Y-25595000I0J150000D01*
G01*
X36000000Y-25295000D01*
G75*
G02*
X36150000Y-25145000I150000J0D01*
G01*
X37800000Y-25145000D01*
G75*
G02*
X37950000Y-25295000I0J-150000D01*
G01*
G37*
G04 #@! TD.AperFunction*
D13*
X40644400Y-18986000D03*
X66345500Y-37115700D03*
X33486600Y-17798300D03*
X62837000Y-24546500D03*
X27388800Y-15955000D03*
X31846200Y-26181200D03*
X61930250Y-35869750D03*
X52610000Y-27000000D03*
X46370000Y-26540000D03*
X74109000Y-25342500D03*
X66080000Y-38880000D03*
X70650000Y-42100000D03*
X51680000Y-37360000D03*
X15910000Y-20670000D03*
X17560000Y-26280000D03*
X46582300Y-13500000D03*
X13226100Y-17447500D03*
X53140000Y-20540000D03*
X28470000Y-27990000D03*
X25260000Y-33920000D03*
X20370000Y-40550000D03*
X61200000Y-38440000D03*
X37300000Y-14730000D03*
X50027500Y-41447000D03*
X52337000Y-39137500D03*
X49140200Y-45141000D03*
X49524100Y-40962000D03*
X46575200Y-45160600D03*
X46930000Y-39370000D03*
X33778000Y-41792500D03*
X33252300Y-26667900D03*
X41975100Y-37279700D03*
X77827100Y-31704400D03*
X40225700Y-37262600D03*
X77442300Y-28824400D03*
X41266500Y-37258900D03*
X77722500Y-31067100D03*
X52430000Y-13310000D03*
X72103600Y-38372800D03*
X56162700Y-31071300D03*
X71239400Y-31485300D03*
X61664200Y-34816400D03*
X53979900Y-36451000D03*
X47017000Y-34239300D03*
X48590500Y-35547500D03*
X37681300Y-26151300D03*
X68764000Y-19830000D03*
X44775900Y-35731400D03*
X66480300Y-33759800D03*
X69816500Y-19421100D03*
X44869300Y-31888300D03*
X29574600Y-18894100D03*
X27181400Y-22140200D03*
X36137500Y-33730500D03*
X48665600Y-25315200D03*
X48814900Y-19065100D03*
X9836700Y-23273400D03*
X9446900Y-18278500D03*
X73519500Y-22473000D03*
X15762600Y-24175300D03*
D14*
X48050000Y-36862500D02*
X48053800Y-36862500D01*
X48053800Y-36862500D02*
X49072100Y-35844200D01*
X49072100Y-35844200D02*
X53065800Y-35844200D01*
X53050000Y-36602700D02*
X53050000Y-36862500D01*
X58050000Y-36862500D02*
X57031700Y-35844200D01*
X57031700Y-35844200D02*
X53065800Y-35844200D01*
X66345500Y-37115700D02*
X68796800Y-37115700D01*
X68796800Y-37115700D02*
X69050000Y-36862500D01*
X66050000Y-19862500D02*
X67076200Y-18836300D01*
X67076200Y-18836300D02*
X73523800Y-18836300D01*
X73523800Y-18836300D02*
X74550000Y-19862500D01*
X62837000Y-24546500D02*
X62837000Y-23075500D01*
X62837000Y-23075500D02*
X66050000Y-19862500D01*
X90500000Y-37120000D02*
X89324700Y-37120000D01*
X89324700Y-37120000D02*
X88078700Y-35874000D01*
X88078700Y-35874000D02*
X70038500Y-35874000D01*
X70038500Y-35874000D02*
X69050000Y-36862500D01*
X53675000Y-27000000D02*
X50637500Y-27000000D01*
X55000000Y-25675000D02*
X53675000Y-27000000D01*
X32025000Y-17825000D02*
X33459900Y-17825000D01*
X33459900Y-17825000D02*
X33486600Y-17798300D01*
X24916300Y-17825000D02*
X24500000Y-17825000D01*
X55000000Y-25675000D02*
X56128500Y-24546500D01*
X56128500Y-24546500D02*
X62837000Y-24546500D01*
X19500000Y-16555000D02*
X19500000Y-17825000D01*
X19450000Y-25495000D02*
X19500000Y-25445000D01*
X19450000Y-25495000D02*
X19450000Y-27500000D01*
X9862500Y-24450000D02*
X10907500Y-25495000D01*
X10907500Y-25495000D02*
X13000000Y-25495000D01*
X13000000Y-34500000D02*
X13000000Y-25495000D01*
X31950000Y-27500000D02*
X31846200Y-27396200D01*
X31846200Y-27396200D02*
X31846200Y-26181200D01*
X31950000Y-27500000D02*
X31950000Y-30737500D01*
X32025000Y-25445000D02*
X32025000Y-26002400D01*
X32025000Y-26002400D02*
X31846200Y-26181200D01*
X31950000Y-30737500D02*
X30137500Y-32550000D01*
X31950000Y-30737500D02*
X34325000Y-30737500D01*
X34325000Y-30737500D02*
X36137500Y-32550000D01*
X23950000Y-43980000D02*
X23950000Y-42500000D01*
X24240000Y-45824700D02*
X23950000Y-45534700D01*
X23950000Y-42500000D02*
X23950000Y-40500000D01*
X9862500Y-24450000D02*
X8874100Y-23461600D01*
X8874100Y-23461600D02*
X8874100Y-20438400D01*
X8874100Y-20438400D02*
X9862500Y-19450000D01*
X24240000Y-49900000D02*
X24240000Y-45824700D01*
X63050000Y-36862500D02*
X61897500Y-36862500D01*
X53050000Y-35860000D02*
X53065800Y-35844200D01*
X53050000Y-36862500D02*
X53050000Y-35860000D01*
X50450000Y-23000000D02*
X50450000Y-22190000D01*
X50450000Y-22190000D02*
X49350000Y-21090000D01*
X42748400Y-21090000D02*
X40644400Y-18986000D01*
X49350000Y-21090000D02*
X42748400Y-21090000D01*
X23950000Y-43980000D02*
X21360000Y-43980000D01*
X23950000Y-45534700D02*
X23950000Y-43980000D01*
X21360000Y-43980000D02*
X16300000Y-38920000D01*
X16300000Y-37800000D02*
X13000000Y-34500000D01*
X16300000Y-38920000D02*
X16300000Y-37800000D01*
X21075000Y-16555000D02*
X21920000Y-15710000D01*
X19500000Y-16555000D02*
X21075000Y-16555000D01*
X27388800Y-15955000D02*
X27143800Y-15710000D01*
X27143800Y-15710000D02*
X21920000Y-15710000D01*
X25518800Y-17825000D02*
X27388800Y-15955000D01*
X24500000Y-17825000D02*
X25518800Y-17825000D01*
X10926200Y-18386300D02*
X9862500Y-19450000D01*
X10926200Y-17193800D02*
X10926200Y-18386300D01*
X11565000Y-16555000D02*
X10926200Y-17193800D01*
X19500000Y-16555000D02*
X11565000Y-16555000D01*
X61497500Y-36862500D02*
X61897500Y-36862500D01*
X60501200Y-37858800D02*
X61497500Y-36862500D01*
X59046300Y-37858800D02*
X60501200Y-37858800D01*
X58050000Y-36862500D02*
X59046300Y-37858800D01*
X61930250Y-35869750D02*
X61930250Y-36829750D01*
X61930250Y-36829750D02*
X61897500Y-36862500D01*
X50249100Y-27000000D02*
X50637500Y-27000000D01*
X49633900Y-26384800D02*
X50249100Y-27000000D01*
X49633900Y-24566100D02*
X49633900Y-26384800D01*
X50450000Y-23750000D02*
X49633900Y-24566100D01*
X50450000Y-23000000D02*
X50450000Y-23750000D01*
X18275000Y-25445000D02*
X19500000Y-25445000D01*
X18040000Y-25210000D02*
X18275000Y-25445000D01*
X17420000Y-25210000D02*
X18040000Y-25210000D01*
X17135000Y-25495000D02*
X17420000Y-25210000D01*
X13000000Y-25495000D02*
X17135000Y-25495000D01*
X44856700Y-26944200D02*
X44500000Y-26587500D01*
X76450000Y-22546600D02*
X76450000Y-22137500D01*
X70950000Y-39137500D02*
X70950000Y-39543400D01*
X64950000Y-38977600D02*
X64950000Y-39137500D01*
X48362500Y-27000000D02*
X48750700Y-27000000D01*
X17628400Y-27160000D02*
X17628400Y-27217000D01*
X17628400Y-27160000D02*
X17628400Y-27421600D01*
X17628400Y-27421600D02*
X17550000Y-27500000D01*
X24093600Y-16555000D02*
X24500000Y-16555000D01*
X24500000Y-19095000D02*
X24081500Y-19095000D01*
X55000000Y-21087500D02*
X54863200Y-21087500D01*
X12137500Y-17550000D02*
X13123600Y-17550000D01*
X13123600Y-17550000D02*
X13226100Y-17447500D01*
X27862500Y-34450000D02*
X28328500Y-34450000D01*
X54612300Y-38012300D02*
X51847700Y-38012300D01*
X50722500Y-39137500D02*
X49950000Y-39137500D01*
X51847700Y-38012300D02*
X50722500Y-39137500D01*
X54950000Y-38350000D02*
X54950000Y-39137500D01*
X54612300Y-38012300D02*
X54950000Y-38350000D01*
X24500000Y-16555000D02*
X22825000Y-16555000D01*
X22825000Y-16555000D02*
X22300000Y-17080000D01*
X22300000Y-17080000D02*
X22300000Y-19060000D01*
X22335000Y-19095000D02*
X24500000Y-19095000D01*
X21480100Y-20999900D02*
X22300000Y-20180000D01*
X16419300Y-20999900D02*
X21480100Y-20999900D01*
X16419300Y-21000000D02*
X16419300Y-20999900D01*
X22335000Y-19095000D02*
X22300000Y-19060000D01*
X22300000Y-20180000D02*
X22300000Y-19060000D01*
X60502500Y-39137500D02*
X61200000Y-38440000D01*
X59950000Y-39137500D02*
X60502500Y-39137500D01*
X16240000Y-21000000D02*
X15910000Y-20670000D01*
X16419300Y-21000000D02*
X16240000Y-21000000D01*
X24500000Y-22905000D02*
X24500000Y-21635000D01*
X24500000Y-21635000D02*
X24500000Y-20365000D01*
X24500000Y-19095000D02*
X24500000Y-20365000D01*
X36975000Y-15055000D02*
X37300000Y-14730000D01*
X36975000Y-16555000D02*
X36975000Y-15055000D01*
X70650000Y-40540000D02*
X70950000Y-40240000D01*
X70650000Y-42100000D02*
X70650000Y-40540000D01*
X70950000Y-39137500D02*
X70950000Y-40240000D01*
X17550000Y-26290000D02*
X17560000Y-26280000D01*
X17550000Y-27500000D02*
X17550000Y-26290000D01*
D15*
X54720000Y-49900000D02*
X54720000Y-45869700D01*
X63050000Y-39137500D02*
X56317800Y-45869700D01*
X56317800Y-45869700D02*
X54720000Y-45869700D01*
X58050000Y-39137500D02*
X52180000Y-45007500D01*
X52180000Y-45007500D02*
X52180000Y-49900000D01*
X49640000Y-45869700D02*
X50027500Y-45482200D01*
X50027500Y-45482200D02*
X50027500Y-41447000D01*
X53050000Y-39137500D02*
X52337000Y-39137500D01*
X49640000Y-49900000D02*
X49640000Y-45869700D01*
X49524100Y-40962000D02*
X49140200Y-41345900D01*
X49140200Y-41345900D02*
X49140200Y-45141000D01*
X48050000Y-40030000D02*
X47100000Y-40980000D01*
X48050000Y-39137500D02*
X48050000Y-40030000D01*
X47100000Y-49900000D02*
X47100000Y-40980000D01*
X46575200Y-45160600D02*
X46575200Y-40714800D01*
X46930000Y-40360000D02*
X46930000Y-39370000D01*
X46575200Y-40714800D02*
X46930000Y-40360000D01*
X36975000Y-19095000D02*
X37293200Y-19095000D01*
X37293200Y-19095000D02*
X39686200Y-21488000D01*
X39686200Y-21488000D02*
X39686200Y-40995900D01*
X39686200Y-40995900D02*
X44560000Y-45869700D01*
X44560000Y-49900000D02*
X44560000Y-45869700D01*
X36975000Y-20365000D02*
X37290700Y-20365000D01*
X37290700Y-20365000D02*
X39305900Y-22380200D01*
X39305900Y-22380200D02*
X39305900Y-43155600D01*
X39305900Y-43155600D02*
X42020000Y-45869700D01*
X42020000Y-49900000D02*
X42020000Y-45869700D01*
X39480000Y-45869700D02*
X38660800Y-45050500D01*
X38660800Y-45050500D02*
X38660800Y-22994200D01*
X38660800Y-22994200D02*
X37301600Y-21635000D01*
X37301600Y-21635000D02*
X36975000Y-21635000D01*
X39480000Y-49900000D02*
X39480000Y-45869700D01*
X36940000Y-49900000D02*
X36940000Y-45869700D01*
X36975000Y-22905000D02*
X37310300Y-22905000D01*
X37310300Y-22905000D02*
X38280400Y-23875100D01*
X38280400Y-23875100D02*
X38280400Y-44529300D01*
X38280400Y-44529300D02*
X36940000Y-45869700D01*
X34400000Y-49900000D02*
X34400000Y-42414500D01*
X34400000Y-42414500D02*
X33778000Y-41792500D01*
X32025000Y-22905000D02*
X32358100Y-22905000D01*
X32358100Y-22905000D02*
X33308200Y-23855100D01*
X33308200Y-23855100D02*
X33308200Y-26612000D01*
X33308200Y-26612000D02*
X33252300Y-26667900D01*
X26780000Y-49900000D02*
X26780000Y-45092000D01*
X26780000Y-45092000D02*
X37107600Y-34764400D01*
X37107600Y-34764400D02*
X37107600Y-29425100D01*
X37107600Y-29425100D02*
X34109100Y-26426600D01*
X34109100Y-26426600D02*
X34109100Y-23378800D01*
X34109100Y-23378800D02*
X33000300Y-22270000D01*
X33000300Y-22270000D02*
X31061900Y-22270000D01*
X31061900Y-22270000D02*
X30351500Y-21559600D01*
X30351500Y-21559600D02*
X30351500Y-19822800D01*
X30351500Y-19822800D02*
X31079300Y-19095000D01*
X31079300Y-19095000D02*
X32025000Y-19095000D01*
X29320000Y-49900000D02*
X29320000Y-43166300D01*
X29320000Y-43166300D02*
X37487900Y-34998400D01*
X37487900Y-34998400D02*
X37487900Y-29267600D01*
X37487900Y-29267600D02*
X34489400Y-26269100D01*
X34489400Y-26269100D02*
X34489400Y-22477300D01*
X34489400Y-22477300D02*
X32377100Y-20365000D01*
X32377100Y-20365000D02*
X32025000Y-20365000D01*
X31860000Y-49900000D02*
X31860000Y-41164100D01*
X31860000Y-41164100D02*
X37868200Y-35155900D01*
X37868200Y-35155900D02*
X37868200Y-28572300D01*
X37868200Y-28572300D02*
X34869700Y-25573800D01*
X34869700Y-25573800D02*
X34869700Y-21598500D01*
X34869700Y-21598500D02*
X33053900Y-19782700D01*
X33053900Y-19782700D02*
X31023400Y-19782700D01*
X31023400Y-19782700D02*
X30765600Y-20040500D01*
X30765600Y-20040500D02*
X30765600Y-20774900D01*
X30765600Y-20774900D02*
X31625700Y-21635000D01*
X31625700Y-21635000D02*
X32025000Y-21635000D01*
X41975100Y-37279700D02*
X46011500Y-33243300D01*
X46011500Y-33243300D02*
X76288200Y-33243300D01*
X76288200Y-33243300D02*
X77827100Y-31704400D01*
X40225700Y-37262600D02*
X45100800Y-32387500D01*
X45100800Y-32387500D02*
X73879200Y-32387500D01*
X73879200Y-32387500D02*
X77442300Y-28824400D01*
X41266500Y-37258900D02*
X45757600Y-32767800D01*
X45757600Y-32767800D02*
X76021800Y-32767800D01*
X76021800Y-32767800D02*
X77722500Y-31067100D01*
D14*
X55000000Y-12587500D02*
X75675000Y-12587500D01*
X75675000Y-12587500D02*
X83137500Y-20050000D01*
X54037500Y-12587500D02*
X55000000Y-12587500D01*
X53489600Y-12039500D02*
X50450000Y-9000000D01*
X50450000Y-9000000D02*
X50450000Y-8735700D01*
X50450000Y-8735700D02*
X49226200Y-7511900D01*
X49226200Y-7511900D02*
X18550900Y-7511900D01*
X18550900Y-7511900D02*
X8381300Y-17681500D01*
X8381300Y-17681500D02*
X8381300Y-32421300D01*
X8381300Y-32421300D02*
X13000000Y-37040000D01*
X52240000Y-13500000D02*
X52430000Y-13310000D01*
X50637500Y-13500000D02*
X52240000Y-13500000D01*
X53580042Y-12159958D02*
X53580042Y-12129958D01*
X52430000Y-13310000D02*
X53580042Y-12159958D01*
X53580042Y-12129958D02*
X54037500Y-12587500D01*
X53489600Y-12039500D02*
X53580042Y-12129958D01*
D15*
X72500000Y-49900000D02*
X72500000Y-45869700D01*
X72103600Y-38372800D02*
X72103600Y-45473300D01*
X72103600Y-45473300D02*
X72500000Y-45869700D01*
X70000000Y-39137500D02*
X70000000Y-38788200D01*
X70000000Y-38788200D02*
X70635000Y-38153200D01*
X70635000Y-38153200D02*
X71297300Y-38153200D01*
X71297300Y-38153200D02*
X71598300Y-38454200D01*
X71598300Y-38454200D02*
X71598300Y-38582000D01*
X71598300Y-38582000D02*
X71603300Y-38587000D01*
X71603300Y-38587000D02*
X71603300Y-44226400D01*
X71603300Y-44226400D02*
X69960000Y-45869700D01*
X69960000Y-49900000D02*
X69960000Y-45869700D01*
X90500000Y-21080000D02*
X89369700Y-21080000D01*
X83137500Y-21950000D02*
X88499700Y-21950000D01*
X88499700Y-21950000D02*
X89369700Y-21080000D01*
X55000000Y-29087500D02*
X55000000Y-27500000D01*
X53930000Y-27500000D02*
X53480000Y-27950000D01*
X55000000Y-27500000D02*
X53930000Y-27500000D01*
X50637500Y-27950000D02*
X53480000Y-27950000D01*
X46647500Y-28412500D02*
X47110000Y-27950000D01*
X44500000Y-28412500D02*
X46647500Y-28412500D01*
X48362500Y-27950000D02*
X47110000Y-27950000D01*
X54962500Y-14450000D02*
X55000000Y-14412500D01*
X50637500Y-14450000D02*
X54962500Y-14450000D01*
X55000000Y-16087500D02*
X54962500Y-16050000D01*
X54962500Y-16050000D02*
X54962500Y-14450000D01*
X48362500Y-14450000D02*
X47487500Y-15325000D01*
X47487500Y-15325000D02*
X45000000Y-15325000D01*
X66050000Y-26406100D02*
X71129200Y-31485300D01*
X71129200Y-31485300D02*
X71239400Y-31485300D01*
X66050000Y-22137500D02*
X66050000Y-26406100D01*
X66050000Y-26406100D02*
X61384800Y-31071300D01*
X61384800Y-31071300D02*
X56162700Y-31071300D01*
X51865800Y-22912500D02*
X55000000Y-22912500D01*
X34514000Y-19972400D02*
X36026400Y-18460000D01*
X50637500Y-26050000D02*
X51865800Y-24821700D01*
X51865800Y-24821700D02*
X51865800Y-22912500D01*
X34514000Y-19972400D02*
X33011700Y-18470100D01*
X33011700Y-18470100D02*
X31064100Y-18470100D01*
X31064100Y-18470100D02*
X28156500Y-21377700D01*
X28156500Y-21377700D02*
X28156500Y-21902000D01*
X28156500Y-21902000D02*
X25883500Y-24175000D01*
X25883500Y-24175000D02*
X24500000Y-24175000D01*
X43923350Y-20443350D02*
X41940000Y-18460000D01*
X49396650Y-20443350D02*
X43923350Y-20443350D01*
X36026400Y-18460000D02*
X41940000Y-18460000D01*
X49396650Y-20443350D02*
X51865800Y-22912500D01*
X35425800Y-20884200D02*
X35425800Y-23745800D01*
X35425800Y-20884200D02*
X34514000Y-19972400D01*
X35855000Y-24175000D02*
X36975000Y-24175000D01*
X35425800Y-23745800D02*
X35855000Y-24175000D01*
X61664200Y-34816400D02*
X48607100Y-34816400D01*
X48607100Y-34816400D02*
X47437600Y-35985900D01*
X47437600Y-35985900D02*
X47437600Y-37573700D01*
X47437600Y-37573700D02*
X47744900Y-37881000D01*
X47744900Y-37881000D02*
X48931500Y-37881000D01*
X48931500Y-37881000D02*
X49950000Y-36862500D01*
X54000000Y-39492300D02*
X54000000Y-39137500D01*
X54002400Y-40107600D02*
X49606200Y-40107600D01*
X49606200Y-40107600D02*
X49000000Y-39501400D01*
X49000000Y-39501400D02*
X49000000Y-39137500D01*
X59631300Y-40147700D02*
X59000000Y-39516400D01*
X59000000Y-39516400D02*
X59000000Y-39137500D01*
X69833950Y-37978550D02*
X70950000Y-36862500D01*
X64021450Y-37978550D02*
X69833950Y-37978550D01*
X60592300Y-40147700D02*
X59631300Y-40147700D01*
X62761450Y-37978550D02*
X60592300Y-40147700D01*
X64000000Y-38000000D02*
X64021450Y-37978550D01*
X64000000Y-39137500D02*
X64000000Y-38000000D01*
X64021450Y-37978550D02*
X62761450Y-37978550D01*
X54615300Y-40107600D02*
X54617800Y-40110100D01*
X59000000Y-38767300D02*
X59000000Y-39137500D01*
X58420200Y-38187500D02*
X59000000Y-38767300D01*
X57542500Y-38187500D02*
X58420200Y-38187500D01*
X55619900Y-40110100D02*
X57542500Y-38187500D01*
X54617800Y-40110100D02*
X55619900Y-40110100D01*
X54000000Y-40105200D02*
X54002400Y-40107600D01*
X54000000Y-39137500D02*
X54000000Y-40105200D01*
X54002400Y-40107600D02*
X54615300Y-40107600D01*
X54391400Y-36862500D02*
X53979900Y-36451000D01*
X54950000Y-36862500D02*
X54391400Y-36862500D01*
X64950000Y-36862500D02*
X62326800Y-34239300D01*
X62326800Y-34239300D02*
X47017000Y-34239300D01*
X36975000Y-25445000D02*
X37681300Y-26151300D01*
X48590500Y-35547500D02*
X48724700Y-35413300D01*
X48724700Y-35413300D02*
X58500800Y-35413300D01*
X58500800Y-35413300D02*
X59950000Y-36862500D01*
X68764000Y-19830000D02*
X67982500Y-19830000D01*
X67982500Y-19830000D02*
X67950000Y-19862500D01*
X66480300Y-33759800D02*
X66454500Y-33734000D01*
X66454500Y-33734000D02*
X46773300Y-33734000D01*
X46773300Y-33734000D02*
X44775900Y-35731400D01*
X67000000Y-21390000D02*
X67000000Y-22137500D01*
X67407200Y-20982800D02*
X67000000Y-21390000D01*
X68537200Y-20982800D02*
X67407200Y-20982800D01*
X69816500Y-19703500D02*
X68537200Y-20982800D01*
X69816500Y-19421100D02*
X69816500Y-19703500D01*
X80862500Y-21000000D02*
X81261800Y-21000000D01*
X81261800Y-21000000D02*
X81835300Y-21573500D01*
X81835300Y-21573500D02*
X81835300Y-22351400D01*
X81835300Y-22351400D02*
X72179600Y-32007100D01*
X72179600Y-32007100D02*
X44988100Y-32007100D01*
X44988100Y-32007100D02*
X44869300Y-31888300D01*
X24500000Y-25445000D02*
X24159400Y-25445000D01*
X24159400Y-25445000D02*
X23191700Y-24477300D01*
X23191700Y-24477300D02*
X23191700Y-23874000D01*
X23191700Y-23874000D02*
X23511600Y-23554100D01*
X23511600Y-23554100D02*
X25767500Y-23554100D01*
X25767500Y-23554100D02*
X27181400Y-22140200D01*
X29574600Y-18894100D02*
X29574600Y-17421000D01*
X29574600Y-17421000D02*
X39040200Y-7955400D01*
X39040200Y-7955400D02*
X49068100Y-7955400D01*
X49068100Y-7955400D02*
X49392000Y-8279300D01*
X49392000Y-8279300D02*
X49392000Y-11520500D01*
X49392000Y-11520500D02*
X48362500Y-12550000D01*
X27181400Y-22140200D02*
X27181400Y-21287300D01*
X27181400Y-21287300D02*
X29574600Y-18894100D01*
X36137500Y-33730500D02*
X36137500Y-34450000D01*
X16570700Y-24680600D02*
X18346300Y-22905000D01*
X18346300Y-22905000D02*
X19500000Y-22905000D01*
X19858200Y-22905000D02*
X19500000Y-22905000D01*
X22341800Y-25388600D02*
X19858200Y-22905000D01*
X22341800Y-27981800D02*
X22341800Y-25388600D01*
X26910000Y-32550000D02*
X22341800Y-27981800D01*
X27862500Y-32550000D02*
X26910000Y-32550000D01*
X13088800Y-24450000D02*
X13319400Y-24680600D01*
X12137500Y-24450000D02*
X13088800Y-24450000D01*
X13319400Y-24680600D02*
X16570700Y-24680600D01*
X19500000Y-21635000D02*
X16773200Y-21635000D01*
X16773200Y-21635000D02*
X14908200Y-23500000D01*
X14908200Y-23500000D02*
X12137500Y-23500000D01*
X16900000Y-19450000D02*
X17815000Y-20365000D01*
X12137500Y-19450000D02*
X16900000Y-19450000D01*
X19500000Y-20365000D02*
X17815000Y-20365000D01*
X11121100Y-19164900D02*
X11786000Y-18500000D01*
X11121100Y-24764400D02*
X11121100Y-19164900D01*
X11417600Y-25060900D02*
X11121100Y-24764400D01*
X16944900Y-25060900D02*
X11417600Y-25060900D01*
X17224300Y-24781500D02*
X16944900Y-25060900D01*
X20500100Y-24781500D02*
X17224300Y-24781500D01*
X21121700Y-25403100D02*
X20500100Y-24781500D01*
X21121700Y-27611700D02*
X21121700Y-25403100D01*
X27010000Y-33500000D02*
X21121700Y-27611700D01*
X11786000Y-18500000D02*
X12137500Y-18500000D01*
X27862500Y-33500000D02*
X27010000Y-33500000D01*
X18105000Y-19095000D02*
X17510000Y-18500000D01*
X19500000Y-19095000D02*
X18105000Y-19095000D01*
X17510000Y-18500000D02*
X12137500Y-18500000D01*
X50637500Y-12550000D02*
X50244900Y-12550000D01*
X50244900Y-12550000D02*
X49500000Y-13294900D01*
X48665600Y-25315200D02*
X48362500Y-25618300D01*
X48362500Y-25618300D02*
X48362500Y-26050000D01*
X48814900Y-16135100D02*
X49500000Y-15450000D01*
X48814900Y-19065100D02*
X48814900Y-16135100D01*
X49500000Y-13294900D02*
X49500000Y-15450000D01*
X9862500Y-22550000D02*
X9862500Y-23247600D01*
X9862500Y-23247600D02*
X9836700Y-23273400D01*
X9446900Y-18278500D02*
X9862500Y-17862900D01*
X9862500Y-17862900D02*
X9862500Y-17550000D01*
X31320000Y-34450000D02*
X32270000Y-33500000D01*
X30137500Y-34450000D02*
X31320000Y-34450000D01*
X32270000Y-33500000D02*
X33862500Y-33500000D01*
X73855000Y-22137500D02*
X73519500Y-22473000D01*
X74550000Y-22137500D02*
X73855000Y-22137500D01*
X32025000Y-24175000D02*
X27987300Y-24175000D01*
X27987300Y-24175000D02*
X26096100Y-26066200D01*
X26096100Y-26066200D02*
X23450500Y-26066200D01*
X23450500Y-26066200D02*
X22811300Y-25427000D01*
X22811300Y-25427000D02*
X22811300Y-24572900D01*
X22811300Y-24572900D02*
X20537700Y-22299300D01*
X20537700Y-22299300D02*
X17638600Y-22299300D01*
X17638600Y-22299300D02*
X15762600Y-24175300D01*
X79885000Y-20050000D02*
X79697500Y-19862500D01*
X80862500Y-20050000D02*
X79885000Y-20050000D01*
X79697500Y-19862500D02*
X76450000Y-19862500D01*
X33413000Y-16555000D02*
X32025000Y-16555000D01*
X42600000Y-17960000D02*
X40060000Y-17960000D01*
X39256000Y-17156000D02*
X34014000Y-17156000D01*
X44440000Y-19800000D02*
X42600000Y-17960000D01*
X50961000Y-19800000D02*
X44440000Y-19800000D01*
X53680500Y-17080500D02*
X50961000Y-19800000D01*
X73300500Y-17080500D02*
X53680500Y-17080500D01*
X34014000Y-17156000D02*
X33413000Y-16555000D01*
X40060000Y-17960000D02*
X39256000Y-17156000D01*
X75500000Y-19280000D02*
X73300500Y-17080500D01*
X75500000Y-22137500D02*
X75500000Y-19280000D01*
D16*
X78790000Y-4965123D02*
X78786565Y-5000000D01*
X78800273Y-5139184D01*
X78840872Y-5273020D01*
X78906800Y-5396363D01*
X78995525Y-5504475D01*
X79103637Y-5593200D01*
X79226980Y-5659128D01*
X79360816Y-5699727D01*
X79500000Y-5713435D01*
X79534877Y-5710000D01*
X93790001Y-5710000D01*
X93790000Y-42705908D01*
X92205909Y-44290000D01*
X74534877Y-44290000D01*
X74500000Y-44286565D01*
X74465123Y-44290000D01*
X74360816Y-44300273D01*
X74226980Y-44340872D01*
X74103637Y-44406800D01*
X73995525Y-44495525D01*
X73906800Y-44603637D01*
X73840872Y-44726980D01*
X73800273Y-44860816D01*
X73786565Y-45000000D01*
X73790000Y-45034877D01*
X73790000Y-45689636D01*
X73704494Y-45619463D01*
X73594180Y-45560498D01*
X73474482Y-45524188D01*
X73350000Y-45511928D01*
X73142174Y-45511928D01*
X73114087Y-45459380D01*
X73022238Y-45347462D01*
X72994187Y-45324441D01*
X72838600Y-45168854D01*
X72838600Y-38820754D01*
X72865722Y-38780163D01*
X72930551Y-38623653D01*
X72963600Y-38457503D01*
X72963600Y-38288097D01*
X72930551Y-38121947D01*
X72865722Y-37965437D01*
X72771605Y-37824582D01*
X72651818Y-37704795D01*
X72510963Y-37610678D01*
X72354453Y-37545849D01*
X72188303Y-37512800D01*
X72018897Y-37512800D01*
X71868703Y-37542675D01*
X71872929Y-37528745D01*
X71888072Y-37375000D01*
X71888072Y-36634000D01*
X87763899Y-36634000D01*
X88760901Y-37631003D01*
X88784699Y-37660001D01*
X88813697Y-37683799D01*
X88900423Y-37754974D01*
X89031344Y-37824953D01*
X89032453Y-37825546D01*
X89175714Y-37869003D01*
X89217204Y-37873089D01*
X89346525Y-38066632D01*
X89553368Y-38273475D01*
X89796589Y-38435990D01*
X90066842Y-38547932D01*
X90353740Y-38605000D01*
X90646260Y-38605000D01*
X90933158Y-38547932D01*
X91203411Y-38435990D01*
X91446632Y-38273475D01*
X91653475Y-38066632D01*
X91815990Y-37823411D01*
X91927932Y-37553158D01*
X91985000Y-37266260D01*
X91985000Y-36973740D01*
X91927932Y-36686842D01*
X91815990Y-36416589D01*
X91653475Y-36173368D01*
X91446632Y-35966525D01*
X91272240Y-35850000D01*
X91446632Y-35733475D01*
X91653475Y-35526632D01*
X91815990Y-35283411D01*
X91927932Y-35013158D01*
X91985000Y-34726260D01*
X91985000Y-34433740D01*
X91927932Y-34146842D01*
X91815990Y-33876589D01*
X91653475Y-33633368D01*
X91446632Y-33426525D01*
X91264466Y-33304805D01*
X91381355Y-33235178D01*
X91597588Y-33040269D01*
X91771641Y-32806920D01*
X91896825Y-32544099D01*
X91941476Y-32396890D01*
X91820155Y-32167000D01*
X90627000Y-32167000D01*
X90627000Y-32187000D01*
X90373000Y-32187000D01*
X90373000Y-32167000D01*
X89179845Y-32167000D01*
X89058524Y-32396890D01*
X89103175Y-32544099D01*
X89228359Y-32806920D01*
X89402412Y-33040269D01*
X89618645Y-33235178D01*
X89735534Y-33304805D01*
X89553368Y-33426525D01*
X89346525Y-33633368D01*
X89184010Y-33876589D01*
X89072068Y-34146842D01*
X89015000Y-34433740D01*
X89015000Y-34726260D01*
X89072068Y-35013158D01*
X89184010Y-35283411D01*
X89346525Y-35526632D01*
X89553368Y-35733475D01*
X89727760Y-35850000D01*
X89553368Y-35966525D01*
X89399697Y-36120196D01*
X88642504Y-35363003D01*
X88618701Y-35333999D01*
X88502976Y-35239026D01*
X88370947Y-35168454D01*
X88227686Y-35124997D01*
X88116033Y-35114000D01*
X88116022Y-35114000D01*
X88078700Y-35110324D01*
X88041378Y-35114000D01*
X70075822Y-35114000D01*
X70038499Y-35110324D01*
X70001176Y-35114000D01*
X70001167Y-35114000D01*
X69889514Y-35124997D01*
X69760264Y-35164204D01*
X69746253Y-35168454D01*
X69614223Y-35239026D01*
X69539946Y-35299984D01*
X69498499Y-35333999D01*
X69474701Y-35362997D01*
X69268976Y-35568722D01*
X69200000Y-35561928D01*
X68900000Y-35561928D01*
X68746255Y-35577071D01*
X68598418Y-35621916D01*
X68462171Y-35694742D01*
X68342749Y-35792749D01*
X68244742Y-35912171D01*
X68171916Y-36048418D01*
X68127071Y-36196255D01*
X68111928Y-36350000D01*
X68111928Y-36355700D01*
X66756039Y-36355700D01*
X66752863Y-36353578D01*
X66596353Y-36288749D01*
X66430203Y-36255700D01*
X66260797Y-36255700D01*
X66094647Y-36288749D01*
X65938137Y-36353578D01*
X65888072Y-36387031D01*
X65888072Y-36350000D01*
X65872929Y-36196255D01*
X65828084Y-36048418D01*
X65755258Y-35912171D01*
X65657251Y-35792749D01*
X65537829Y-35694742D01*
X65401582Y-35621916D01*
X65253745Y-35577071D01*
X65100000Y-35561928D01*
X64800000Y-35561928D01*
X64698839Y-35571892D01*
X63595946Y-34469000D01*
X65993734Y-34469000D01*
X66072937Y-34521922D01*
X66229447Y-34586751D01*
X66395597Y-34619800D01*
X66565003Y-34619800D01*
X66731153Y-34586751D01*
X66887663Y-34521922D01*
X67028518Y-34427805D01*
X67148305Y-34308018D01*
X67242422Y-34167163D01*
X67307251Y-34010653D01*
X67313686Y-33978300D01*
X76252095Y-33978300D01*
X76288200Y-33981856D01*
X76324305Y-33978300D01*
X76432285Y-33967665D01*
X76570833Y-33925637D01*
X76698520Y-33857387D01*
X76810438Y-33765538D01*
X76833458Y-33737488D01*
X78030072Y-32540875D01*
X78077953Y-32531351D01*
X78234463Y-32466522D01*
X78375318Y-32372405D01*
X78495105Y-32252618D01*
X78589222Y-32111763D01*
X78654051Y-31955253D01*
X78687100Y-31789103D01*
X78687100Y-31619697D01*
X78654051Y-31453547D01*
X78589222Y-31297037D01*
X78561780Y-31255968D01*
X78582500Y-31151803D01*
X78582500Y-30982397D01*
X78549451Y-30816247D01*
X78484622Y-30659737D01*
X78390505Y-30518882D01*
X78270718Y-30399095D01*
X78197243Y-30350000D01*
X89011928Y-30350000D01*
X89024188Y-30474482D01*
X89060498Y-30594180D01*
X89119463Y-30704494D01*
X89198815Y-30801185D01*
X89295506Y-30880537D01*
X89405820Y-30939502D01*
X89486466Y-30963966D01*
X89402412Y-31039731D01*
X89228359Y-31273080D01*
X89103175Y-31535901D01*
X89058524Y-31683110D01*
X89179845Y-31913000D01*
X90373000Y-31913000D01*
X90373000Y-29627000D01*
X90627000Y-29627000D01*
X90627000Y-31913000D01*
X91820155Y-31913000D01*
X91941476Y-31683110D01*
X91896825Y-31535901D01*
X91771641Y-31273080D01*
X91597588Y-31039731D01*
X91513534Y-30963966D01*
X91594180Y-30939502D01*
X91704494Y-30880537D01*
X91801185Y-30801185D01*
X91880537Y-30704494D01*
X91939502Y-30594180D01*
X91975812Y-30474482D01*
X91988072Y-30350000D01*
X91985000Y-29785750D01*
X91826250Y-29627000D01*
X90627000Y-29627000D01*
X90373000Y-29627000D01*
X89173750Y-29627000D01*
X89015000Y-29785750D01*
X89011928Y-30350000D01*
X78197243Y-30350000D01*
X78129863Y-30304978D01*
X77973353Y-30240149D01*
X77807203Y-30207100D01*
X77637797Y-30207100D01*
X77471647Y-30240149D01*
X77315137Y-30304978D01*
X77174282Y-30399095D01*
X77054495Y-30518882D01*
X76960378Y-30659737D01*
X76895549Y-30816247D01*
X76886025Y-30864128D01*
X75717354Y-32032800D01*
X75273346Y-32032800D01*
X77645272Y-29660875D01*
X77693153Y-29651351D01*
X77849663Y-29586522D01*
X77990518Y-29492405D01*
X78110305Y-29372618D01*
X78204422Y-29231763D01*
X78269251Y-29075253D01*
X78302300Y-28909103D01*
X78302300Y-28739697D01*
X78284459Y-28650000D01*
X89011928Y-28650000D01*
X89015000Y-29214250D01*
X89173750Y-29373000D01*
X90373000Y-29373000D01*
X90373000Y-28173750D01*
X90627000Y-28173750D01*
X90627000Y-29373000D01*
X91826250Y-29373000D01*
X91985000Y-29214250D01*
X91988072Y-28650000D01*
X91975812Y-28525518D01*
X91939502Y-28405820D01*
X91880537Y-28295506D01*
X91801185Y-28198815D01*
X91704494Y-28119463D01*
X91594180Y-28060498D01*
X91474482Y-28024188D01*
X91350000Y-28011928D01*
X90785750Y-28015000D01*
X90627000Y-28173750D01*
X90373000Y-28173750D01*
X90214250Y-28015000D01*
X89650000Y-28011928D01*
X89525518Y-28024188D01*
X89405820Y-28060498D01*
X89295506Y-28119463D01*
X89198815Y-28198815D01*
X89119463Y-28295506D01*
X89060498Y-28405820D01*
X89024188Y-28525518D01*
X89011928Y-28650000D01*
X78284459Y-28650000D01*
X78269251Y-28573547D01*
X78204422Y-28417037D01*
X78110305Y-28276182D01*
X77990518Y-28156395D01*
X77849663Y-28062278D01*
X77693153Y-27997449D01*
X77527003Y-27964400D01*
X77357597Y-27964400D01*
X77237947Y-27988200D01*
X82329493Y-22896654D01*
X82357538Y-22873638D01*
X82380671Y-22845451D01*
X82471255Y-22872929D01*
X82625000Y-22888072D01*
X83650000Y-22888072D01*
X83803745Y-22872929D01*
X83951582Y-22828084D01*
X84087829Y-22755258D01*
X84173439Y-22685000D01*
X88463595Y-22685000D01*
X88499700Y-22688556D01*
X88535805Y-22685000D01*
X88643785Y-22674365D01*
X88782333Y-22632337D01*
X88910020Y-22564087D01*
X89021938Y-22472238D01*
X89044958Y-22444188D01*
X89404520Y-22084627D01*
X89553368Y-22233475D01*
X89796589Y-22395990D01*
X90066842Y-22507932D01*
X90353740Y-22565000D01*
X90646260Y-22565000D01*
X90933158Y-22507932D01*
X91203411Y-22395990D01*
X91446632Y-22233475D01*
X91653475Y-22026632D01*
X91815990Y-21783411D01*
X91927932Y-21513158D01*
X91985000Y-21226260D01*
X91985000Y-20933740D01*
X91927932Y-20646842D01*
X91815990Y-20376589D01*
X91653475Y-20133368D01*
X91446632Y-19926525D01*
X91272240Y-19810000D01*
X91446632Y-19693475D01*
X91653475Y-19486632D01*
X91815990Y-19243411D01*
X91927932Y-18973158D01*
X91985000Y-18686260D01*
X91985000Y-18393740D01*
X91927932Y-18106842D01*
X91815990Y-17836589D01*
X91653475Y-17593368D01*
X91521620Y-17461513D01*
X91594180Y-17439502D01*
X91704494Y-17380537D01*
X91801185Y-17301185D01*
X91880537Y-17204494D01*
X91939502Y-17094180D01*
X91975812Y-16974482D01*
X91988072Y-16850000D01*
X91985000Y-16285750D01*
X91826250Y-16127000D01*
X90627000Y-16127000D01*
X90627000Y-16147000D01*
X90373000Y-16147000D01*
X90373000Y-16127000D01*
X89173750Y-16127000D01*
X89015000Y-16285750D01*
X89011928Y-16850000D01*
X89024188Y-16974482D01*
X89060498Y-17094180D01*
X89119463Y-17204494D01*
X89198815Y-17301185D01*
X89295506Y-17380537D01*
X89405820Y-17439502D01*
X89478380Y-17461513D01*
X89346525Y-17593368D01*
X89184010Y-17836589D01*
X89072068Y-18106842D01*
X89015000Y-18393740D01*
X89015000Y-18686260D01*
X89072068Y-18973158D01*
X89184010Y-19243411D01*
X89346525Y-19486632D01*
X89553368Y-19693475D01*
X89727760Y-19810000D01*
X89553368Y-19926525D01*
X89346525Y-20133368D01*
X89190994Y-20366137D01*
X89087067Y-20397663D01*
X88959380Y-20465913D01*
X88847462Y-20557762D01*
X88824446Y-20585807D01*
X88195254Y-21215000D01*
X84173439Y-21215000D01*
X84087829Y-21144742D01*
X83951582Y-21071916D01*
X83803745Y-21027071D01*
X83650000Y-21011928D01*
X82625000Y-21011928D01*
X82471255Y-21027071D01*
X82364308Y-21059512D01*
X82357537Y-21051262D01*
X82329497Y-21028250D01*
X82163072Y-20861825D01*
X82163072Y-20850000D01*
X82161516Y-20834204D01*
X82187171Y-20855258D01*
X82323418Y-20928084D01*
X82471255Y-20972929D01*
X82625000Y-20988072D01*
X83650000Y-20988072D01*
X83803745Y-20972929D01*
X83951582Y-20928084D01*
X84087829Y-20855258D01*
X84207251Y-20757251D01*
X84305258Y-20637829D01*
X84378084Y-20501582D01*
X84422929Y-20353745D01*
X84438072Y-20200000D01*
X84438072Y-19900000D01*
X84422929Y-19746255D01*
X84378084Y-19598418D01*
X84305258Y-19462171D01*
X84207251Y-19342749D01*
X84087829Y-19244742D01*
X83951582Y-19171916D01*
X83803745Y-19127071D01*
X83650000Y-19111928D01*
X83274230Y-19111928D01*
X79312302Y-15150000D01*
X89011928Y-15150000D01*
X89015000Y-15714250D01*
X89173750Y-15873000D01*
X90373000Y-15873000D01*
X90373000Y-14673750D01*
X90627000Y-14673750D01*
X90627000Y-15873000D01*
X91826250Y-15873000D01*
X91985000Y-15714250D01*
X91988072Y-15150000D01*
X91975812Y-15025518D01*
X91939502Y-14905820D01*
X91880537Y-14795506D01*
X91801185Y-14698815D01*
X91704494Y-14619463D01*
X91594180Y-14560498D01*
X91474482Y-14524188D01*
X91350000Y-14511928D01*
X90785750Y-14515000D01*
X90627000Y-14673750D01*
X90373000Y-14673750D01*
X90214250Y-14515000D01*
X89650000Y-14511928D01*
X89525518Y-14524188D01*
X89405820Y-14560498D01*
X89295506Y-14619463D01*
X89198815Y-14698815D01*
X89119463Y-14795506D01*
X89060498Y-14905820D01*
X89024188Y-15025518D01*
X89011928Y-15150000D01*
X79312302Y-15150000D01*
X76238804Y-12076503D01*
X76215001Y-12047499D01*
X76099276Y-11952526D01*
X75967247Y-11881954D01*
X75823986Y-11838497D01*
X75712333Y-11827500D01*
X75712322Y-11827500D01*
X75675000Y-11823824D01*
X75637678Y-11827500D01*
X56185030Y-11827500D01*
X56077962Y-11697038D01*
X55943387Y-11586595D01*
X55789851Y-11504528D01*
X55623255Y-11453992D01*
X55450001Y-11436928D01*
X54549999Y-11436928D01*
X54376745Y-11453992D01*
X54210149Y-11504528D01*
X54092544Y-11567389D01*
X54091068Y-11566178D01*
X54053419Y-11528523D01*
X54053391Y-11528488D01*
X54023537Y-11498635D01*
X54000652Y-11475746D01*
X54000625Y-11475724D01*
X51588072Y-9063251D01*
X51588072Y-8989721D01*
X74865000Y-8989721D01*
X74865000Y-9410279D01*
X74947047Y-9822756D01*
X75107988Y-10211302D01*
X75341637Y-10560983D01*
X75639017Y-10858363D01*
X75988698Y-11092012D01*
X76377244Y-11252953D01*
X76789721Y-11335000D01*
X77210279Y-11335000D01*
X77622756Y-11252953D01*
X78011302Y-11092012D01*
X78360983Y-10858363D01*
X78658363Y-10560983D01*
X78892012Y-10211302D01*
X79052953Y-9822756D01*
X79135000Y-9410279D01*
X79135000Y-8989721D01*
X79052953Y-8577244D01*
X78892012Y-8188698D01*
X78658363Y-7839017D01*
X78360983Y-7541637D01*
X78011302Y-7307988D01*
X77622756Y-7147047D01*
X77210279Y-7065000D01*
X76789721Y-7065000D01*
X76377244Y-7147047D01*
X75988698Y-7307988D01*
X75639017Y-7541637D01*
X75341637Y-7839017D01*
X75107988Y-8188698D01*
X74947047Y-8577244D01*
X74865000Y-8989721D01*
X51588072Y-8989721D01*
X51588072Y-8525000D01*
X51571008Y-8351746D01*
X51520472Y-8185150D01*
X51438405Y-8031614D01*
X51327962Y-7897038D01*
X51193386Y-7786595D01*
X51039850Y-7704528D01*
X50873254Y-7653992D01*
X50700000Y-7636928D01*
X50426030Y-7636928D01*
X49790004Y-7000903D01*
X49766201Y-6971899D01*
X49650476Y-6876926D01*
X49518447Y-6806354D01*
X49375186Y-6762897D01*
X49263533Y-6751900D01*
X49263522Y-6751900D01*
X49226200Y-6748224D01*
X49188878Y-6751900D01*
X18588222Y-6751900D01*
X18550899Y-6748224D01*
X18513576Y-6751900D01*
X18513567Y-6751900D01*
X18401914Y-6762897D01*
X18258653Y-6806354D01*
X18126624Y-6876926D01*
X18010899Y-6971899D01*
X17987101Y-7000897D01*
X7870303Y-17117696D01*
X7841299Y-17141499D01*
X7798377Y-17193800D01*
X7746326Y-17257224D01*
X7698920Y-17345914D01*
X7675754Y-17389254D01*
X7632297Y-17532515D01*
X7621300Y-17644168D01*
X7621300Y-17644178D01*
X7617624Y-17681500D01*
X7621300Y-17718822D01*
X7621301Y-32383968D01*
X7617624Y-32421300D01*
X7632298Y-32570285D01*
X7675754Y-32713546D01*
X7746326Y-32845576D01*
X7798983Y-32909738D01*
X7841300Y-32961301D01*
X7870298Y-32985099D01*
X11558790Y-36673592D01*
X11515000Y-36893740D01*
X11515000Y-37186260D01*
X11572068Y-37473158D01*
X11684010Y-37743411D01*
X11846525Y-37986632D01*
X12053368Y-38193475D01*
X12227760Y-38310000D01*
X12053368Y-38426525D01*
X11846525Y-38633368D01*
X11684010Y-38876589D01*
X11572068Y-39146842D01*
X11515000Y-39433740D01*
X11515000Y-39726260D01*
X11572068Y-40013158D01*
X11684010Y-40283411D01*
X11846525Y-40526632D01*
X12053368Y-40733475D01*
X12296589Y-40895990D01*
X12566842Y-41007932D01*
X12853740Y-41065000D01*
X13146260Y-41065000D01*
X13433158Y-41007932D01*
X13703411Y-40895990D01*
X13946632Y-40733475D01*
X14153475Y-40526632D01*
X14315990Y-40283411D01*
X14427932Y-40013158D01*
X14485000Y-39726260D01*
X14485000Y-39433740D01*
X14427932Y-39146842D01*
X14315990Y-38876589D01*
X14153475Y-38633368D01*
X13946632Y-38426525D01*
X13772240Y-38310000D01*
X13946632Y-38193475D01*
X14153475Y-37986632D01*
X14315990Y-37743411D01*
X14427932Y-37473158D01*
X14485000Y-37186260D01*
X14485000Y-37059802D01*
X15540001Y-38114803D01*
X15540000Y-38882677D01*
X15536324Y-38920000D01*
X15540000Y-38957322D01*
X15540000Y-38957332D01*
X15550997Y-39068985D01*
X15582733Y-39173605D01*
X15594454Y-39212246D01*
X15665026Y-39344276D01*
X15704871Y-39392826D01*
X15759999Y-39460001D01*
X15789003Y-39483804D01*
X20595198Y-44290000D01*
X710000Y-44290000D01*
X710000Y-710000D01*
X78790001Y-710000D01*
X78790000Y-4965123D01*
G04 #@! TA.AperFunction,Conductor*
D17*
G36*
X78790000Y-4965123D02*
G01*
X78786565Y-5000000D01*
X78800273Y-5139184D01*
X78840872Y-5273020D01*
X78906800Y-5396363D01*
X78995525Y-5504475D01*
X79103637Y-5593200D01*
X79226980Y-5659128D01*
X79360816Y-5699727D01*
X79500000Y-5713435D01*
X79534877Y-5710000D01*
X93790001Y-5710000D01*
X93790000Y-42705908D01*
X92205909Y-44290000D01*
X74534877Y-44290000D01*
X74500000Y-44286565D01*
X74465123Y-44290000D01*
X74360816Y-44300273D01*
X74226980Y-44340872D01*
X74103637Y-44406800D01*
X73995525Y-44495525D01*
X73906800Y-44603637D01*
X73840872Y-44726980D01*
X73800273Y-44860816D01*
X73786565Y-45000000D01*
X73790000Y-45034877D01*
X73790000Y-45689636D01*
X73704494Y-45619463D01*
X73594180Y-45560498D01*
X73474482Y-45524188D01*
X73350000Y-45511928D01*
X73142174Y-45511928D01*
X73114087Y-45459380D01*
X73022238Y-45347462D01*
X72994187Y-45324441D01*
X72838600Y-45168854D01*
X72838600Y-38820754D01*
X72865722Y-38780163D01*
X72930551Y-38623653D01*
X72963600Y-38457503D01*
X72963600Y-38288097D01*
X72930551Y-38121947D01*
X72865722Y-37965437D01*
X72771605Y-37824582D01*
X72651818Y-37704795D01*
X72510963Y-37610678D01*
X72354453Y-37545849D01*
X72188303Y-37512800D01*
X72018897Y-37512800D01*
X71868703Y-37542675D01*
X71872929Y-37528745D01*
X71888072Y-37375000D01*
X71888072Y-36634000D01*
X87763899Y-36634000D01*
X88760901Y-37631003D01*
X88784699Y-37660001D01*
X88813697Y-37683799D01*
X88900423Y-37754974D01*
X89031344Y-37824953D01*
X89032453Y-37825546D01*
X89175714Y-37869003D01*
X89217204Y-37873089D01*
X89346525Y-38066632D01*
X89553368Y-38273475D01*
X89796589Y-38435990D01*
X90066842Y-38547932D01*
X90353740Y-38605000D01*
X90646260Y-38605000D01*
X90933158Y-38547932D01*
X91203411Y-38435990D01*
X91446632Y-38273475D01*
X91653475Y-38066632D01*
X91815990Y-37823411D01*
X91927932Y-37553158D01*
X91985000Y-37266260D01*
X91985000Y-36973740D01*
X91927932Y-36686842D01*
X91815990Y-36416589D01*
X91653475Y-36173368D01*
X91446632Y-35966525D01*
X91272240Y-35850000D01*
X91446632Y-35733475D01*
X91653475Y-35526632D01*
X91815990Y-35283411D01*
X91927932Y-35013158D01*
X91985000Y-34726260D01*
X91985000Y-34433740D01*
X91927932Y-34146842D01*
X91815990Y-33876589D01*
X91653475Y-33633368D01*
X91446632Y-33426525D01*
X91264466Y-33304805D01*
X91381355Y-33235178D01*
X91597588Y-33040269D01*
X91771641Y-32806920D01*
X91896825Y-32544099D01*
X91941476Y-32396890D01*
X91820155Y-32167000D01*
X90627000Y-32167000D01*
X90627000Y-32187000D01*
X90373000Y-32187000D01*
X90373000Y-32167000D01*
X89179845Y-32167000D01*
X89058524Y-32396890D01*
X89103175Y-32544099D01*
X89228359Y-32806920D01*
X89402412Y-33040269D01*
X89618645Y-33235178D01*
X89735534Y-33304805D01*
X89553368Y-33426525D01*
X89346525Y-33633368D01*
X89184010Y-33876589D01*
X89072068Y-34146842D01*
X89015000Y-34433740D01*
X89015000Y-34726260D01*
X89072068Y-35013158D01*
X89184010Y-35283411D01*
X89346525Y-35526632D01*
X89553368Y-35733475D01*
X89727760Y-35850000D01*
X89553368Y-35966525D01*
X89399697Y-36120196D01*
X88642504Y-35363003D01*
X88618701Y-35333999D01*
X88502976Y-35239026D01*
X88370947Y-35168454D01*
X88227686Y-35124997D01*
X88116033Y-35114000D01*
X88116022Y-35114000D01*
X88078700Y-35110324D01*
X88041378Y-35114000D01*
X70075822Y-35114000D01*
X70038499Y-35110324D01*
X70001176Y-35114000D01*
X70001167Y-35114000D01*
X69889514Y-35124997D01*
X69760264Y-35164204D01*
X69746253Y-35168454D01*
X69614223Y-35239026D01*
X69539946Y-35299984D01*
X69498499Y-35333999D01*
X69474701Y-35362997D01*
X69268976Y-35568722D01*
X69200000Y-35561928D01*
X68900000Y-35561928D01*
X68746255Y-35577071D01*
X68598418Y-35621916D01*
X68462171Y-35694742D01*
X68342749Y-35792749D01*
X68244742Y-35912171D01*
X68171916Y-36048418D01*
X68127071Y-36196255D01*
X68111928Y-36350000D01*
X68111928Y-36355700D01*
X66756039Y-36355700D01*
X66752863Y-36353578D01*
X66596353Y-36288749D01*
X66430203Y-36255700D01*
X66260797Y-36255700D01*
X66094647Y-36288749D01*
X65938137Y-36353578D01*
X65888072Y-36387031D01*
X65888072Y-36350000D01*
X65872929Y-36196255D01*
X65828084Y-36048418D01*
X65755258Y-35912171D01*
X65657251Y-35792749D01*
X65537829Y-35694742D01*
X65401582Y-35621916D01*
X65253745Y-35577071D01*
X65100000Y-35561928D01*
X64800000Y-35561928D01*
X64698839Y-35571892D01*
X63595946Y-34469000D01*
X65993734Y-34469000D01*
X66072937Y-34521922D01*
X66229447Y-34586751D01*
X66395597Y-34619800D01*
X66565003Y-34619800D01*
X66731153Y-34586751D01*
X66887663Y-34521922D01*
X67028518Y-34427805D01*
X67148305Y-34308018D01*
X67242422Y-34167163D01*
X67307251Y-34010653D01*
X67313686Y-33978300D01*
X76252095Y-33978300D01*
X76288200Y-33981856D01*
X76324305Y-33978300D01*
X76432285Y-33967665D01*
X76570833Y-33925637D01*
X76698520Y-33857387D01*
X76810438Y-33765538D01*
X76833458Y-33737488D01*
X78030072Y-32540875D01*
X78077953Y-32531351D01*
X78234463Y-32466522D01*
X78375318Y-32372405D01*
X78495105Y-32252618D01*
X78589222Y-32111763D01*
X78654051Y-31955253D01*
X78687100Y-31789103D01*
X78687100Y-31619697D01*
X78654051Y-31453547D01*
X78589222Y-31297037D01*
X78561780Y-31255968D01*
X78582500Y-31151803D01*
X78582500Y-30982397D01*
X78549451Y-30816247D01*
X78484622Y-30659737D01*
X78390505Y-30518882D01*
X78270718Y-30399095D01*
X78197243Y-30350000D01*
X89011928Y-30350000D01*
X89024188Y-30474482D01*
X89060498Y-30594180D01*
X89119463Y-30704494D01*
X89198815Y-30801185D01*
X89295506Y-30880537D01*
X89405820Y-30939502D01*
X89486466Y-30963966D01*
X89402412Y-31039731D01*
X89228359Y-31273080D01*
X89103175Y-31535901D01*
X89058524Y-31683110D01*
X89179845Y-31913000D01*
X90373000Y-31913000D01*
X90373000Y-29627000D01*
X90627000Y-29627000D01*
X90627000Y-31913000D01*
X91820155Y-31913000D01*
X91941476Y-31683110D01*
X91896825Y-31535901D01*
X91771641Y-31273080D01*
X91597588Y-31039731D01*
X91513534Y-30963966D01*
X91594180Y-30939502D01*
X91704494Y-30880537D01*
X91801185Y-30801185D01*
X91880537Y-30704494D01*
X91939502Y-30594180D01*
X91975812Y-30474482D01*
X91988072Y-30350000D01*
X91985000Y-29785750D01*
X91826250Y-29627000D01*
X90627000Y-29627000D01*
X90373000Y-29627000D01*
X89173750Y-29627000D01*
X89015000Y-29785750D01*
X89011928Y-30350000D01*
X78197243Y-30350000D01*
X78129863Y-30304978D01*
X77973353Y-30240149D01*
X77807203Y-30207100D01*
X77637797Y-30207100D01*
X77471647Y-30240149D01*
X77315137Y-30304978D01*
X77174282Y-30399095D01*
X77054495Y-30518882D01*
X76960378Y-30659737D01*
X76895549Y-30816247D01*
X76886025Y-30864128D01*
X75717354Y-32032800D01*
X75273346Y-32032800D01*
X77645272Y-29660875D01*
X77693153Y-29651351D01*
X77849663Y-29586522D01*
X77990518Y-29492405D01*
X78110305Y-29372618D01*
X78204422Y-29231763D01*
X78269251Y-29075253D01*
X78302300Y-28909103D01*
X78302300Y-28739697D01*
X78284459Y-28650000D01*
X89011928Y-28650000D01*
X89015000Y-29214250D01*
X89173750Y-29373000D01*
X90373000Y-29373000D01*
X90373000Y-28173750D01*
X90627000Y-28173750D01*
X90627000Y-29373000D01*
X91826250Y-29373000D01*
X91985000Y-29214250D01*
X91988072Y-28650000D01*
X91975812Y-28525518D01*
X91939502Y-28405820D01*
X91880537Y-28295506D01*
X91801185Y-28198815D01*
X91704494Y-28119463D01*
X91594180Y-28060498D01*
X91474482Y-28024188D01*
X91350000Y-28011928D01*
X90785750Y-28015000D01*
X90627000Y-28173750D01*
X90373000Y-28173750D01*
X90214250Y-28015000D01*
X89650000Y-28011928D01*
X89525518Y-28024188D01*
X89405820Y-28060498D01*
X89295506Y-28119463D01*
X89198815Y-28198815D01*
X89119463Y-28295506D01*
X89060498Y-28405820D01*
X89024188Y-28525518D01*
X89011928Y-28650000D01*
X78284459Y-28650000D01*
X78269251Y-28573547D01*
X78204422Y-28417037D01*
X78110305Y-28276182D01*
X77990518Y-28156395D01*
X77849663Y-28062278D01*
X77693153Y-27997449D01*
X77527003Y-27964400D01*
X77357597Y-27964400D01*
X77237947Y-27988200D01*
X82329493Y-22896654D01*
X82357538Y-22873638D01*
X82380671Y-22845451D01*
X82471255Y-22872929D01*
X82625000Y-22888072D01*
X83650000Y-22888072D01*
X83803745Y-22872929D01*
X83951582Y-22828084D01*
X84087829Y-22755258D01*
X84173439Y-22685000D01*
X88463595Y-22685000D01*
X88499700Y-22688556D01*
X88535805Y-22685000D01*
X88643785Y-22674365D01*
X88782333Y-22632337D01*
X88910020Y-22564087D01*
X89021938Y-22472238D01*
X89044958Y-22444188D01*
X89404520Y-22084627D01*
X89553368Y-22233475D01*
X89796589Y-22395990D01*
X90066842Y-22507932D01*
X90353740Y-22565000D01*
X90646260Y-22565000D01*
X90933158Y-22507932D01*
X91203411Y-22395990D01*
X91446632Y-22233475D01*
X91653475Y-22026632D01*
X91815990Y-21783411D01*
X91927932Y-21513158D01*
X91985000Y-21226260D01*
X91985000Y-20933740D01*
X91927932Y-20646842D01*
X91815990Y-20376589D01*
X91653475Y-20133368D01*
X91446632Y-19926525D01*
X91272240Y-19810000D01*
X91446632Y-19693475D01*
X91653475Y-19486632D01*
X91815990Y-19243411D01*
X91927932Y-18973158D01*
X91985000Y-18686260D01*
X91985000Y-18393740D01*
X91927932Y-18106842D01*
X91815990Y-17836589D01*
X91653475Y-17593368D01*
X91521620Y-17461513D01*
X91594180Y-17439502D01*
X91704494Y-17380537D01*
X91801185Y-17301185D01*
X91880537Y-17204494D01*
X91939502Y-17094180D01*
X91975812Y-16974482D01*
X91988072Y-16850000D01*
X91985000Y-16285750D01*
X91826250Y-16127000D01*
X90627000Y-16127000D01*
X90627000Y-16147000D01*
X90373000Y-16147000D01*
X90373000Y-16127000D01*
X89173750Y-16127000D01*
X89015000Y-16285750D01*
X89011928Y-16850000D01*
X89024188Y-16974482D01*
X89060498Y-17094180D01*
X89119463Y-17204494D01*
X89198815Y-17301185D01*
X89295506Y-17380537D01*
X89405820Y-17439502D01*
X89478380Y-17461513D01*
X89346525Y-17593368D01*
X89184010Y-17836589D01*
X89072068Y-18106842D01*
X89015000Y-18393740D01*
X89015000Y-18686260D01*
X89072068Y-18973158D01*
X89184010Y-19243411D01*
X89346525Y-19486632D01*
X89553368Y-19693475D01*
X89727760Y-19810000D01*
X89553368Y-19926525D01*
X89346525Y-20133368D01*
X89190994Y-20366137D01*
X89087067Y-20397663D01*
X88959380Y-20465913D01*
X88847462Y-20557762D01*
X88824446Y-20585807D01*
X88195254Y-21215000D01*
X84173439Y-21215000D01*
X84087829Y-21144742D01*
X83951582Y-21071916D01*
X83803745Y-21027071D01*
X83650000Y-21011928D01*
X82625000Y-21011928D01*
X82471255Y-21027071D01*
X82364308Y-21059512D01*
X82357537Y-21051262D01*
X82329497Y-21028250D01*
X82163072Y-20861825D01*
X82163072Y-20850000D01*
X82161516Y-20834204D01*
X82187171Y-20855258D01*
X82323418Y-20928084D01*
X82471255Y-20972929D01*
X82625000Y-20988072D01*
X83650000Y-20988072D01*
X83803745Y-20972929D01*
X83951582Y-20928084D01*
X84087829Y-20855258D01*
X84207251Y-20757251D01*
X84305258Y-20637829D01*
X84378084Y-20501582D01*
X84422929Y-20353745D01*
X84438072Y-20200000D01*
X84438072Y-19900000D01*
X84422929Y-19746255D01*
X84378084Y-19598418D01*
X84305258Y-19462171D01*
X84207251Y-19342749D01*
X84087829Y-19244742D01*
X83951582Y-19171916D01*
X83803745Y-19127071D01*
X83650000Y-19111928D01*
X83274230Y-19111928D01*
X79312302Y-15150000D01*
X89011928Y-15150000D01*
X89015000Y-15714250D01*
X89173750Y-15873000D01*
X90373000Y-15873000D01*
X90373000Y-14673750D01*
X90627000Y-14673750D01*
X90627000Y-15873000D01*
X91826250Y-15873000D01*
X91985000Y-15714250D01*
X91988072Y-15150000D01*
X91975812Y-15025518D01*
X91939502Y-14905820D01*
X91880537Y-14795506D01*
X91801185Y-14698815D01*
X91704494Y-14619463D01*
X91594180Y-14560498D01*
X91474482Y-14524188D01*
X91350000Y-14511928D01*
X90785750Y-14515000D01*
X90627000Y-14673750D01*
X90373000Y-14673750D01*
X90214250Y-14515000D01*
X89650000Y-14511928D01*
X89525518Y-14524188D01*
X89405820Y-14560498D01*
X89295506Y-14619463D01*
X89198815Y-14698815D01*
X89119463Y-14795506D01*
X89060498Y-14905820D01*
X89024188Y-15025518D01*
X89011928Y-15150000D01*
X79312302Y-15150000D01*
X76238804Y-12076503D01*
X76215001Y-12047499D01*
X76099276Y-11952526D01*
X75967247Y-11881954D01*
X75823986Y-11838497D01*
X75712333Y-11827500D01*
X75712322Y-11827500D01*
X75675000Y-11823824D01*
X75637678Y-11827500D01*
X56185030Y-11827500D01*
X56077962Y-11697038D01*
X55943387Y-11586595D01*
X55789851Y-11504528D01*
X55623255Y-11453992D01*
X55450001Y-11436928D01*
X54549999Y-11436928D01*
X54376745Y-11453992D01*
X54210149Y-11504528D01*
X54092544Y-11567389D01*
X54091068Y-11566178D01*
X54053419Y-11528523D01*
X54053391Y-11528488D01*
X54023537Y-11498635D01*
X54000652Y-11475746D01*
X54000625Y-11475724D01*
X51588072Y-9063251D01*
X51588072Y-8989721D01*
X74865000Y-8989721D01*
X74865000Y-9410279D01*
X74947047Y-9822756D01*
X75107988Y-10211302D01*
X75341637Y-10560983D01*
X75639017Y-10858363D01*
X75988698Y-11092012D01*
X76377244Y-11252953D01*
X76789721Y-11335000D01*
X77210279Y-11335000D01*
X77622756Y-11252953D01*
X78011302Y-11092012D01*
X78360983Y-10858363D01*
X78658363Y-10560983D01*
X78892012Y-10211302D01*
X79052953Y-9822756D01*
X79135000Y-9410279D01*
X79135000Y-8989721D01*
X79052953Y-8577244D01*
X78892012Y-8188698D01*
X78658363Y-7839017D01*
X78360983Y-7541637D01*
X78011302Y-7307988D01*
X77622756Y-7147047D01*
X77210279Y-7065000D01*
X76789721Y-7065000D01*
X76377244Y-7147047D01*
X75988698Y-7307988D01*
X75639017Y-7541637D01*
X75341637Y-7839017D01*
X75107988Y-8188698D01*
X74947047Y-8577244D01*
X74865000Y-8989721D01*
X51588072Y-8989721D01*
X51588072Y-8525000D01*
X51571008Y-8351746D01*
X51520472Y-8185150D01*
X51438405Y-8031614D01*
X51327962Y-7897038D01*
X51193386Y-7786595D01*
X51039850Y-7704528D01*
X50873254Y-7653992D01*
X50700000Y-7636928D01*
X50426030Y-7636928D01*
X49790004Y-7000903D01*
X49766201Y-6971899D01*
X49650476Y-6876926D01*
X49518447Y-6806354D01*
X49375186Y-6762897D01*
X49263533Y-6751900D01*
X49263522Y-6751900D01*
X49226200Y-6748224D01*
X49188878Y-6751900D01*
X18588222Y-6751900D01*
X18550899Y-6748224D01*
X18513576Y-6751900D01*
X18513567Y-6751900D01*
X18401914Y-6762897D01*
X18258653Y-6806354D01*
X18126624Y-6876926D01*
X18010899Y-6971899D01*
X17987101Y-7000897D01*
X7870303Y-17117696D01*
X7841299Y-17141499D01*
X7798377Y-17193800D01*
X7746326Y-17257224D01*
X7698920Y-17345914D01*
X7675754Y-17389254D01*
X7632297Y-17532515D01*
X7621300Y-17644168D01*
X7621300Y-17644178D01*
X7617624Y-17681500D01*
X7621300Y-17718822D01*
X7621301Y-32383968D01*
X7617624Y-32421300D01*
X7632298Y-32570285D01*
X7675754Y-32713546D01*
X7746326Y-32845576D01*
X7798983Y-32909738D01*
X7841300Y-32961301D01*
X7870298Y-32985099D01*
X11558790Y-36673592D01*
X11515000Y-36893740D01*
X11515000Y-37186260D01*
X11572068Y-37473158D01*
X11684010Y-37743411D01*
X11846525Y-37986632D01*
X12053368Y-38193475D01*
X12227760Y-38310000D01*
X12053368Y-38426525D01*
X11846525Y-38633368D01*
X11684010Y-38876589D01*
X11572068Y-39146842D01*
X11515000Y-39433740D01*
X11515000Y-39726260D01*
X11572068Y-40013158D01*
X11684010Y-40283411D01*
X11846525Y-40526632D01*
X12053368Y-40733475D01*
X12296589Y-40895990D01*
X12566842Y-41007932D01*
X12853740Y-41065000D01*
X13146260Y-41065000D01*
X13433158Y-41007932D01*
X13703411Y-40895990D01*
X13946632Y-40733475D01*
X14153475Y-40526632D01*
X14315990Y-40283411D01*
X14427932Y-40013158D01*
X14485000Y-39726260D01*
X14485000Y-39433740D01*
X14427932Y-39146842D01*
X14315990Y-38876589D01*
X14153475Y-38633368D01*
X13946632Y-38426525D01*
X13772240Y-38310000D01*
X13946632Y-38193475D01*
X14153475Y-37986632D01*
X14315990Y-37743411D01*
X14427932Y-37473158D01*
X14485000Y-37186260D01*
X14485000Y-37059802D01*
X15540001Y-38114803D01*
X15540000Y-38882677D01*
X15536324Y-38920000D01*
X15540000Y-38957322D01*
X15540000Y-38957332D01*
X15550997Y-39068985D01*
X15582733Y-39173605D01*
X15594454Y-39212246D01*
X15665026Y-39344276D01*
X15704871Y-39392826D01*
X15759999Y-39460001D01*
X15789003Y-39483804D01*
X20595198Y-44290000D01*
X710000Y-44290000D01*
X710000Y-710000D01*
X78790001Y-710000D01*
X78790000Y-4965123D01*
G37*
G04 #@! TD.AperFunction*
D16*
X68111928Y-39650000D02*
X68127071Y-39803745D01*
X68171916Y-39951582D01*
X68244742Y-40087829D01*
X68342749Y-40207251D01*
X68462171Y-40305258D01*
X68598418Y-40378084D01*
X68746255Y-40422929D01*
X68900000Y-40438072D01*
X69200000Y-40438072D01*
X69353745Y-40422929D01*
X69501582Y-40378084D01*
X69525000Y-40365567D01*
X69548418Y-40378084D01*
X69696255Y-40422929D01*
X69850000Y-40438072D01*
X70150000Y-40438072D01*
X70303745Y-40422929D01*
X70409881Y-40390734D01*
X70525518Y-40425812D01*
X70650000Y-40438072D01*
X70664250Y-40435000D01*
X70822998Y-40276252D01*
X70822998Y-40435000D01*
X70868300Y-40435000D01*
X70868301Y-43921952D01*
X69465808Y-45324446D01*
X69437763Y-45347462D01*
X69345914Y-45459380D01*
X69317827Y-45511928D01*
X69110000Y-45511928D01*
X68985518Y-45524188D01*
X68865820Y-45560498D01*
X68755506Y-45619463D01*
X68690000Y-45673222D01*
X68624494Y-45619463D01*
X68514180Y-45560498D01*
X68394482Y-45524188D01*
X68270000Y-45511928D01*
X66570000Y-45511928D01*
X66445518Y-45524188D01*
X66325820Y-45560498D01*
X66215506Y-45619463D01*
X66150000Y-45673222D01*
X66084494Y-45619463D01*
X65974180Y-45560498D01*
X65854482Y-45524188D01*
X65730000Y-45511928D01*
X64030000Y-45511928D01*
X63905518Y-45524188D01*
X63785820Y-45560498D01*
X63675506Y-45619463D01*
X63610000Y-45673222D01*
X63544494Y-45619463D01*
X63434180Y-45560498D01*
X63314482Y-45524188D01*
X63190000Y-45511928D01*
X61490000Y-45511928D01*
X61365518Y-45524188D01*
X61245820Y-45560498D01*
X61135506Y-45619463D01*
X61070000Y-45673222D01*
X61004494Y-45619463D01*
X60894180Y-45560498D01*
X60774482Y-45524188D01*
X60650000Y-45511928D01*
X58950000Y-45511928D01*
X58825518Y-45524188D01*
X58705820Y-45560498D01*
X58595506Y-45619463D01*
X58530000Y-45673222D01*
X58464494Y-45619463D01*
X58354180Y-45560498D01*
X58234482Y-45524188D01*
X58110000Y-45511928D01*
X57715018Y-45511928D01*
X62798839Y-40428108D01*
X62900000Y-40438072D01*
X63200000Y-40438072D01*
X63353745Y-40422929D01*
X63501582Y-40378084D01*
X63525000Y-40365567D01*
X63548418Y-40378084D01*
X63696255Y-40422929D01*
X63850000Y-40438072D01*
X64150000Y-40438072D01*
X64303745Y-40422929D01*
X64409881Y-40390734D01*
X64525518Y-40425812D01*
X64650000Y-40438072D01*
X64664250Y-40435000D01*
X64823000Y-40276250D01*
X64823000Y-40054636D01*
X64878084Y-39951582D01*
X64922929Y-39803745D01*
X64938072Y-39650000D01*
X64938072Y-39264500D01*
X65077000Y-39264500D01*
X65077000Y-40276250D01*
X65235750Y-40435000D01*
X65250000Y-40438072D01*
X65374482Y-40425812D01*
X65494180Y-40389502D01*
X65604494Y-40330537D01*
X65701185Y-40251185D01*
X65780537Y-40154494D01*
X65839502Y-40044180D01*
X65875812Y-39924482D01*
X65888072Y-39800000D01*
X65885000Y-39423250D01*
X65726250Y-39264500D01*
X65077000Y-39264500D01*
X64938072Y-39264500D01*
X64938072Y-38990500D01*
X65077000Y-38990500D01*
X65077000Y-39010500D01*
X65726250Y-39010500D01*
X65885000Y-38851750D01*
X65886127Y-38713550D01*
X68111928Y-38713550D01*
X68111928Y-39650000D01*
G04 #@! TA.AperFunction,Conductor*
D17*
G36*
X68111928Y-39650000D02*
G01*
X68127071Y-39803745D01*
X68171916Y-39951582D01*
X68244742Y-40087829D01*
X68342749Y-40207251D01*
X68462171Y-40305258D01*
X68598418Y-40378084D01*
X68746255Y-40422929D01*
X68900000Y-40438072D01*
X69200000Y-40438072D01*
X69353745Y-40422929D01*
X69501582Y-40378084D01*
X69525000Y-40365567D01*
X69548418Y-40378084D01*
X69696255Y-40422929D01*
X69850000Y-40438072D01*
X70150000Y-40438072D01*
X70303745Y-40422929D01*
X70409881Y-40390734D01*
X70525518Y-40425812D01*
X70650000Y-40438072D01*
X70664250Y-40435000D01*
X70822998Y-40276252D01*
X70822998Y-40435000D01*
X70868300Y-40435000D01*
X70868301Y-43921952D01*
X69465808Y-45324446D01*
X69437763Y-45347462D01*
X69345914Y-45459380D01*
X69317827Y-45511928D01*
X69110000Y-45511928D01*
X68985518Y-45524188D01*
X68865820Y-45560498D01*
X68755506Y-45619463D01*
X68690000Y-45673222D01*
X68624494Y-45619463D01*
X68514180Y-45560498D01*
X68394482Y-45524188D01*
X68270000Y-45511928D01*
X66570000Y-45511928D01*
X66445518Y-45524188D01*
X66325820Y-45560498D01*
X66215506Y-45619463D01*
X66150000Y-45673222D01*
X66084494Y-45619463D01*
X65974180Y-45560498D01*
X65854482Y-45524188D01*
X65730000Y-45511928D01*
X64030000Y-45511928D01*
X63905518Y-45524188D01*
X63785820Y-45560498D01*
X63675506Y-45619463D01*
X63610000Y-45673222D01*
X63544494Y-45619463D01*
X63434180Y-45560498D01*
X63314482Y-45524188D01*
X63190000Y-45511928D01*
X61490000Y-45511928D01*
X61365518Y-45524188D01*
X61245820Y-45560498D01*
X61135506Y-45619463D01*
X61070000Y-45673222D01*
X61004494Y-45619463D01*
X60894180Y-45560498D01*
X60774482Y-45524188D01*
X60650000Y-45511928D01*
X58950000Y-45511928D01*
X58825518Y-45524188D01*
X58705820Y-45560498D01*
X58595506Y-45619463D01*
X58530000Y-45673222D01*
X58464494Y-45619463D01*
X58354180Y-45560498D01*
X58234482Y-45524188D01*
X58110000Y-45511928D01*
X57715018Y-45511928D01*
X62798839Y-40428108D01*
X62900000Y-40438072D01*
X63200000Y-40438072D01*
X63353745Y-40422929D01*
X63501582Y-40378084D01*
X63525000Y-40365567D01*
X63548418Y-40378084D01*
X63696255Y-40422929D01*
X63850000Y-40438072D01*
X64150000Y-40438072D01*
X64303745Y-40422929D01*
X64409881Y-40390734D01*
X64525518Y-40425812D01*
X64650000Y-40438072D01*
X64664250Y-40435000D01*
X64823000Y-40276250D01*
X64823000Y-40054636D01*
X64878084Y-39951582D01*
X64922929Y-39803745D01*
X64938072Y-39650000D01*
X64938072Y-39264500D01*
X65077000Y-39264500D01*
X65077000Y-40276250D01*
X65235750Y-40435000D01*
X65250000Y-40438072D01*
X65374482Y-40425812D01*
X65494180Y-40389502D01*
X65604494Y-40330537D01*
X65701185Y-40251185D01*
X65780537Y-40154494D01*
X65839502Y-40044180D01*
X65875812Y-39924482D01*
X65888072Y-39800000D01*
X65885000Y-39423250D01*
X65726250Y-39264500D01*
X65077000Y-39264500D01*
X64938072Y-39264500D01*
X64938072Y-38990500D01*
X65077000Y-38990500D01*
X65077000Y-39010500D01*
X65726250Y-39010500D01*
X65885000Y-38851750D01*
X65886127Y-38713550D01*
X68111928Y-38713550D01*
X68111928Y-39650000D01*
G37*
G04 #@! TD.AperFunction*
D16*
X17734999Y-25985001D02*
X17850724Y-26079974D01*
X17959698Y-26138223D01*
X17835750Y-26140000D01*
X17677000Y-26298750D01*
X17677000Y-27373000D01*
X17697000Y-27373000D01*
X17697000Y-27627000D01*
X17677000Y-27627000D01*
X17677000Y-28701250D01*
X17835750Y-28860000D01*
X18050000Y-28863072D01*
X18174482Y-28850812D01*
X18294180Y-28814502D01*
X18404494Y-28755537D01*
X18501185Y-28676185D01*
X18566658Y-28596406D01*
X18572038Y-28602962D01*
X18706614Y-28713405D01*
X18860150Y-28795472D01*
X19026746Y-28846008D01*
X19200000Y-28863072D01*
X19700000Y-28863072D01*
X19873254Y-28846008D01*
X20039850Y-28795472D01*
X20193386Y-28713405D01*
X20327962Y-28602962D01*
X20438405Y-28468386D01*
X20520472Y-28314850D01*
X20571008Y-28148254D01*
X20575316Y-28104515D01*
X20599462Y-28133937D01*
X20627508Y-28156954D01*
X26464746Y-33994193D01*
X26487762Y-34022238D01*
X26568024Y-34088107D01*
X26561928Y-34150000D01*
X26565000Y-34164250D01*
X26723750Y-34323000D01*
X26945364Y-34323000D01*
X27048418Y-34378084D01*
X27196255Y-34422929D01*
X27350000Y-34438072D01*
X28009500Y-34438072D01*
X28009500Y-34577000D01*
X27989500Y-34577000D01*
X27989500Y-35226250D01*
X28148250Y-35385000D01*
X28525000Y-35388072D01*
X28649482Y-35375812D01*
X28769180Y-35339502D01*
X28879494Y-35280537D01*
X28976185Y-35201185D01*
X29039995Y-35123432D01*
X29067749Y-35157251D01*
X29187171Y-35255258D01*
X29323418Y-35328084D01*
X29471255Y-35372929D01*
X29625000Y-35388072D01*
X30650000Y-35388072D01*
X30803745Y-35372929D01*
X30951582Y-35328084D01*
X31087829Y-35255258D01*
X31173439Y-35185000D01*
X31283895Y-35185000D01*
X31320000Y-35188556D01*
X31356105Y-35185000D01*
X31464085Y-35174365D01*
X31602633Y-35132337D01*
X31730320Y-35064087D01*
X31842238Y-34972238D01*
X31865258Y-34944188D01*
X32059446Y-34750000D01*
X32561928Y-34750000D01*
X32574188Y-34874482D01*
X32610498Y-34994180D01*
X32669463Y-35104494D01*
X32748815Y-35201185D01*
X32845506Y-35280537D01*
X32955820Y-35339502D01*
X33075518Y-35375812D01*
X33200000Y-35388072D01*
X33576750Y-35385000D01*
X33735500Y-35226250D01*
X33735500Y-34577000D01*
X32723750Y-34577000D01*
X32565000Y-34735750D01*
X32561928Y-34750000D01*
X32059446Y-34750000D01*
X32574447Y-34235000D01*
X32635750Y-34235000D01*
X32723750Y-34323000D01*
X32945364Y-34323000D01*
X33048418Y-34378084D01*
X33196255Y-34422929D01*
X33350000Y-34438072D01*
X34009500Y-34438072D01*
X34009500Y-34577000D01*
X33989500Y-34577000D01*
X33989500Y-35226250D01*
X34148250Y-35385000D01*
X34525000Y-35388072D01*
X34649482Y-35375812D01*
X34769180Y-35339502D01*
X34879494Y-35280537D01*
X34976185Y-35201185D01*
X35039995Y-35123432D01*
X35067749Y-35157251D01*
X35187171Y-35255258D01*
X35323418Y-35328084D01*
X35462331Y-35370222D01*
X26285808Y-44546746D01*
X26257763Y-44569762D01*
X26165914Y-44681680D01*
X26119846Y-44767867D01*
X26097664Y-44809367D01*
X26055635Y-44947915D01*
X26041444Y-45092000D01*
X26045001Y-45128115D01*
X26045001Y-45511928D01*
X25930000Y-45511928D01*
X25805518Y-45524188D01*
X25685820Y-45560498D01*
X25575506Y-45619463D01*
X25510000Y-45673222D01*
X25444494Y-45619463D01*
X25334180Y-45560498D01*
X25214482Y-45524188D01*
X25090000Y-45511928D01*
X24934575Y-45511928D01*
X24874974Y-45400424D01*
X24780001Y-45284699D01*
X24750997Y-45260896D01*
X24710000Y-45219899D01*
X24710000Y-44017332D01*
X24713677Y-43980000D01*
X24710000Y-43942667D01*
X24710000Y-43699770D01*
X24827962Y-43602962D01*
X24938405Y-43468386D01*
X25020472Y-43314850D01*
X25071008Y-43148254D01*
X25088072Y-42975000D01*
X25088072Y-42025000D01*
X25071008Y-41851746D01*
X25020472Y-41685150D01*
X24938405Y-41531614D01*
X24912460Y-41500000D01*
X24938405Y-41468386D01*
X25020472Y-41314850D01*
X25071008Y-41148254D01*
X25088072Y-40975000D01*
X25088072Y-40025000D01*
X25071008Y-39851746D01*
X25020472Y-39685150D01*
X24938405Y-39531614D01*
X24827962Y-39397038D01*
X24693386Y-39286595D01*
X24539850Y-39204528D01*
X24373254Y-39153992D01*
X24200000Y-39136928D01*
X23700000Y-39136928D01*
X23526746Y-39153992D01*
X23360150Y-39204528D01*
X23206614Y-39286595D01*
X23072038Y-39397038D01*
X23066658Y-39403594D01*
X23001185Y-39323815D01*
X22904494Y-39244463D01*
X22794180Y-39185498D01*
X22674482Y-39149188D01*
X22550000Y-39136928D01*
X22335750Y-39140000D01*
X22177000Y-39298750D01*
X22177000Y-40373000D01*
X22197000Y-40373000D01*
X22197000Y-40627000D01*
X22177000Y-40627000D01*
X22177000Y-42373000D01*
X22197000Y-42373000D01*
X22197000Y-42627000D01*
X22177000Y-42627000D01*
X22177000Y-42647000D01*
X21923000Y-42647000D01*
X21923000Y-42627000D01*
X21903000Y-42627000D01*
X21903000Y-42373000D01*
X21923000Y-42373000D01*
X21923000Y-40627000D01*
X21073750Y-40627000D01*
X20915000Y-40785750D01*
X20911928Y-41225000D01*
X20924188Y-41349482D01*
X20960498Y-41469180D01*
X20976972Y-41500000D01*
X20960498Y-41530820D01*
X20924188Y-41650518D01*
X20911928Y-41775000D01*
X20915000Y-42214250D01*
X21073748Y-42372998D01*
X20915000Y-42372998D01*
X20915000Y-42460198D01*
X18229802Y-39775000D01*
X20911928Y-39775000D01*
X20915000Y-40214250D01*
X21073750Y-40373000D01*
X21923000Y-40373000D01*
X21923000Y-39298750D01*
X21764250Y-39140000D01*
X21550000Y-39136928D01*
X21425518Y-39149188D01*
X21305820Y-39185498D01*
X21195506Y-39244463D01*
X21098815Y-39323815D01*
X21019463Y-39420506D01*
X20960498Y-39530820D01*
X20924188Y-39650518D01*
X20911928Y-39775000D01*
X18229802Y-39775000D01*
X17060000Y-38605199D01*
X17060000Y-37837325D01*
X17063676Y-37800000D01*
X17060000Y-37762675D01*
X17060000Y-37762667D01*
X17049003Y-37651014D01*
X17005546Y-37507753D01*
X16934974Y-37375724D01*
X16840001Y-37259999D01*
X16811003Y-37236201D01*
X14488072Y-34913271D01*
X14488072Y-34750000D01*
X26561928Y-34750000D01*
X26574188Y-34874482D01*
X26610498Y-34994180D01*
X26669463Y-35104494D01*
X26748815Y-35201185D01*
X26845506Y-35280537D01*
X26955820Y-35339502D01*
X27075518Y-35375812D01*
X27200000Y-35388072D01*
X27576750Y-35385000D01*
X27735500Y-35226250D01*
X27735500Y-34577000D01*
X26723750Y-34577000D01*
X26565000Y-34735750D01*
X26561928Y-34750000D01*
X14488072Y-34750000D01*
X14488072Y-33650000D01*
X14475812Y-33525518D01*
X14439502Y-33405820D01*
X14380537Y-33295506D01*
X14301185Y-33198815D01*
X14204494Y-33119463D01*
X14094180Y-33060498D01*
X13974482Y-33024188D01*
X13850000Y-33011928D01*
X13760000Y-33011928D01*
X13760000Y-28225000D01*
X16411928Y-28225000D01*
X16424188Y-28349482D01*
X16460498Y-28469180D01*
X16519463Y-28579494D01*
X16598815Y-28676185D01*
X16695506Y-28755537D01*
X16805820Y-28814502D01*
X16925518Y-28850812D01*
X17050000Y-28863072D01*
X17264250Y-28860000D01*
X17423000Y-28701250D01*
X17423000Y-27627000D01*
X16573750Y-27627000D01*
X16415000Y-27785750D01*
X16411928Y-28225000D01*
X13760000Y-28225000D01*
X13760000Y-26255000D01*
X16682667Y-26255000D01*
X16598815Y-26323815D01*
X16519463Y-26420506D01*
X16460498Y-26530820D01*
X16424188Y-26650518D01*
X16411928Y-26775000D01*
X16415000Y-27214250D01*
X16573750Y-27373000D01*
X17423000Y-27373000D01*
X17423000Y-26298750D01*
X17348641Y-26224391D01*
X17427247Y-26200546D01*
X17559276Y-26129974D01*
X17675001Y-26035001D01*
X17698804Y-26005997D01*
X17728148Y-25976653D01*
X17734999Y-25985001D01*
G04 #@! TA.AperFunction,Conductor*
D17*
G36*
X17734999Y-25985001D02*
G01*
X17850724Y-26079974D01*
X17959698Y-26138223D01*
X17835750Y-26140000D01*
X17677000Y-26298750D01*
X17677000Y-27373000D01*
X17697000Y-27373000D01*
X17697000Y-27627000D01*
X17677000Y-27627000D01*
X17677000Y-28701250D01*
X17835750Y-28860000D01*
X18050000Y-28863072D01*
X18174482Y-28850812D01*
X18294180Y-28814502D01*
X18404494Y-28755537D01*
X18501185Y-28676185D01*
X18566658Y-28596406D01*
X18572038Y-28602962D01*
X18706614Y-28713405D01*
X18860150Y-28795472D01*
X19026746Y-28846008D01*
X19200000Y-28863072D01*
X19700000Y-28863072D01*
X19873254Y-28846008D01*
X20039850Y-28795472D01*
X20193386Y-28713405D01*
X20327962Y-28602962D01*
X20438405Y-28468386D01*
X20520472Y-28314850D01*
X20571008Y-28148254D01*
X20575316Y-28104515D01*
X20599462Y-28133937D01*
X20627508Y-28156954D01*
X26464746Y-33994193D01*
X26487762Y-34022238D01*
X26568024Y-34088107D01*
X26561928Y-34150000D01*
X26565000Y-34164250D01*
X26723750Y-34323000D01*
X26945364Y-34323000D01*
X27048418Y-34378084D01*
X27196255Y-34422929D01*
X27350000Y-34438072D01*
X28009500Y-34438072D01*
X28009500Y-34577000D01*
X27989500Y-34577000D01*
X27989500Y-35226250D01*
X28148250Y-35385000D01*
X28525000Y-35388072D01*
X28649482Y-35375812D01*
X28769180Y-35339502D01*
X28879494Y-35280537D01*
X28976185Y-35201185D01*
X29039995Y-35123432D01*
X29067749Y-35157251D01*
X29187171Y-35255258D01*
X29323418Y-35328084D01*
X29471255Y-35372929D01*
X29625000Y-35388072D01*
X30650000Y-35388072D01*
X30803745Y-35372929D01*
X30951582Y-35328084D01*
X31087829Y-35255258D01*
X31173439Y-35185000D01*
X31283895Y-35185000D01*
X31320000Y-35188556D01*
X31356105Y-35185000D01*
X31464085Y-35174365D01*
X31602633Y-35132337D01*
X31730320Y-35064087D01*
X31842238Y-34972238D01*
X31865258Y-34944188D01*
X32059446Y-34750000D01*
X32561928Y-34750000D01*
X32574188Y-34874482D01*
X32610498Y-34994180D01*
X32669463Y-35104494D01*
X32748815Y-35201185D01*
X32845506Y-35280537D01*
X32955820Y-35339502D01*
X33075518Y-35375812D01*
X33200000Y-35388072D01*
X33576750Y-35385000D01*
X33735500Y-35226250D01*
X33735500Y-34577000D01*
X32723750Y-34577000D01*
X32565000Y-34735750D01*
X32561928Y-34750000D01*
X32059446Y-34750000D01*
X32574447Y-34235000D01*
X32635750Y-34235000D01*
X32723750Y-34323000D01*
X32945364Y-34323000D01*
X33048418Y-34378084D01*
X33196255Y-34422929D01*
X33350000Y-34438072D01*
X34009500Y-34438072D01*
X34009500Y-34577000D01*
X33989500Y-34577000D01*
X33989500Y-35226250D01*
X34148250Y-35385000D01*
X34525000Y-35388072D01*
X34649482Y-35375812D01*
X34769180Y-35339502D01*
X34879494Y-35280537D01*
X34976185Y-35201185D01*
X35039995Y-35123432D01*
X35067749Y-35157251D01*
X35187171Y-35255258D01*
X35323418Y-35328084D01*
X35462331Y-35370222D01*
X26285808Y-44546746D01*
X26257763Y-44569762D01*
X26165914Y-44681680D01*
X26119846Y-44767867D01*
X26097664Y-44809367D01*
X26055635Y-44947915D01*
X26041444Y-45092000D01*
X26045001Y-45128115D01*
X26045001Y-45511928D01*
X25930000Y-45511928D01*
X25805518Y-45524188D01*
X25685820Y-45560498D01*
X25575506Y-45619463D01*
X25510000Y-45673222D01*
X25444494Y-45619463D01*
X25334180Y-45560498D01*
X25214482Y-45524188D01*
X25090000Y-45511928D01*
X24934575Y-45511928D01*
X24874974Y-45400424D01*
X24780001Y-45284699D01*
X24750997Y-45260896D01*
X24710000Y-45219899D01*
X24710000Y-44017332D01*
X24713677Y-43980000D01*
X24710000Y-43942667D01*
X24710000Y-43699770D01*
X24827962Y-43602962D01*
X24938405Y-43468386D01*
X25020472Y-43314850D01*
X25071008Y-43148254D01*
X25088072Y-42975000D01*
X25088072Y-42025000D01*
X25071008Y-41851746D01*
X25020472Y-41685150D01*
X24938405Y-41531614D01*
X24912460Y-41500000D01*
X24938405Y-41468386D01*
X25020472Y-41314850D01*
X25071008Y-41148254D01*
X25088072Y-40975000D01*
X25088072Y-40025000D01*
X25071008Y-39851746D01*
X25020472Y-39685150D01*
X24938405Y-39531614D01*
X24827962Y-39397038D01*
X24693386Y-39286595D01*
X24539850Y-39204528D01*
X24373254Y-39153992D01*
X24200000Y-39136928D01*
X23700000Y-39136928D01*
X23526746Y-39153992D01*
X23360150Y-39204528D01*
X23206614Y-39286595D01*
X23072038Y-39397038D01*
X23066658Y-39403594D01*
X23001185Y-39323815D01*
X22904494Y-39244463D01*
X22794180Y-39185498D01*
X22674482Y-39149188D01*
X22550000Y-39136928D01*
X22335750Y-39140000D01*
X22177000Y-39298750D01*
X22177000Y-40373000D01*
X22197000Y-40373000D01*
X22197000Y-40627000D01*
X22177000Y-40627000D01*
X22177000Y-42373000D01*
X22197000Y-42373000D01*
X22197000Y-42627000D01*
X22177000Y-42627000D01*
X22177000Y-42647000D01*
X21923000Y-42647000D01*
X21923000Y-42627000D01*
X21903000Y-42627000D01*
X21903000Y-42373000D01*
X21923000Y-42373000D01*
X21923000Y-40627000D01*
X21073750Y-40627000D01*
X20915000Y-40785750D01*
X20911928Y-41225000D01*
X20924188Y-41349482D01*
X20960498Y-41469180D01*
X20976972Y-41500000D01*
X20960498Y-41530820D01*
X20924188Y-41650518D01*
X20911928Y-41775000D01*
X20915000Y-42214250D01*
X21073748Y-42372998D01*
X20915000Y-42372998D01*
X20915000Y-42460198D01*
X18229802Y-39775000D01*
X20911928Y-39775000D01*
X20915000Y-40214250D01*
X21073750Y-40373000D01*
X21923000Y-40373000D01*
X21923000Y-39298750D01*
X21764250Y-39140000D01*
X21550000Y-39136928D01*
X21425518Y-39149188D01*
X21305820Y-39185498D01*
X21195506Y-39244463D01*
X21098815Y-39323815D01*
X21019463Y-39420506D01*
X20960498Y-39530820D01*
X20924188Y-39650518D01*
X20911928Y-39775000D01*
X18229802Y-39775000D01*
X17060000Y-38605199D01*
X17060000Y-37837325D01*
X17063676Y-37800000D01*
X17060000Y-37762675D01*
X17060000Y-37762667D01*
X17049003Y-37651014D01*
X17005546Y-37507753D01*
X16934974Y-37375724D01*
X16840001Y-37259999D01*
X16811003Y-37236201D01*
X14488072Y-34913271D01*
X14488072Y-34750000D01*
X26561928Y-34750000D01*
X26574188Y-34874482D01*
X26610498Y-34994180D01*
X26669463Y-35104494D01*
X26748815Y-35201185D01*
X26845506Y-35280537D01*
X26955820Y-35339502D01*
X27075518Y-35375812D01*
X27200000Y-35388072D01*
X27576750Y-35385000D01*
X27735500Y-35226250D01*
X27735500Y-34577000D01*
X26723750Y-34577000D01*
X26565000Y-34735750D01*
X26561928Y-34750000D01*
X14488072Y-34750000D01*
X14488072Y-33650000D01*
X14475812Y-33525518D01*
X14439502Y-33405820D01*
X14380537Y-33295506D01*
X14301185Y-33198815D01*
X14204494Y-33119463D01*
X14094180Y-33060498D01*
X13974482Y-33024188D01*
X13850000Y-33011928D01*
X13760000Y-33011928D01*
X13760000Y-28225000D01*
X16411928Y-28225000D01*
X16424188Y-28349482D01*
X16460498Y-28469180D01*
X16519463Y-28579494D01*
X16598815Y-28676185D01*
X16695506Y-28755537D01*
X16805820Y-28814502D01*
X16925518Y-28850812D01*
X17050000Y-28863072D01*
X17264250Y-28860000D01*
X17423000Y-28701250D01*
X17423000Y-27627000D01*
X16573750Y-27627000D01*
X16415000Y-27785750D01*
X16411928Y-28225000D01*
X13760000Y-28225000D01*
X13760000Y-26255000D01*
X16682667Y-26255000D01*
X16598815Y-26323815D01*
X16519463Y-26420506D01*
X16460498Y-26530820D01*
X16424188Y-26650518D01*
X16411928Y-26775000D01*
X16415000Y-27214250D01*
X16573750Y-27373000D01*
X17423000Y-27373000D01*
X17423000Y-26298750D01*
X17348641Y-26224391D01*
X17427247Y-26200546D01*
X17559276Y-26129974D01*
X17675001Y-26035001D01*
X17698804Y-26005997D01*
X17728148Y-25976653D01*
X17734999Y-25985001D01*
G37*
G04 #@! TD.AperFunction*
D16*
X52111928Y-37375000D02*
X52127071Y-37528745D01*
X52171916Y-37676582D01*
X52244742Y-37812829D01*
X52342749Y-37932251D01*
X52425301Y-38000000D01*
X52342749Y-38067749D01*
X52244742Y-38187171D01*
X52189817Y-38289928D01*
X52086147Y-38310549D01*
X51929637Y-38375378D01*
X51788782Y-38469495D01*
X51668995Y-38589282D01*
X51574878Y-38730137D01*
X51510049Y-38886647D01*
X51477000Y-39052797D01*
X51477000Y-39222203D01*
X51506916Y-39372600D01*
X50834350Y-39372600D01*
X50726250Y-39264500D01*
X50077000Y-39264500D01*
X50077000Y-39284500D01*
X49938072Y-39284500D01*
X49938072Y-38990500D01*
X50077000Y-38990500D01*
X50077000Y-39010500D01*
X50726250Y-39010500D01*
X50885000Y-38851750D01*
X50888072Y-38475000D01*
X50875812Y-38350518D01*
X50839502Y-38230820D01*
X50780537Y-38120506D01*
X50701185Y-38023815D01*
X50623432Y-37960005D01*
X50657251Y-37932251D01*
X50755258Y-37812829D01*
X50828084Y-37676582D01*
X50872929Y-37528745D01*
X50888072Y-37375000D01*
X50888072Y-36604200D01*
X52111928Y-36604200D01*
X52111928Y-37375000D01*
G04 #@! TA.AperFunction,Conductor*
D17*
G36*
X52111928Y-37375000D02*
G01*
X52127071Y-37528745D01*
X52171916Y-37676582D01*
X52244742Y-37812829D01*
X52342749Y-37932251D01*
X52425301Y-38000000D01*
X52342749Y-38067749D01*
X52244742Y-38187171D01*
X52189817Y-38289928D01*
X52086147Y-38310549D01*
X51929637Y-38375378D01*
X51788782Y-38469495D01*
X51668995Y-38589282D01*
X51574878Y-38730137D01*
X51510049Y-38886647D01*
X51477000Y-39052797D01*
X51477000Y-39222203D01*
X51506916Y-39372600D01*
X50834350Y-39372600D01*
X50726250Y-39264500D01*
X50077000Y-39264500D01*
X50077000Y-39284500D01*
X49938072Y-39284500D01*
X49938072Y-38990500D01*
X50077000Y-38990500D01*
X50077000Y-39010500D01*
X50726250Y-39010500D01*
X50885000Y-38851750D01*
X50888072Y-38475000D01*
X50875812Y-38350518D01*
X50839502Y-38230820D01*
X50780537Y-38120506D01*
X50701185Y-38023815D01*
X50623432Y-37960005D01*
X50657251Y-37932251D01*
X50755258Y-37812829D01*
X50828084Y-37676582D01*
X50872929Y-37528745D01*
X50888072Y-37375000D01*
X50888072Y-36604200D01*
X52111928Y-36604200D01*
X52111928Y-37375000D01*
G37*
G04 #@! TD.AperFunction*
D16*
X60077000Y-39010500D02*
X60097000Y-39010500D01*
X60097000Y-39264500D01*
X60077000Y-39264500D01*
X60077000Y-39284500D01*
X59938072Y-39284500D01*
X59938072Y-38990500D01*
X60077000Y-38990500D01*
X60077000Y-39010500D01*
G04 #@! TA.AperFunction,Conductor*
D17*
G36*
X60077000Y-39010500D02*
G01*
X60097000Y-39010500D01*
X60097000Y-39264500D01*
X60077000Y-39264500D01*
X60077000Y-39284500D01*
X59938072Y-39284500D01*
X59938072Y-38990500D01*
X60077000Y-38990500D01*
X60077000Y-39010500D01*
G37*
G04 #@! TD.AperFunction*
D16*
X55077000Y-39010500D02*
X55097000Y-39010500D01*
X55097000Y-39264500D01*
X55077000Y-39264500D01*
X55077000Y-39284500D01*
X54938072Y-39284500D01*
X54938072Y-38990500D01*
X55077000Y-38990500D01*
X55077000Y-39010500D01*
G04 #@! TA.AperFunction,Conductor*
D17*
G36*
X55077000Y-39010500D02*
G01*
X55097000Y-39010500D01*
X55097000Y-39264500D01*
X55077000Y-39264500D01*
X55077000Y-39284500D01*
X54938072Y-39284500D01*
X54938072Y-38990500D01*
X55077000Y-38990500D01*
X55077000Y-39010500D01*
G37*
G04 #@! TD.AperFunction*
D16*
X61897500Y-37626176D02*
X61934822Y-37622500D01*
X62078053Y-37622500D01*
X60885298Y-38815256D01*
X60887755Y-38513937D01*
X60925476Y-38493774D01*
X61041201Y-38398801D01*
X61065004Y-38369798D01*
X61812302Y-37622500D01*
X61860178Y-37622500D01*
X61897500Y-37626176D01*
G04 #@! TA.AperFunction,Conductor*
D17*
G36*
X61897500Y-37626176D02*
G01*
X61934822Y-37622500D01*
X62078053Y-37622500D01*
X60885298Y-38815256D01*
X60887755Y-38513937D01*
X60925476Y-38493774D01*
X61041201Y-38398801D01*
X61065004Y-38369798D01*
X61812302Y-37622500D01*
X61860178Y-37622500D01*
X61897500Y-37626176D01*
G37*
G04 #@! TD.AperFunction*
D16*
X39817449Y-19236853D02*
X39882278Y-19393363D01*
X39976395Y-19534218D01*
X40096182Y-19654005D01*
X40237037Y-19748122D01*
X40393547Y-19812951D01*
X40397295Y-19813697D01*
X42184600Y-21601002D01*
X42208399Y-21630001D01*
X42324124Y-21724974D01*
X42456153Y-21795546D01*
X42599414Y-21839003D01*
X42711067Y-21850000D01*
X42711076Y-21850000D01*
X42748399Y-21853676D01*
X42785722Y-21850000D01*
X47577326Y-21850000D01*
X47519463Y-21920506D01*
X47460498Y-22030820D01*
X47424188Y-22150518D01*
X47411928Y-22275000D01*
X47415000Y-22714250D01*
X47573750Y-22873000D01*
X48423000Y-22873000D01*
X48423000Y-22853000D01*
X48677000Y-22853000D01*
X48677000Y-22873000D01*
X48697000Y-22873000D01*
X48697000Y-23127000D01*
X48677000Y-23127000D01*
X48677000Y-24201250D01*
X48835750Y-24360000D01*
X48901934Y-24360949D01*
X48884897Y-24417115D01*
X48878632Y-24480726D01*
X48750303Y-24455200D01*
X48580897Y-24455200D01*
X48414747Y-24488249D01*
X48258237Y-24553078D01*
X48117382Y-24647195D01*
X47997595Y-24766982D01*
X47903478Y-24907837D01*
X47838649Y-25064347D01*
X47829806Y-25108803D01*
X47825241Y-25114367D01*
X47696255Y-25127071D01*
X47548418Y-25171916D01*
X47412171Y-25244742D01*
X47292749Y-25342749D01*
X47194742Y-25462171D01*
X47121916Y-25598418D01*
X47077071Y-25746255D01*
X47061928Y-25900000D01*
X47061928Y-26200000D01*
X47077071Y-26353745D01*
X47109266Y-26459881D01*
X47074188Y-26575518D01*
X47061928Y-26700000D01*
X47065000Y-26714250D01*
X47223750Y-26873000D01*
X47445364Y-26873000D01*
X47548418Y-26928084D01*
X47696255Y-26972929D01*
X47850000Y-26988072D01*
X48509500Y-26988072D01*
X48509500Y-27011928D01*
X47850000Y-27011928D01*
X47696255Y-27027071D01*
X47548418Y-27071916D01*
X47445364Y-27127000D01*
X47223750Y-27127000D01*
X47136678Y-27214072D01*
X47110000Y-27211444D01*
X47073895Y-27215000D01*
X46965915Y-27225635D01*
X46827367Y-27267663D01*
X46699680Y-27335913D01*
X46587762Y-27427762D01*
X46564741Y-27455813D01*
X46343054Y-27677500D01*
X45699569Y-27677500D01*
X45688405Y-27656613D01*
X45621724Y-27575363D01*
X45651185Y-27551185D01*
X45730537Y-27454494D01*
X45789502Y-27344180D01*
X45825812Y-27224482D01*
X45838072Y-27100000D01*
X45835000Y-26873250D01*
X45676250Y-26714500D01*
X44627000Y-26714500D01*
X44627000Y-26734500D01*
X44373000Y-26734500D01*
X44373000Y-26714500D01*
X43323750Y-26714500D01*
X43165000Y-26873250D01*
X43161928Y-27100000D01*
X43174188Y-27224482D01*
X43210498Y-27344180D01*
X43269463Y-27454494D01*
X43348815Y-27551185D01*
X43378276Y-27575363D01*
X43311595Y-27656613D01*
X43229528Y-27810149D01*
X43178992Y-27976745D01*
X43161928Y-28149999D01*
X43161928Y-28675001D01*
X43178992Y-28848255D01*
X43229528Y-29014851D01*
X43311595Y-29168387D01*
X43422038Y-29302962D01*
X43556613Y-29413405D01*
X43710149Y-29495472D01*
X43876745Y-29546008D01*
X44049999Y-29563072D01*
X44950001Y-29563072D01*
X45123255Y-29546008D01*
X45289851Y-29495472D01*
X45443387Y-29413405D01*
X45577962Y-29302962D01*
X45688405Y-29168387D01*
X45699569Y-29147500D01*
X46611395Y-29147500D01*
X46647500Y-29151056D01*
X46683605Y-29147500D01*
X46791585Y-29136865D01*
X46930133Y-29094837D01*
X47057820Y-29026587D01*
X47169738Y-28934738D01*
X47192759Y-28906687D01*
X47374832Y-28724614D01*
X47412171Y-28755258D01*
X47548418Y-28828084D01*
X47696255Y-28872929D01*
X47850000Y-28888072D01*
X48875000Y-28888072D01*
X49028745Y-28872929D01*
X49176582Y-28828084D01*
X49312829Y-28755258D01*
X49432251Y-28657251D01*
X49500000Y-28574699D01*
X49567749Y-28657251D01*
X49687171Y-28755258D01*
X49823418Y-28828084D01*
X49971255Y-28872929D01*
X50125000Y-28888072D01*
X51150000Y-28888072D01*
X51303745Y-28872929D01*
X51451582Y-28828084D01*
X51587829Y-28755258D01*
X51673439Y-28685000D01*
X53443895Y-28685000D01*
X53480000Y-28688556D01*
X53516105Y-28685000D01*
X53624085Y-28674365D01*
X53678386Y-28657893D01*
X53661928Y-28824999D01*
X53661928Y-29350001D01*
X53678992Y-29523255D01*
X53729528Y-29689851D01*
X53811595Y-29843387D01*
X53878276Y-29924637D01*
X53848815Y-29948815D01*
X53769463Y-30045506D01*
X53710498Y-30155820D01*
X53674188Y-30275518D01*
X53661928Y-30400000D01*
X53665000Y-30626750D01*
X53823750Y-30785500D01*
X54873000Y-30785500D01*
X54873000Y-30765500D01*
X55127000Y-30765500D01*
X55127000Y-30785500D01*
X55147000Y-30785500D01*
X55147000Y-31039500D01*
X55127000Y-31039500D01*
X55127000Y-31059500D01*
X54873000Y-31059500D01*
X54873000Y-31039500D01*
X53823750Y-31039500D01*
X53665000Y-31198250D01*
X53663999Y-31272100D01*
X45469323Y-31272100D01*
X45417518Y-31220295D01*
X45276663Y-31126178D01*
X45120153Y-31061349D01*
X44954003Y-31028300D01*
X44784597Y-31028300D01*
X44618447Y-31061349D01*
X44461937Y-31126178D01*
X44321082Y-31220295D01*
X44201295Y-31340082D01*
X44107178Y-31480937D01*
X44042349Y-31637447D01*
X44009300Y-31803597D01*
X44009300Y-31973003D01*
X44042349Y-32139153D01*
X44107178Y-32295663D01*
X44125608Y-32323245D01*
X40421200Y-36027654D01*
X40421200Y-26075000D01*
X43161928Y-26075000D01*
X43165000Y-26301750D01*
X43323750Y-26460500D01*
X44373000Y-26460500D01*
X44373000Y-25598750D01*
X44627000Y-25598750D01*
X44627000Y-26460500D01*
X45676250Y-26460500D01*
X45835000Y-26301750D01*
X45838072Y-26075000D01*
X45825812Y-25950518D01*
X45789502Y-25830820D01*
X45730537Y-25720506D01*
X45651185Y-25623815D01*
X45554494Y-25544463D01*
X45444180Y-25485498D01*
X45324482Y-25449188D01*
X45200000Y-25436928D01*
X44785750Y-25440000D01*
X44627000Y-25598750D01*
X44373000Y-25598750D01*
X44214250Y-25440000D01*
X43800000Y-25436928D01*
X43675518Y-25449188D01*
X43555820Y-25485498D01*
X43445506Y-25544463D01*
X43348815Y-25623815D01*
X43269463Y-25720506D01*
X43210498Y-25830820D01*
X43174188Y-25950518D01*
X43161928Y-26075000D01*
X40421200Y-26075000D01*
X40421200Y-23725000D01*
X47411928Y-23725000D01*
X47424188Y-23849482D01*
X47460498Y-23969180D01*
X47519463Y-24079494D01*
X47598815Y-24176185D01*
X47695506Y-24255537D01*
X47805820Y-24314502D01*
X47925518Y-24350812D01*
X48050000Y-24363072D01*
X48264250Y-24360000D01*
X48423000Y-24201250D01*
X48423000Y-23127000D01*
X47573750Y-23127000D01*
X47415000Y-23285750D01*
X47411928Y-23725000D01*
X40421200Y-23725000D01*
X40421200Y-21524104D01*
X40424756Y-21487999D01*
X40410565Y-21343914D01*
X40391237Y-21280200D01*
X40368537Y-21205367D01*
X40300287Y-21077680D01*
X40240366Y-21004667D01*
X40231453Y-20993806D01*
X40231450Y-20993803D01*
X40208437Y-20965762D01*
X40180397Y-20942750D01*
X38578619Y-19340973D01*
X38588072Y-19245000D01*
X38588072Y-19195000D01*
X39809124Y-19195000D01*
X39817449Y-19236853D01*
G04 #@! TA.AperFunction,Conductor*
D17*
G36*
X39817449Y-19236853D02*
G01*
X39882278Y-19393363D01*
X39976395Y-19534218D01*
X40096182Y-19654005D01*
X40237037Y-19748122D01*
X40393547Y-19812951D01*
X40397295Y-19813697D01*
X42184600Y-21601002D01*
X42208399Y-21630001D01*
X42324124Y-21724974D01*
X42456153Y-21795546D01*
X42599414Y-21839003D01*
X42711067Y-21850000D01*
X42711076Y-21850000D01*
X42748399Y-21853676D01*
X42785722Y-21850000D01*
X47577326Y-21850000D01*
X47519463Y-21920506D01*
X47460498Y-22030820D01*
X47424188Y-22150518D01*
X47411928Y-22275000D01*
X47415000Y-22714250D01*
X47573750Y-22873000D01*
X48423000Y-22873000D01*
X48423000Y-22853000D01*
X48677000Y-22853000D01*
X48677000Y-22873000D01*
X48697000Y-22873000D01*
X48697000Y-23127000D01*
X48677000Y-23127000D01*
X48677000Y-24201250D01*
X48835750Y-24360000D01*
X48901934Y-24360949D01*
X48884897Y-24417115D01*
X48878632Y-24480726D01*
X48750303Y-24455200D01*
X48580897Y-24455200D01*
X48414747Y-24488249D01*
X48258237Y-24553078D01*
X48117382Y-24647195D01*
X47997595Y-24766982D01*
X47903478Y-24907837D01*
X47838649Y-25064347D01*
X47829806Y-25108803D01*
X47825241Y-25114367D01*
X47696255Y-25127071D01*
X47548418Y-25171916D01*
X47412171Y-25244742D01*
X47292749Y-25342749D01*
X47194742Y-25462171D01*
X47121916Y-25598418D01*
X47077071Y-25746255D01*
X47061928Y-25900000D01*
X47061928Y-26200000D01*
X47077071Y-26353745D01*
X47109266Y-26459881D01*
X47074188Y-26575518D01*
X47061928Y-26700000D01*
X47065000Y-26714250D01*
X47223750Y-26873000D01*
X47445364Y-26873000D01*
X47548418Y-26928084D01*
X47696255Y-26972929D01*
X47850000Y-26988072D01*
X48509500Y-26988072D01*
X48509500Y-27011928D01*
X47850000Y-27011928D01*
X47696255Y-27027071D01*
X47548418Y-27071916D01*
X47445364Y-27127000D01*
X47223750Y-27127000D01*
X47136678Y-27214072D01*
X47110000Y-27211444D01*
X47073895Y-27215000D01*
X46965915Y-27225635D01*
X46827367Y-27267663D01*
X46699680Y-27335913D01*
X46587762Y-27427762D01*
X46564741Y-27455813D01*
X46343054Y-27677500D01*
X45699569Y-27677500D01*
X45688405Y-27656613D01*
X45621724Y-27575363D01*
X45651185Y-27551185D01*
X45730537Y-27454494D01*
X45789502Y-27344180D01*
X45825812Y-27224482D01*
X45838072Y-27100000D01*
X45835000Y-26873250D01*
X45676250Y-26714500D01*
X44627000Y-26714500D01*
X44627000Y-26734500D01*
X44373000Y-26734500D01*
X44373000Y-26714500D01*
X43323750Y-26714500D01*
X43165000Y-26873250D01*
X43161928Y-27100000D01*
X43174188Y-27224482D01*
X43210498Y-27344180D01*
X43269463Y-27454494D01*
X43348815Y-27551185D01*
X43378276Y-27575363D01*
X43311595Y-27656613D01*
X43229528Y-27810149D01*
X43178992Y-27976745D01*
X43161928Y-28149999D01*
X43161928Y-28675001D01*
X43178992Y-28848255D01*
X43229528Y-29014851D01*
X43311595Y-29168387D01*
X43422038Y-29302962D01*
X43556613Y-29413405D01*
X43710149Y-29495472D01*
X43876745Y-29546008D01*
X44049999Y-29563072D01*
X44950001Y-29563072D01*
X45123255Y-29546008D01*
X45289851Y-29495472D01*
X45443387Y-29413405D01*
X45577962Y-29302962D01*
X45688405Y-29168387D01*
X45699569Y-29147500D01*
X46611395Y-29147500D01*
X46647500Y-29151056D01*
X46683605Y-29147500D01*
X46791585Y-29136865D01*
X46930133Y-29094837D01*
X47057820Y-29026587D01*
X47169738Y-28934738D01*
X47192759Y-28906687D01*
X47374832Y-28724614D01*
X47412171Y-28755258D01*
X47548418Y-28828084D01*
X47696255Y-28872929D01*
X47850000Y-28888072D01*
X48875000Y-28888072D01*
X49028745Y-28872929D01*
X49176582Y-28828084D01*
X49312829Y-28755258D01*
X49432251Y-28657251D01*
X49500000Y-28574699D01*
X49567749Y-28657251D01*
X49687171Y-28755258D01*
X49823418Y-28828084D01*
X49971255Y-28872929D01*
X50125000Y-28888072D01*
X51150000Y-28888072D01*
X51303745Y-28872929D01*
X51451582Y-28828084D01*
X51587829Y-28755258D01*
X51673439Y-28685000D01*
X53443895Y-28685000D01*
X53480000Y-28688556D01*
X53516105Y-28685000D01*
X53624085Y-28674365D01*
X53678386Y-28657893D01*
X53661928Y-28824999D01*
X53661928Y-29350001D01*
X53678992Y-29523255D01*
X53729528Y-29689851D01*
X53811595Y-29843387D01*
X53878276Y-29924637D01*
X53848815Y-29948815D01*
X53769463Y-30045506D01*
X53710498Y-30155820D01*
X53674188Y-30275518D01*
X53661928Y-30400000D01*
X53665000Y-30626750D01*
X53823750Y-30785500D01*
X54873000Y-30785500D01*
X54873000Y-30765500D01*
X55127000Y-30765500D01*
X55127000Y-30785500D01*
X55147000Y-30785500D01*
X55147000Y-31039500D01*
X55127000Y-31039500D01*
X55127000Y-31059500D01*
X54873000Y-31059500D01*
X54873000Y-31039500D01*
X53823750Y-31039500D01*
X53665000Y-31198250D01*
X53663999Y-31272100D01*
X45469323Y-31272100D01*
X45417518Y-31220295D01*
X45276663Y-31126178D01*
X45120153Y-31061349D01*
X44954003Y-31028300D01*
X44784597Y-31028300D01*
X44618447Y-31061349D01*
X44461937Y-31126178D01*
X44321082Y-31220295D01*
X44201295Y-31340082D01*
X44107178Y-31480937D01*
X44042349Y-31637447D01*
X44009300Y-31803597D01*
X44009300Y-31973003D01*
X44042349Y-32139153D01*
X44107178Y-32295663D01*
X44125608Y-32323245D01*
X40421200Y-36027654D01*
X40421200Y-26075000D01*
X43161928Y-26075000D01*
X43165000Y-26301750D01*
X43323750Y-26460500D01*
X44373000Y-26460500D01*
X44373000Y-25598750D01*
X44627000Y-25598750D01*
X44627000Y-26460500D01*
X45676250Y-26460500D01*
X45835000Y-26301750D01*
X45838072Y-26075000D01*
X45825812Y-25950518D01*
X45789502Y-25830820D01*
X45730537Y-25720506D01*
X45651185Y-25623815D01*
X45554494Y-25544463D01*
X45444180Y-25485498D01*
X45324482Y-25449188D01*
X45200000Y-25436928D01*
X44785750Y-25440000D01*
X44627000Y-25598750D01*
X44373000Y-25598750D01*
X44214250Y-25440000D01*
X43800000Y-25436928D01*
X43675518Y-25449188D01*
X43555820Y-25485498D01*
X43445506Y-25544463D01*
X43348815Y-25623815D01*
X43269463Y-25720506D01*
X43210498Y-25830820D01*
X43174188Y-25950518D01*
X43161928Y-26075000D01*
X40421200Y-26075000D01*
X40421200Y-23725000D01*
X47411928Y-23725000D01*
X47424188Y-23849482D01*
X47460498Y-23969180D01*
X47519463Y-24079494D01*
X47598815Y-24176185D01*
X47695506Y-24255537D01*
X47805820Y-24314502D01*
X47925518Y-24350812D01*
X48050000Y-24363072D01*
X48264250Y-24360000D01*
X48423000Y-24201250D01*
X48423000Y-23127000D01*
X47573750Y-23127000D01*
X47415000Y-23285750D01*
X47411928Y-23725000D01*
X40421200Y-23725000D01*
X40421200Y-21524104D01*
X40424756Y-21487999D01*
X40410565Y-21343914D01*
X40391237Y-21280200D01*
X40368537Y-21205367D01*
X40300287Y-21077680D01*
X40240366Y-21004667D01*
X40231453Y-20993806D01*
X40231450Y-20993803D01*
X40208437Y-20965762D01*
X40180397Y-20942750D01*
X38578619Y-19340973D01*
X38588072Y-19245000D01*
X38588072Y-19195000D01*
X39809124Y-19195000D01*
X39817449Y-19236853D01*
G37*
G04 #@! TD.AperFunction*
D16*
X30471916Y-24993418D02*
X30427071Y-25141255D01*
X30411928Y-25295000D01*
X30411928Y-25595000D01*
X30427071Y-25748745D01*
X30471916Y-25896582D01*
X30544742Y-26032829D01*
X30637224Y-26145519D01*
X30550000Y-26136928D01*
X30335750Y-26140000D01*
X30177000Y-26298750D01*
X30177000Y-27373000D01*
X30197000Y-27373000D01*
X30197000Y-27627000D01*
X30177000Y-27627000D01*
X30177000Y-28701250D01*
X30335750Y-28860000D01*
X30550000Y-28863072D01*
X30674482Y-28850812D01*
X30794180Y-28814502D01*
X30904494Y-28755537D01*
X31001185Y-28676185D01*
X31066658Y-28596406D01*
X31072038Y-28602962D01*
X31190000Y-28699771D01*
X31190001Y-30422697D01*
X30000771Y-31611928D01*
X29625000Y-31611928D01*
X29471255Y-31627071D01*
X29323418Y-31671916D01*
X29187171Y-31744742D01*
X29067749Y-31842749D01*
X29000000Y-31925301D01*
X28932251Y-31842749D01*
X28812829Y-31744742D01*
X28676582Y-31671916D01*
X28528745Y-31627071D01*
X28375000Y-31611928D01*
X27350000Y-31611928D01*
X27196255Y-31627071D01*
X27066023Y-31666576D01*
X23624447Y-28225000D01*
X28911928Y-28225000D01*
X28924188Y-28349482D01*
X28960498Y-28469180D01*
X29019463Y-28579494D01*
X29098815Y-28676185D01*
X29195506Y-28755537D01*
X29305820Y-28814502D01*
X29425518Y-28850812D01*
X29550000Y-28863072D01*
X29764250Y-28860000D01*
X29923000Y-28701250D01*
X29923000Y-27627000D01*
X29073750Y-27627000D01*
X28915000Y-27785750D01*
X28911928Y-28225000D01*
X23624447Y-28225000D01*
X23076800Y-27677354D01*
X23076800Y-26699861D01*
X23167867Y-26748537D01*
X23306415Y-26790565D01*
X23414395Y-26801200D01*
X23414404Y-26801200D01*
X23450499Y-26804755D01*
X23486594Y-26801200D01*
X26059995Y-26801200D01*
X26096100Y-26804756D01*
X26132205Y-26801200D01*
X26240185Y-26790565D01*
X26291496Y-26775000D01*
X28911928Y-26775000D01*
X28915000Y-27214250D01*
X29073750Y-27373000D01*
X29923000Y-27373000D01*
X29923000Y-26298750D01*
X29764250Y-26140000D01*
X29550000Y-26136928D01*
X29425518Y-26149188D01*
X29305820Y-26185498D01*
X29195506Y-26244463D01*
X29098815Y-26323815D01*
X29019463Y-26420506D01*
X28960498Y-26530820D01*
X28924188Y-26650518D01*
X28911928Y-26775000D01*
X26291496Y-26775000D01*
X26378733Y-26748537D01*
X26506420Y-26680287D01*
X26618338Y-26588438D01*
X26641358Y-26560388D01*
X28291747Y-24910000D01*
X30516504Y-24910000D01*
X30471916Y-24993418D01*
G04 #@! TA.AperFunction,Conductor*
D17*
G36*
X30471916Y-24993418D02*
G01*
X30427071Y-25141255D01*
X30411928Y-25295000D01*
X30411928Y-25595000D01*
X30427071Y-25748745D01*
X30471916Y-25896582D01*
X30544742Y-26032829D01*
X30637224Y-26145519D01*
X30550000Y-26136928D01*
X30335750Y-26140000D01*
X30177000Y-26298750D01*
X30177000Y-27373000D01*
X30197000Y-27373000D01*
X30197000Y-27627000D01*
X30177000Y-27627000D01*
X30177000Y-28701250D01*
X30335750Y-28860000D01*
X30550000Y-28863072D01*
X30674482Y-28850812D01*
X30794180Y-28814502D01*
X30904494Y-28755537D01*
X31001185Y-28676185D01*
X31066658Y-28596406D01*
X31072038Y-28602962D01*
X31190000Y-28699771D01*
X31190001Y-30422697D01*
X30000771Y-31611928D01*
X29625000Y-31611928D01*
X29471255Y-31627071D01*
X29323418Y-31671916D01*
X29187171Y-31744742D01*
X29067749Y-31842749D01*
X29000000Y-31925301D01*
X28932251Y-31842749D01*
X28812829Y-31744742D01*
X28676582Y-31671916D01*
X28528745Y-31627071D01*
X28375000Y-31611928D01*
X27350000Y-31611928D01*
X27196255Y-31627071D01*
X27066023Y-31666576D01*
X23624447Y-28225000D01*
X28911928Y-28225000D01*
X28924188Y-28349482D01*
X28960498Y-28469180D01*
X29019463Y-28579494D01*
X29098815Y-28676185D01*
X29195506Y-28755537D01*
X29305820Y-28814502D01*
X29425518Y-28850812D01*
X29550000Y-28863072D01*
X29764250Y-28860000D01*
X29923000Y-28701250D01*
X29923000Y-27627000D01*
X29073750Y-27627000D01*
X28915000Y-27785750D01*
X28911928Y-28225000D01*
X23624447Y-28225000D01*
X23076800Y-27677354D01*
X23076800Y-26699861D01*
X23167867Y-26748537D01*
X23306415Y-26790565D01*
X23414395Y-26801200D01*
X23414404Y-26801200D01*
X23450499Y-26804755D01*
X23486594Y-26801200D01*
X26059995Y-26801200D01*
X26096100Y-26804756D01*
X26132205Y-26801200D01*
X26240185Y-26790565D01*
X26291496Y-26775000D01*
X28911928Y-26775000D01*
X28915000Y-27214250D01*
X29073750Y-27373000D01*
X29923000Y-27373000D01*
X29923000Y-26298750D01*
X29764250Y-26140000D01*
X29550000Y-26136928D01*
X29425518Y-26149188D01*
X29305820Y-26185498D01*
X29195506Y-26244463D01*
X29098815Y-26323815D01*
X29019463Y-26420506D01*
X28960498Y-26530820D01*
X28924188Y-26650518D01*
X28911928Y-26775000D01*
X26291496Y-26775000D01*
X26378733Y-26748537D01*
X26506420Y-26680287D01*
X26618338Y-26588438D01*
X26641358Y-26560388D01*
X28291747Y-24910000D01*
X30516504Y-24910000D01*
X30471916Y-24993418D01*
G37*
G04 #@! TD.AperFunction*
D16*
X73611928Y-19999230D02*
X73611928Y-20375000D01*
X73627071Y-20528745D01*
X73671916Y-20676582D01*
X73744742Y-20812829D01*
X73842749Y-20932251D01*
X73925301Y-21000000D01*
X73842749Y-21067749D01*
X73744742Y-21187171D01*
X73671916Y-21323418D01*
X73637991Y-21435256D01*
X73572366Y-21455163D01*
X73531526Y-21476993D01*
X73444680Y-21523413D01*
X73332762Y-21615262D01*
X73315075Y-21636814D01*
X73268647Y-21646049D01*
X73112137Y-21710878D01*
X72971282Y-21804995D01*
X72851495Y-21924782D01*
X72757378Y-22065637D01*
X72692549Y-22222147D01*
X72659500Y-22388297D01*
X72659500Y-22557703D01*
X72692549Y-22723853D01*
X72757378Y-22880363D01*
X72851495Y-23021218D01*
X72971282Y-23141005D01*
X73112137Y-23235122D01*
X73268647Y-23299951D01*
X73434797Y-23333000D01*
X73604203Y-23333000D01*
X73770353Y-23299951D01*
X73893533Y-23248928D01*
X73962171Y-23305258D01*
X74098418Y-23378084D01*
X74246255Y-23422929D01*
X74400000Y-23438072D01*
X74700000Y-23438072D01*
X74853745Y-23422929D01*
X75001582Y-23378084D01*
X75025000Y-23365567D01*
X75048418Y-23378084D01*
X75196255Y-23422929D01*
X75350000Y-23438072D01*
X75650000Y-23438072D01*
X75803745Y-23422929D01*
X75909881Y-23390734D01*
X76025518Y-23425812D01*
X76150000Y-23438072D01*
X76164250Y-23435000D01*
X76323000Y-23276250D01*
X76323000Y-23054636D01*
X76378084Y-22951582D01*
X76422929Y-22803745D01*
X76438072Y-22650000D01*
X76438072Y-22264500D01*
X76577000Y-22264500D01*
X76577000Y-23276250D01*
X76735750Y-23435000D01*
X76750000Y-23438072D01*
X76874482Y-23425812D01*
X76994180Y-23389502D01*
X77104494Y-23330537D01*
X77201185Y-23251185D01*
X77280537Y-23154494D01*
X77339502Y-23044180D01*
X77375812Y-22924482D01*
X77388072Y-22800000D01*
X77385000Y-22423250D01*
X77226250Y-22264500D01*
X76577000Y-22264500D01*
X76438072Y-22264500D01*
X76438072Y-21990500D01*
X76577000Y-21990500D01*
X76577000Y-22010500D01*
X77226250Y-22010500D01*
X77385000Y-21851750D01*
X77388072Y-21475000D01*
X77375812Y-21350518D01*
X77339502Y-21230820D01*
X77280537Y-21120506D01*
X77201185Y-21023815D01*
X77123432Y-20960005D01*
X77157251Y-20932251D01*
X77255258Y-20812829D01*
X77328084Y-20676582D01*
X77352073Y-20597500D01*
X79393544Y-20597500D01*
X79474680Y-20664087D01*
X79574960Y-20717688D01*
X79561928Y-20850000D01*
X79561928Y-21150000D01*
X79577071Y-21303745D01*
X79609266Y-21409881D01*
X79574188Y-21525518D01*
X79561928Y-21650000D01*
X79565000Y-21664250D01*
X79723750Y-21823000D01*
X79945364Y-21823000D01*
X80048418Y-21878084D01*
X80196255Y-21922929D01*
X80350000Y-21938072D01*
X81009500Y-21938072D01*
X81009500Y-22077000D01*
X80989500Y-22077000D01*
X80989500Y-22097000D01*
X80735500Y-22097000D01*
X80735500Y-22077000D01*
X79723750Y-22077000D01*
X79565000Y-22235750D01*
X79561928Y-22250000D01*
X79574188Y-22374482D01*
X79610498Y-22494180D01*
X79669463Y-22604494D01*
X79748815Y-22701185D01*
X79845506Y-22780537D01*
X79955820Y-22839502D01*
X80075518Y-22875812D01*
X80200000Y-22888072D01*
X80259668Y-22887585D01*
X72021379Y-31125875D01*
X72001522Y-31077937D01*
X71907405Y-30937082D01*
X71787618Y-30817295D01*
X71646763Y-30723178D01*
X71490253Y-30658349D01*
X71324103Y-30625300D01*
X71308647Y-30625300D01*
X66785000Y-26101654D01*
X66785000Y-23431670D01*
X66850000Y-23438072D01*
X67150000Y-23438072D01*
X67303745Y-23422929D01*
X67409881Y-23390734D01*
X67525518Y-23425812D01*
X67650000Y-23438072D01*
X67664250Y-23435000D01*
X67823000Y-23276250D01*
X67823000Y-23054636D01*
X67878084Y-22951582D01*
X67922929Y-22803745D01*
X67938072Y-22650000D01*
X67938072Y-22264500D01*
X68077000Y-22264500D01*
X68077000Y-23276250D01*
X68235750Y-23435000D01*
X68250000Y-23438072D01*
X68374482Y-23425812D01*
X68494180Y-23389502D01*
X68604494Y-23330537D01*
X68701185Y-23251185D01*
X68780537Y-23154494D01*
X68839502Y-23044180D01*
X68875812Y-22924482D01*
X68888072Y-22800000D01*
X68885000Y-22423250D01*
X68726250Y-22264500D01*
X68077000Y-22264500D01*
X67938072Y-22264500D01*
X67938072Y-21990500D01*
X68077000Y-21990500D01*
X68077000Y-22010500D01*
X68726250Y-22010500D01*
X68885000Y-21851750D01*
X68886814Y-21629335D01*
X68947520Y-21596887D01*
X69059438Y-21505038D01*
X69082458Y-21476988D01*
X70310693Y-20248754D01*
X70338738Y-20225738D01*
X70430587Y-20113820D01*
X70498837Y-19986133D01*
X70520095Y-19916054D01*
X70578622Y-19828463D01*
X70643451Y-19671953D01*
X70658499Y-19596300D01*
X73208999Y-19596300D01*
X73611928Y-19999230D01*
G04 #@! TA.AperFunction,Conductor*
D17*
G36*
X73611928Y-19999230D02*
G01*
X73611928Y-20375000D01*
X73627071Y-20528745D01*
X73671916Y-20676582D01*
X73744742Y-20812829D01*
X73842749Y-20932251D01*
X73925301Y-21000000D01*
X73842749Y-21067749D01*
X73744742Y-21187171D01*
X73671916Y-21323418D01*
X73637991Y-21435256D01*
X73572366Y-21455163D01*
X73531526Y-21476993D01*
X73444680Y-21523413D01*
X73332762Y-21615262D01*
X73315075Y-21636814D01*
X73268647Y-21646049D01*
X73112137Y-21710878D01*
X72971282Y-21804995D01*
X72851495Y-21924782D01*
X72757378Y-22065637D01*
X72692549Y-22222147D01*
X72659500Y-22388297D01*
X72659500Y-22557703D01*
X72692549Y-22723853D01*
X72757378Y-22880363D01*
X72851495Y-23021218D01*
X72971282Y-23141005D01*
X73112137Y-23235122D01*
X73268647Y-23299951D01*
X73434797Y-23333000D01*
X73604203Y-23333000D01*
X73770353Y-23299951D01*
X73893533Y-23248928D01*
X73962171Y-23305258D01*
X74098418Y-23378084D01*
X74246255Y-23422929D01*
X74400000Y-23438072D01*
X74700000Y-23438072D01*
X74853745Y-23422929D01*
X75001582Y-23378084D01*
X75025000Y-23365567D01*
X75048418Y-23378084D01*
X75196255Y-23422929D01*
X75350000Y-23438072D01*
X75650000Y-23438072D01*
X75803745Y-23422929D01*
X75909881Y-23390734D01*
X76025518Y-23425812D01*
X76150000Y-23438072D01*
X76164250Y-23435000D01*
X76323000Y-23276250D01*
X76323000Y-23054636D01*
X76378084Y-22951582D01*
X76422929Y-22803745D01*
X76438072Y-22650000D01*
X76438072Y-22264500D01*
X76577000Y-22264500D01*
X76577000Y-23276250D01*
X76735750Y-23435000D01*
X76750000Y-23438072D01*
X76874482Y-23425812D01*
X76994180Y-23389502D01*
X77104494Y-23330537D01*
X77201185Y-23251185D01*
X77280537Y-23154494D01*
X77339502Y-23044180D01*
X77375812Y-22924482D01*
X77388072Y-22800000D01*
X77385000Y-22423250D01*
X77226250Y-22264500D01*
X76577000Y-22264500D01*
X76438072Y-22264500D01*
X76438072Y-21990500D01*
X76577000Y-21990500D01*
X76577000Y-22010500D01*
X77226250Y-22010500D01*
X77385000Y-21851750D01*
X77388072Y-21475000D01*
X77375812Y-21350518D01*
X77339502Y-21230820D01*
X77280537Y-21120506D01*
X77201185Y-21023815D01*
X77123432Y-20960005D01*
X77157251Y-20932251D01*
X77255258Y-20812829D01*
X77328084Y-20676582D01*
X77352073Y-20597500D01*
X79393544Y-20597500D01*
X79474680Y-20664087D01*
X79574960Y-20717688D01*
X79561928Y-20850000D01*
X79561928Y-21150000D01*
X79577071Y-21303745D01*
X79609266Y-21409881D01*
X79574188Y-21525518D01*
X79561928Y-21650000D01*
X79565000Y-21664250D01*
X79723750Y-21823000D01*
X79945364Y-21823000D01*
X80048418Y-21878084D01*
X80196255Y-21922929D01*
X80350000Y-21938072D01*
X81009500Y-21938072D01*
X81009500Y-22077000D01*
X80989500Y-22077000D01*
X80989500Y-22097000D01*
X80735500Y-22097000D01*
X80735500Y-22077000D01*
X79723750Y-22077000D01*
X79565000Y-22235750D01*
X79561928Y-22250000D01*
X79574188Y-22374482D01*
X79610498Y-22494180D01*
X79669463Y-22604494D01*
X79748815Y-22701185D01*
X79845506Y-22780537D01*
X79955820Y-22839502D01*
X80075518Y-22875812D01*
X80200000Y-22888072D01*
X80259668Y-22887585D01*
X72021379Y-31125875D01*
X72001522Y-31077937D01*
X71907405Y-30937082D01*
X71787618Y-30817295D01*
X71646763Y-30723178D01*
X71490253Y-30658349D01*
X71324103Y-30625300D01*
X71308647Y-30625300D01*
X66785000Y-26101654D01*
X66785000Y-23431670D01*
X66850000Y-23438072D01*
X67150000Y-23438072D01*
X67303745Y-23422929D01*
X67409881Y-23390734D01*
X67525518Y-23425812D01*
X67650000Y-23438072D01*
X67664250Y-23435000D01*
X67823000Y-23276250D01*
X67823000Y-23054636D01*
X67878084Y-22951582D01*
X67922929Y-22803745D01*
X67938072Y-22650000D01*
X67938072Y-22264500D01*
X68077000Y-22264500D01*
X68077000Y-23276250D01*
X68235750Y-23435000D01*
X68250000Y-23438072D01*
X68374482Y-23425812D01*
X68494180Y-23389502D01*
X68604494Y-23330537D01*
X68701185Y-23251185D01*
X68780537Y-23154494D01*
X68839502Y-23044180D01*
X68875812Y-22924482D01*
X68888072Y-22800000D01*
X68885000Y-22423250D01*
X68726250Y-22264500D01*
X68077000Y-22264500D01*
X67938072Y-22264500D01*
X67938072Y-21990500D01*
X68077000Y-21990500D01*
X68077000Y-22010500D01*
X68726250Y-22010500D01*
X68885000Y-21851750D01*
X68886814Y-21629335D01*
X68947520Y-21596887D01*
X69059438Y-21505038D01*
X69082458Y-21476988D01*
X70310693Y-20248754D01*
X70338738Y-20225738D01*
X70430587Y-20113820D01*
X70498837Y-19986133D01*
X70520095Y-19916054D01*
X70578622Y-19828463D01*
X70643451Y-19671953D01*
X70658499Y-19596300D01*
X73208999Y-19596300D01*
X73611928Y-19999230D01*
G37*
G04 #@! TD.AperFunction*
D16*
X73256854Y-18076300D02*
X67113523Y-18076300D01*
X67076200Y-18072624D01*
X67038877Y-18076300D01*
X67038867Y-18076300D01*
X66927214Y-18087297D01*
X66799625Y-18126000D01*
X66783953Y-18130754D01*
X66651923Y-18201326D01*
X66583779Y-18257251D01*
X66536199Y-18296299D01*
X66512401Y-18325297D01*
X66268976Y-18568722D01*
X66200000Y-18561928D01*
X65900000Y-18561928D01*
X65746255Y-18577071D01*
X65598418Y-18621916D01*
X65462171Y-18694742D01*
X65342749Y-18792749D01*
X65244742Y-18912171D01*
X65171916Y-19048418D01*
X65127071Y-19196255D01*
X65111928Y-19350000D01*
X65111928Y-19725770D01*
X62325998Y-22511701D01*
X62297000Y-22535499D01*
X62273202Y-22564497D01*
X62273201Y-22564498D01*
X62202026Y-22651224D01*
X62131454Y-22783254D01*
X62101180Y-22883058D01*
X62087998Y-22926514D01*
X62078539Y-23022553D01*
X62073324Y-23075500D01*
X62077001Y-23112832D01*
X62077001Y-23786500D01*
X56165822Y-23786500D01*
X56128499Y-23782824D01*
X56091498Y-23786468D01*
X56188405Y-23668387D01*
X56270472Y-23514851D01*
X56321008Y-23348255D01*
X56338072Y-23175001D01*
X56338072Y-22649999D01*
X56321008Y-22476745D01*
X56270472Y-22310149D01*
X56188405Y-22156613D01*
X56121724Y-22075363D01*
X56151185Y-22051185D01*
X56230537Y-21954494D01*
X56289502Y-21844180D01*
X56325812Y-21724482D01*
X56338072Y-21600000D01*
X56335000Y-21373250D01*
X56176250Y-21214500D01*
X55127000Y-21214500D01*
X55127000Y-21234500D01*
X54873000Y-21234500D01*
X54873000Y-21214500D01*
X53823750Y-21214500D01*
X53665000Y-21373250D01*
X53661928Y-21600000D01*
X53674188Y-21724482D01*
X53710498Y-21844180D01*
X53769463Y-21954494D01*
X53848815Y-22051185D01*
X53878276Y-22075363D01*
X53811595Y-22156613D01*
X53800431Y-22177500D01*
X52170247Y-22177500D01*
X50567747Y-20575000D01*
X53661928Y-20575000D01*
X53665000Y-20801750D01*
X53823750Y-20960500D01*
X54873000Y-20960500D01*
X54873000Y-20098750D01*
X55127000Y-20098750D01*
X55127000Y-20960500D01*
X56176250Y-20960500D01*
X56335000Y-20801750D01*
X56338072Y-20575000D01*
X56325812Y-20450518D01*
X56289502Y-20330820D01*
X56230537Y-20220506D01*
X56151185Y-20123815D01*
X56054494Y-20044463D01*
X55944180Y-19985498D01*
X55824482Y-19949188D01*
X55700000Y-19936928D01*
X55285750Y-19940000D01*
X55127000Y-20098750D01*
X54873000Y-20098750D01*
X54714250Y-19940000D01*
X54300000Y-19936928D01*
X54175518Y-19949188D01*
X54055820Y-19985498D01*
X53945506Y-20044463D01*
X53848815Y-20123815D01*
X53769463Y-20220506D01*
X53710498Y-20330820D01*
X53674188Y-20450518D01*
X53661928Y-20575000D01*
X50567747Y-20575000D01*
X50527746Y-20535000D01*
X50924895Y-20535000D01*
X50961000Y-20538556D01*
X50997105Y-20535000D01*
X51105085Y-20524365D01*
X51243633Y-20482337D01*
X51371320Y-20414087D01*
X51483238Y-20322238D01*
X51506259Y-20294188D01*
X53760945Y-18039502D01*
X53823748Y-18039502D01*
X53665000Y-18198250D01*
X53661928Y-18425000D01*
X53674188Y-18549482D01*
X53710498Y-18669180D01*
X53769463Y-18779494D01*
X53848815Y-18876185D01*
X53945506Y-18955537D01*
X54055820Y-19014502D01*
X54175518Y-19050812D01*
X54300000Y-19063072D01*
X54714250Y-19060000D01*
X54873000Y-18901250D01*
X54873000Y-18039500D01*
X55127000Y-18039500D01*
X55127000Y-18901250D01*
X55285750Y-19060000D01*
X55700000Y-19063072D01*
X55824482Y-19050812D01*
X55944180Y-19014502D01*
X56054494Y-18955537D01*
X56151185Y-18876185D01*
X56230537Y-18779494D01*
X56289502Y-18669180D01*
X56325812Y-18549482D01*
X56338072Y-18425000D01*
X56335000Y-18198250D01*
X56176250Y-18039500D01*
X55127000Y-18039500D01*
X54873000Y-18039500D01*
X54853000Y-18039500D01*
X54853000Y-17815500D01*
X72996054Y-17815500D01*
X73256854Y-18076300D01*
G04 #@! TA.AperFunction,Conductor*
D17*
G36*
X73256854Y-18076300D02*
G01*
X67113523Y-18076300D01*
X67076200Y-18072624D01*
X67038877Y-18076300D01*
X67038867Y-18076300D01*
X66927214Y-18087297D01*
X66799625Y-18126000D01*
X66783953Y-18130754D01*
X66651923Y-18201326D01*
X66583779Y-18257251D01*
X66536199Y-18296299D01*
X66512401Y-18325297D01*
X66268976Y-18568722D01*
X66200000Y-18561928D01*
X65900000Y-18561928D01*
X65746255Y-18577071D01*
X65598418Y-18621916D01*
X65462171Y-18694742D01*
X65342749Y-18792749D01*
X65244742Y-18912171D01*
X65171916Y-19048418D01*
X65127071Y-19196255D01*
X65111928Y-19350000D01*
X65111928Y-19725770D01*
X62325998Y-22511701D01*
X62297000Y-22535499D01*
X62273202Y-22564497D01*
X62273201Y-22564498D01*
X62202026Y-22651224D01*
X62131454Y-22783254D01*
X62101180Y-22883058D01*
X62087998Y-22926514D01*
X62078539Y-23022553D01*
X62073324Y-23075500D01*
X62077001Y-23112832D01*
X62077001Y-23786500D01*
X56165822Y-23786500D01*
X56128499Y-23782824D01*
X56091498Y-23786468D01*
X56188405Y-23668387D01*
X56270472Y-23514851D01*
X56321008Y-23348255D01*
X56338072Y-23175001D01*
X56338072Y-22649999D01*
X56321008Y-22476745D01*
X56270472Y-22310149D01*
X56188405Y-22156613D01*
X56121724Y-22075363D01*
X56151185Y-22051185D01*
X56230537Y-21954494D01*
X56289502Y-21844180D01*
X56325812Y-21724482D01*
X56338072Y-21600000D01*
X56335000Y-21373250D01*
X56176250Y-21214500D01*
X55127000Y-21214500D01*
X55127000Y-21234500D01*
X54873000Y-21234500D01*
X54873000Y-21214500D01*
X53823750Y-21214500D01*
X53665000Y-21373250D01*
X53661928Y-21600000D01*
X53674188Y-21724482D01*
X53710498Y-21844180D01*
X53769463Y-21954494D01*
X53848815Y-22051185D01*
X53878276Y-22075363D01*
X53811595Y-22156613D01*
X53800431Y-22177500D01*
X52170247Y-22177500D01*
X50567747Y-20575000D01*
X53661928Y-20575000D01*
X53665000Y-20801750D01*
X53823750Y-20960500D01*
X54873000Y-20960500D01*
X54873000Y-20098750D01*
X55127000Y-20098750D01*
X55127000Y-20960500D01*
X56176250Y-20960500D01*
X56335000Y-20801750D01*
X56338072Y-20575000D01*
X56325812Y-20450518D01*
X56289502Y-20330820D01*
X56230537Y-20220506D01*
X56151185Y-20123815D01*
X56054494Y-20044463D01*
X55944180Y-19985498D01*
X55824482Y-19949188D01*
X55700000Y-19936928D01*
X55285750Y-19940000D01*
X55127000Y-20098750D01*
X54873000Y-20098750D01*
X54714250Y-19940000D01*
X54300000Y-19936928D01*
X54175518Y-19949188D01*
X54055820Y-19985498D01*
X53945506Y-20044463D01*
X53848815Y-20123815D01*
X53769463Y-20220506D01*
X53710498Y-20330820D01*
X53674188Y-20450518D01*
X53661928Y-20575000D01*
X50567747Y-20575000D01*
X50527746Y-20535000D01*
X50924895Y-20535000D01*
X50961000Y-20538556D01*
X50997105Y-20535000D01*
X51105085Y-20524365D01*
X51243633Y-20482337D01*
X51371320Y-20414087D01*
X51483238Y-20322238D01*
X51506259Y-20294188D01*
X53760945Y-18039502D01*
X53823748Y-18039502D01*
X53665000Y-18198250D01*
X53661928Y-18425000D01*
X53674188Y-18549482D01*
X53710498Y-18669180D01*
X53769463Y-18779494D01*
X53848815Y-18876185D01*
X53945506Y-18955537D01*
X54055820Y-19014502D01*
X54175518Y-19050812D01*
X54300000Y-19063072D01*
X54714250Y-19060000D01*
X54873000Y-18901250D01*
X54873000Y-18039500D01*
X55127000Y-18039500D01*
X55127000Y-18901250D01*
X55285750Y-19060000D01*
X55700000Y-19063072D01*
X55824482Y-19050812D01*
X55944180Y-19014502D01*
X56054494Y-18955537D01*
X56151185Y-18876185D01*
X56230537Y-18779494D01*
X56289502Y-18669180D01*
X56325812Y-18549482D01*
X56338072Y-18425000D01*
X56335000Y-18198250D01*
X56176250Y-18039500D01*
X55127000Y-18039500D01*
X54873000Y-18039500D01*
X54853000Y-18039500D01*
X54853000Y-17815500D01*
X72996054Y-17815500D01*
X73256854Y-18076300D01*
G37*
G04 #@! TD.AperFunction*
D16*
X29080408Y-16875746D02*
X29052363Y-16898762D01*
X28960514Y-17010680D01*
X28915444Y-17095001D01*
X28892264Y-17138367D01*
X28850235Y-17276915D01*
X28836044Y-17421000D01*
X28839601Y-17457115D01*
X28839600Y-18446146D01*
X28812478Y-18486737D01*
X28747649Y-18643247D01*
X28738125Y-18691128D01*
X26687208Y-20742046D01*
X26659163Y-20765062D01*
X26567314Y-20876980D01*
X26512737Y-20979086D01*
X26499064Y-21004667D01*
X26457035Y-21143215D01*
X26442844Y-21287300D01*
X26446400Y-21323405D01*
X26446400Y-21692246D01*
X26419278Y-21732837D01*
X26354449Y-21889347D01*
X26344925Y-21937228D01*
X26074033Y-22208121D01*
X26089502Y-22179180D01*
X26125812Y-22059482D01*
X26138072Y-21935000D01*
X26135000Y-21920750D01*
X25976250Y-21762000D01*
X24627000Y-21762000D01*
X24627000Y-22778000D01*
X24647000Y-22778000D01*
X24647000Y-22819100D01*
X23547705Y-22819100D01*
X23511600Y-22815544D01*
X23475495Y-22819100D01*
X23367515Y-22829735D01*
X23228967Y-22871763D01*
X23101280Y-22940013D01*
X22989362Y-23031862D01*
X22966341Y-23059913D01*
X22697508Y-23328746D01*
X22669463Y-23351762D01*
X22651498Y-23373652D01*
X21212846Y-21935000D01*
X22861928Y-21935000D01*
X22874188Y-22059482D01*
X22910498Y-22179180D01*
X22959043Y-22270000D01*
X22910498Y-22360820D01*
X22874188Y-22480518D01*
X22861928Y-22605000D01*
X22865000Y-22619250D01*
X23023750Y-22778000D01*
X24373000Y-22778000D01*
X24373000Y-21762000D01*
X23023750Y-21762000D01*
X22865000Y-21920750D01*
X22861928Y-21935000D01*
X21212846Y-21935000D01*
X21131327Y-21853481D01*
X21138072Y-21785000D01*
X21138072Y-21485000D01*
X21122929Y-21331255D01*
X21078084Y-21183418D01*
X21005258Y-21047171D01*
X20966546Y-21000000D01*
X21005258Y-20952829D01*
X21078084Y-20816582D01*
X21122929Y-20668745D01*
X21123297Y-20665000D01*
X22861928Y-20665000D01*
X22874188Y-20789482D01*
X22910498Y-20909180D01*
X22959043Y-21000000D01*
X22910498Y-21090820D01*
X22874188Y-21210518D01*
X22861928Y-21335000D01*
X22865000Y-21349250D01*
X23023750Y-21508000D01*
X24373000Y-21508000D01*
X24373000Y-20492000D01*
X24627000Y-20492000D01*
X24627000Y-21508000D01*
X25976250Y-21508000D01*
X26135000Y-21349250D01*
X26138072Y-21335000D01*
X26125812Y-21210518D01*
X26089502Y-21090820D01*
X26040957Y-21000000D01*
X26089502Y-20909180D01*
X26125812Y-20789482D01*
X26138072Y-20665000D01*
X26135000Y-20650750D01*
X25976250Y-20492000D01*
X24627000Y-20492000D01*
X24373000Y-20492000D01*
X23023750Y-20492000D01*
X22865000Y-20650750D01*
X22861928Y-20665000D01*
X21123297Y-20665000D01*
X21138072Y-20515000D01*
X21138072Y-20215000D01*
X21122929Y-20061255D01*
X21078084Y-19913418D01*
X21005258Y-19777171D01*
X20966546Y-19730000D01*
X21005258Y-19682829D01*
X21078084Y-19546582D01*
X21122929Y-19398745D01*
X21123297Y-19395000D01*
X22861928Y-19395000D01*
X22874188Y-19519482D01*
X22910498Y-19639180D01*
X22959043Y-19730000D01*
X22910498Y-19820820D01*
X22874188Y-19940518D01*
X22861928Y-20065000D01*
X22865000Y-20079250D01*
X23023750Y-20238000D01*
X24373000Y-20238000D01*
X24373000Y-19222000D01*
X24627000Y-19222000D01*
X24627000Y-20238000D01*
X25976250Y-20238000D01*
X26135000Y-20079250D01*
X26138072Y-20065000D01*
X26125812Y-19940518D01*
X26089502Y-19820820D01*
X26040957Y-19730000D01*
X26089502Y-19639180D01*
X26125812Y-19519482D01*
X26138072Y-19395000D01*
X26135000Y-19380750D01*
X25976250Y-19222000D01*
X24627000Y-19222000D01*
X24373000Y-19222000D01*
X23023750Y-19222000D01*
X22865000Y-19380750D01*
X22861928Y-19395000D01*
X21123297Y-19395000D01*
X21138072Y-19245000D01*
X21138072Y-18945000D01*
X21122929Y-18791255D01*
X21078084Y-18643418D01*
X21005258Y-18507171D01*
X20966546Y-18460000D01*
X21005258Y-18412829D01*
X21078084Y-18276582D01*
X21122929Y-18128745D01*
X21138072Y-17975000D01*
X21138072Y-17675000D01*
X21122929Y-17521255D01*
X21078084Y-17373418D01*
X21047369Y-17315955D01*
X21075000Y-17318676D01*
X21112322Y-17315000D01*
X21112333Y-17315000D01*
X21223986Y-17304003D01*
X21367247Y-17260546D01*
X21499276Y-17189974D01*
X21615001Y-17095001D01*
X21638803Y-17065998D01*
X22234802Y-16470000D01*
X24647000Y-16470000D01*
X24647000Y-16682000D01*
X24627000Y-16682000D01*
X24627000Y-16702000D01*
X24373000Y-16702000D01*
X24373000Y-16682000D01*
X23023750Y-16682000D01*
X22865000Y-16840750D01*
X22861928Y-16855000D01*
X22874188Y-16979482D01*
X22910498Y-17099180D01*
X22969463Y-17209494D01*
X22993730Y-17239064D01*
X22921916Y-17373418D01*
X22877071Y-17521255D01*
X22861928Y-17675000D01*
X22861928Y-17975000D01*
X22877071Y-18128745D01*
X22921916Y-18276582D01*
X22993730Y-18410936D01*
X22969463Y-18440506D01*
X22910498Y-18550820D01*
X22874188Y-18670518D01*
X22861928Y-18795000D01*
X22865000Y-18809250D01*
X23023750Y-18968000D01*
X24373000Y-18968000D01*
X24373000Y-18948000D01*
X24627000Y-18948000D01*
X24627000Y-18968000D01*
X25976250Y-18968000D01*
X26135000Y-18809250D01*
X26138072Y-18795000D01*
X26125812Y-18670518D01*
X26089502Y-18550820D01*
X26030537Y-18440506D01*
X26006270Y-18410936D01*
X26008959Y-18405905D01*
X26058801Y-18365001D01*
X26082604Y-18335997D01*
X27635905Y-16782696D01*
X27639653Y-16781951D01*
X27796163Y-16717122D01*
X27937018Y-16623005D01*
X28056805Y-16503218D01*
X28150922Y-16362363D01*
X28215751Y-16205853D01*
X28248800Y-16039703D01*
X28248800Y-15870297D01*
X28215751Y-15704147D01*
X28150922Y-15547637D01*
X28056805Y-15406782D01*
X27937018Y-15286995D01*
X27796163Y-15192878D01*
X27639653Y-15128049D01*
X27630456Y-15126220D01*
X27568076Y-15075026D01*
X27436047Y-15004454D01*
X27292786Y-14960997D01*
X27181133Y-14950000D01*
X27181122Y-14950000D01*
X27143800Y-14946324D01*
X27106478Y-14950000D01*
X21957322Y-14950000D01*
X21919999Y-14946324D01*
X21882676Y-14950000D01*
X21882667Y-14950000D01*
X21771014Y-14960997D01*
X21627753Y-15004454D01*
X21495724Y-15075026D01*
X21495722Y-15075027D01*
X21495723Y-15075027D01*
X21408996Y-15146201D01*
X21408992Y-15146205D01*
X21379999Y-15169999D01*
X21356205Y-15198992D01*
X20797511Y-15757688D01*
X20787829Y-15749742D01*
X20651582Y-15676916D01*
X20503745Y-15632071D01*
X20350000Y-15616928D01*
X18650000Y-15616928D01*
X18496255Y-15632071D01*
X18348418Y-15676916D01*
X18212171Y-15749742D01*
X18157024Y-15795000D01*
X11602333Y-15795000D01*
X11565000Y-15791323D01*
X11527667Y-15795000D01*
X11416014Y-15805997D01*
X11294850Y-15842751D01*
X18865702Y-8271900D01*
X37684253Y-8271900D01*
X29080408Y-16875746D01*
G04 #@! TA.AperFunction,Conductor*
D17*
G36*
X29080408Y-16875746D02*
G01*
X29052363Y-16898762D01*
X28960514Y-17010680D01*
X28915444Y-17095001D01*
X28892264Y-17138367D01*
X28850235Y-17276915D01*
X28836044Y-17421000D01*
X28839601Y-17457115D01*
X28839600Y-18446146D01*
X28812478Y-18486737D01*
X28747649Y-18643247D01*
X28738125Y-18691128D01*
X26687208Y-20742046D01*
X26659163Y-20765062D01*
X26567314Y-20876980D01*
X26512737Y-20979086D01*
X26499064Y-21004667D01*
X26457035Y-21143215D01*
X26442844Y-21287300D01*
X26446400Y-21323405D01*
X26446400Y-21692246D01*
X26419278Y-21732837D01*
X26354449Y-21889347D01*
X26344925Y-21937228D01*
X26074033Y-22208121D01*
X26089502Y-22179180D01*
X26125812Y-22059482D01*
X26138072Y-21935000D01*
X26135000Y-21920750D01*
X25976250Y-21762000D01*
X24627000Y-21762000D01*
X24627000Y-22778000D01*
X24647000Y-22778000D01*
X24647000Y-22819100D01*
X23547705Y-22819100D01*
X23511600Y-22815544D01*
X23475495Y-22819100D01*
X23367515Y-22829735D01*
X23228967Y-22871763D01*
X23101280Y-22940013D01*
X22989362Y-23031862D01*
X22966341Y-23059913D01*
X22697508Y-23328746D01*
X22669463Y-23351762D01*
X22651498Y-23373652D01*
X21212846Y-21935000D01*
X22861928Y-21935000D01*
X22874188Y-22059482D01*
X22910498Y-22179180D01*
X22959043Y-22270000D01*
X22910498Y-22360820D01*
X22874188Y-22480518D01*
X22861928Y-22605000D01*
X22865000Y-22619250D01*
X23023750Y-22778000D01*
X24373000Y-22778000D01*
X24373000Y-21762000D01*
X23023750Y-21762000D01*
X22865000Y-21920750D01*
X22861928Y-21935000D01*
X21212846Y-21935000D01*
X21131327Y-21853481D01*
X21138072Y-21785000D01*
X21138072Y-21485000D01*
X21122929Y-21331255D01*
X21078084Y-21183418D01*
X21005258Y-21047171D01*
X20966546Y-21000000D01*
X21005258Y-20952829D01*
X21078084Y-20816582D01*
X21122929Y-20668745D01*
X21123297Y-20665000D01*
X22861928Y-20665000D01*
X22874188Y-20789482D01*
X22910498Y-20909180D01*
X22959043Y-21000000D01*
X22910498Y-21090820D01*
X22874188Y-21210518D01*
X22861928Y-21335000D01*
X22865000Y-21349250D01*
X23023750Y-21508000D01*
X24373000Y-21508000D01*
X24373000Y-20492000D01*
X24627000Y-20492000D01*
X24627000Y-21508000D01*
X25976250Y-21508000D01*
X26135000Y-21349250D01*
X26138072Y-21335000D01*
X26125812Y-21210518D01*
X26089502Y-21090820D01*
X26040957Y-21000000D01*
X26089502Y-20909180D01*
X26125812Y-20789482D01*
X26138072Y-20665000D01*
X26135000Y-20650750D01*
X25976250Y-20492000D01*
X24627000Y-20492000D01*
X24373000Y-20492000D01*
X23023750Y-20492000D01*
X22865000Y-20650750D01*
X22861928Y-20665000D01*
X21123297Y-20665000D01*
X21138072Y-20515000D01*
X21138072Y-20215000D01*
X21122929Y-20061255D01*
X21078084Y-19913418D01*
X21005258Y-19777171D01*
X20966546Y-19730000D01*
X21005258Y-19682829D01*
X21078084Y-19546582D01*
X21122929Y-19398745D01*
X21123297Y-19395000D01*
X22861928Y-19395000D01*
X22874188Y-19519482D01*
X22910498Y-19639180D01*
X22959043Y-19730000D01*
X22910498Y-19820820D01*
X22874188Y-19940518D01*
X22861928Y-20065000D01*
X22865000Y-20079250D01*
X23023750Y-20238000D01*
X24373000Y-20238000D01*
X24373000Y-19222000D01*
X24627000Y-19222000D01*
X24627000Y-20238000D01*
X25976250Y-20238000D01*
X26135000Y-20079250D01*
X26138072Y-20065000D01*
X26125812Y-19940518D01*
X26089502Y-19820820D01*
X26040957Y-19730000D01*
X26089502Y-19639180D01*
X26125812Y-19519482D01*
X26138072Y-19395000D01*
X26135000Y-19380750D01*
X25976250Y-19222000D01*
X24627000Y-19222000D01*
X24373000Y-19222000D01*
X23023750Y-19222000D01*
X22865000Y-19380750D01*
X22861928Y-19395000D01*
X21123297Y-19395000D01*
X21138072Y-19245000D01*
X21138072Y-18945000D01*
X21122929Y-18791255D01*
X21078084Y-18643418D01*
X21005258Y-18507171D01*
X20966546Y-18460000D01*
X21005258Y-18412829D01*
X21078084Y-18276582D01*
X21122929Y-18128745D01*
X21138072Y-17975000D01*
X21138072Y-17675000D01*
X21122929Y-17521255D01*
X21078084Y-17373418D01*
X21047369Y-17315955D01*
X21075000Y-17318676D01*
X21112322Y-17315000D01*
X21112333Y-17315000D01*
X21223986Y-17304003D01*
X21367247Y-17260546D01*
X21499276Y-17189974D01*
X21615001Y-17095001D01*
X21638803Y-17065998D01*
X22234802Y-16470000D01*
X24647000Y-16470000D01*
X24647000Y-16682000D01*
X24627000Y-16682000D01*
X24627000Y-16702000D01*
X24373000Y-16702000D01*
X24373000Y-16682000D01*
X23023750Y-16682000D01*
X22865000Y-16840750D01*
X22861928Y-16855000D01*
X22874188Y-16979482D01*
X22910498Y-17099180D01*
X22969463Y-17209494D01*
X22993730Y-17239064D01*
X22921916Y-17373418D01*
X22877071Y-17521255D01*
X22861928Y-17675000D01*
X22861928Y-17975000D01*
X22877071Y-18128745D01*
X22921916Y-18276582D01*
X22993730Y-18410936D01*
X22969463Y-18440506D01*
X22910498Y-18550820D01*
X22874188Y-18670518D01*
X22861928Y-18795000D01*
X22865000Y-18809250D01*
X23023750Y-18968000D01*
X24373000Y-18968000D01*
X24373000Y-18948000D01*
X24627000Y-18948000D01*
X24627000Y-18968000D01*
X25976250Y-18968000D01*
X26135000Y-18809250D01*
X26138072Y-18795000D01*
X26125812Y-18670518D01*
X26089502Y-18550820D01*
X26030537Y-18440506D01*
X26006270Y-18410936D01*
X26008959Y-18405905D01*
X26058801Y-18365001D01*
X26082604Y-18335997D01*
X27635905Y-16782696D01*
X27639653Y-16781951D01*
X27796163Y-16717122D01*
X27937018Y-16623005D01*
X28056805Y-16503218D01*
X28150922Y-16362363D01*
X28215751Y-16205853D01*
X28248800Y-16039703D01*
X28248800Y-15870297D01*
X28215751Y-15704147D01*
X28150922Y-15547637D01*
X28056805Y-15406782D01*
X27937018Y-15286995D01*
X27796163Y-15192878D01*
X27639653Y-15128049D01*
X27630456Y-15126220D01*
X27568076Y-15075026D01*
X27436047Y-15004454D01*
X27292786Y-14960997D01*
X27181133Y-14950000D01*
X27181122Y-14950000D01*
X27143800Y-14946324D01*
X27106478Y-14950000D01*
X21957322Y-14950000D01*
X21919999Y-14946324D01*
X21882676Y-14950000D01*
X21882667Y-14950000D01*
X21771014Y-14960997D01*
X21627753Y-15004454D01*
X21495724Y-15075026D01*
X21495722Y-15075027D01*
X21495723Y-15075027D01*
X21408996Y-15146201D01*
X21408992Y-15146205D01*
X21379999Y-15169999D01*
X21356205Y-15198992D01*
X20797511Y-15757688D01*
X20787829Y-15749742D01*
X20651582Y-15676916D01*
X20503745Y-15632071D01*
X20350000Y-15616928D01*
X18650000Y-15616928D01*
X18496255Y-15632071D01*
X18348418Y-15676916D01*
X18212171Y-15749742D01*
X18157024Y-15795000D01*
X11602333Y-15795000D01*
X11565000Y-15791323D01*
X11527667Y-15795000D01*
X11416014Y-15805997D01*
X11294850Y-15842751D01*
X18865702Y-8271900D01*
X37684253Y-8271900D01*
X29080408Y-16875746D01*
G37*
G04 #@! TD.AperFunction*
D16*
X17269746Y-20859193D02*
X17292762Y-20887238D01*
X17308312Y-20900000D01*
X16809294Y-20900000D01*
X16773199Y-20896445D01*
X16737104Y-20900000D01*
X16737095Y-20900000D01*
X16629115Y-20910635D01*
X16490567Y-20952663D01*
X16362880Y-21020913D01*
X16250962Y-21112762D01*
X16227947Y-21140806D01*
X14603754Y-22765000D01*
X13364250Y-22765000D01*
X13276250Y-22677000D01*
X13054636Y-22677000D01*
X12951582Y-22621916D01*
X12803745Y-22577071D01*
X12650000Y-22561928D01*
X11990500Y-22561928D01*
X11990500Y-22423000D01*
X12010500Y-22423000D01*
X12010500Y-21773750D01*
X12264500Y-21773750D01*
X12264500Y-22423000D01*
X13276250Y-22423000D01*
X13435000Y-22264250D01*
X13438072Y-22250000D01*
X13425812Y-22125518D01*
X13389502Y-22005820D01*
X13330537Y-21895506D01*
X13251185Y-21798815D01*
X13154494Y-21719463D01*
X13044180Y-21660498D01*
X12924482Y-21624188D01*
X12800000Y-21611928D01*
X12423250Y-21615000D01*
X12264500Y-21773750D01*
X12010500Y-21773750D01*
X11856100Y-21619350D01*
X11856100Y-20388072D01*
X12650000Y-20388072D01*
X12803745Y-20372929D01*
X12951582Y-20328084D01*
X13087829Y-20255258D01*
X13173439Y-20185000D01*
X16595554Y-20185000D01*
X17269746Y-20859193D01*
G04 #@! TA.AperFunction,Conductor*
D17*
G36*
X17269746Y-20859193D02*
G01*
X17292762Y-20887238D01*
X17308312Y-20900000D01*
X16809294Y-20900000D01*
X16773199Y-20896445D01*
X16737104Y-20900000D01*
X16737095Y-20900000D01*
X16629115Y-20910635D01*
X16490567Y-20952663D01*
X16362880Y-21020913D01*
X16250962Y-21112762D01*
X16227947Y-21140806D01*
X14603754Y-22765000D01*
X13364250Y-22765000D01*
X13276250Y-22677000D01*
X13054636Y-22677000D01*
X12951582Y-22621916D01*
X12803745Y-22577071D01*
X12650000Y-22561928D01*
X11990500Y-22561928D01*
X11990500Y-22423000D01*
X12010500Y-22423000D01*
X12010500Y-21773750D01*
X12264500Y-21773750D01*
X12264500Y-22423000D01*
X13276250Y-22423000D01*
X13435000Y-22264250D01*
X13438072Y-22250000D01*
X13425812Y-22125518D01*
X13389502Y-22005820D01*
X13330537Y-21895506D01*
X13251185Y-21798815D01*
X13154494Y-21719463D01*
X13044180Y-21660498D01*
X12924482Y-21624188D01*
X12800000Y-21611928D01*
X12423250Y-21615000D01*
X12264500Y-21773750D01*
X12010500Y-21773750D01*
X11856100Y-21619350D01*
X11856100Y-20388072D01*
X12650000Y-20388072D01*
X12803745Y-20372929D01*
X12951582Y-20328084D01*
X13087829Y-20255258D01*
X13173439Y-20185000D01*
X16595554Y-20185000D01*
X17269746Y-20859193D01*
G37*
G04 #@! TD.AperFunction*
D16*
X47415000Y-8714250D02*
X47573750Y-8873000D01*
X48423000Y-8873000D01*
X48423000Y-8853000D01*
X48657000Y-8853000D01*
X48657001Y-11216052D01*
X48261126Y-11611928D01*
X47850000Y-11611928D01*
X47696255Y-11627071D01*
X47548418Y-11671916D01*
X47412171Y-11744742D01*
X47292749Y-11842749D01*
X47194742Y-11962171D01*
X47121916Y-12098418D01*
X47077071Y-12246255D01*
X47061928Y-12400000D01*
X47061928Y-12700000D01*
X47077071Y-12853745D01*
X47109266Y-12959881D01*
X47074188Y-13075518D01*
X47061928Y-13200000D01*
X47065000Y-13214250D01*
X47223750Y-13373000D01*
X47445364Y-13373000D01*
X47548418Y-13428084D01*
X47696255Y-13472929D01*
X47850000Y-13488072D01*
X48509500Y-13488072D01*
X48509500Y-13511928D01*
X47850000Y-13511928D01*
X47696255Y-13527071D01*
X47548418Y-13571916D01*
X47445364Y-13627000D01*
X47223750Y-13627000D01*
X47065000Y-13785750D01*
X47061928Y-13800000D01*
X47074188Y-13924482D01*
X47109266Y-14040119D01*
X47077071Y-14146255D01*
X47061928Y-14300000D01*
X47061928Y-14590000D01*
X46199569Y-14590000D01*
X46188405Y-14569113D01*
X46121724Y-14487863D01*
X46151185Y-14463685D01*
X46230537Y-14366994D01*
X46289502Y-14256680D01*
X46325812Y-14136982D01*
X46338072Y-14012500D01*
X46335000Y-13785750D01*
X46176250Y-13627000D01*
X45127000Y-13627000D01*
X45127000Y-13647000D01*
X44873000Y-13647000D01*
X44873000Y-13627000D01*
X43823750Y-13627000D01*
X43665000Y-13785750D01*
X43661928Y-14012500D01*
X43674188Y-14136982D01*
X43710498Y-14256680D01*
X43769463Y-14366994D01*
X43848815Y-14463685D01*
X43878276Y-14487863D01*
X43811595Y-14569113D01*
X43729528Y-14722649D01*
X43678992Y-14889245D01*
X43661928Y-15062499D01*
X43661928Y-15587501D01*
X43678992Y-15760755D01*
X43729528Y-15927351D01*
X43811595Y-16080887D01*
X43922038Y-16215462D01*
X44056613Y-16325905D01*
X44210149Y-16407972D01*
X44376745Y-16458508D01*
X44549999Y-16475572D01*
X45450001Y-16475572D01*
X45623255Y-16458508D01*
X45789851Y-16407972D01*
X45943387Y-16325905D01*
X46077962Y-16215462D01*
X46188405Y-16080887D01*
X46199569Y-16060000D01*
X47451395Y-16060000D01*
X47487500Y-16063556D01*
X47523605Y-16060000D01*
X47631585Y-16049365D01*
X47770133Y-16007337D01*
X47897820Y-15939087D01*
X48009738Y-15847238D01*
X48032758Y-15819188D01*
X48463875Y-15388072D01*
X48522482Y-15388072D01*
X48320708Y-15589846D01*
X48292663Y-15612862D01*
X48200814Y-15724780D01*
X48135359Y-15847238D01*
X48132564Y-15852467D01*
X48090535Y-15991015D01*
X48076344Y-16135100D01*
X48079901Y-16171215D01*
X48079900Y-18617146D01*
X48052778Y-18657737D01*
X47987949Y-18814247D01*
X47954900Y-18980397D01*
X47954900Y-19065000D01*
X44744447Y-19065000D01*
X43145258Y-17465812D01*
X43122238Y-17437762D01*
X43010320Y-17345913D01*
X42882633Y-17277663D01*
X42744085Y-17235635D01*
X42636105Y-17225000D01*
X42600000Y-17221444D01*
X42563895Y-17225000D01*
X40364447Y-17225000D01*
X39801258Y-16661812D01*
X39778238Y-16633762D01*
X39666320Y-16541913D01*
X39538633Y-16473663D01*
X39400085Y-16431635D01*
X39292105Y-16421000D01*
X39256000Y-16417444D01*
X39219895Y-16421000D01*
X38433250Y-16421000D01*
X38585000Y-16269250D01*
X38588072Y-16255000D01*
X38575812Y-16130518D01*
X38539502Y-16010820D01*
X38480537Y-15900506D01*
X38401185Y-15803815D01*
X38304494Y-15724463D01*
X38194180Y-15665498D01*
X38074482Y-15629188D01*
X37950000Y-15616928D01*
X37260750Y-15620000D01*
X37102000Y-15778750D01*
X37102000Y-16421000D01*
X36848000Y-16421000D01*
X36848000Y-15778750D01*
X36689250Y-15620000D01*
X36000000Y-15616928D01*
X35875518Y-15629188D01*
X35755820Y-15665498D01*
X35645506Y-15724463D01*
X35548815Y-15803815D01*
X35469463Y-15900506D01*
X35410498Y-16010820D01*
X35374188Y-16130518D01*
X35361928Y-16255000D01*
X35365000Y-16269250D01*
X35516750Y-16421000D01*
X34318447Y-16421000D01*
X33958258Y-16060812D01*
X33935238Y-16032762D01*
X33823320Y-15940913D01*
X33695633Y-15872663D01*
X33557085Y-15830635D01*
X33449105Y-15820000D01*
X33413000Y-15816444D01*
X33376895Y-15820000D01*
X33373439Y-15820000D01*
X33287829Y-15749742D01*
X33151582Y-15676916D01*
X33003745Y-15632071D01*
X32850000Y-15616928D01*
X32418118Y-15616928D01*
X35047546Y-12987500D01*
X43661928Y-12987500D01*
X43665000Y-13214250D01*
X43823750Y-13373000D01*
X44873000Y-13373000D01*
X44873000Y-12511250D01*
X45127000Y-12511250D01*
X45127000Y-13373000D01*
X46176250Y-13373000D01*
X46335000Y-13214250D01*
X46338072Y-12987500D01*
X46325812Y-12863018D01*
X46289502Y-12743320D01*
X46230537Y-12633006D01*
X46151185Y-12536315D01*
X46054494Y-12456963D01*
X45944180Y-12397998D01*
X45824482Y-12361688D01*
X45700000Y-12349428D01*
X45285750Y-12352500D01*
X45127000Y-12511250D01*
X44873000Y-12511250D01*
X44714250Y-12352500D01*
X44300000Y-12349428D01*
X44175518Y-12361688D01*
X44055820Y-12397998D01*
X43945506Y-12456963D01*
X43848815Y-12536315D01*
X43769463Y-12633006D01*
X43710498Y-12743320D01*
X43674188Y-12863018D01*
X43661928Y-12987500D01*
X35047546Y-12987500D01*
X38310046Y-9725000D01*
X47411928Y-9725000D01*
X47424188Y-9849482D01*
X47460498Y-9969180D01*
X47519463Y-10079494D01*
X47598815Y-10176185D01*
X47695506Y-10255537D01*
X47805820Y-10314502D01*
X47925518Y-10350812D01*
X48050000Y-10363072D01*
X48264250Y-10360000D01*
X48423000Y-10201250D01*
X48423000Y-9127000D01*
X47573750Y-9127000D01*
X47415000Y-9285750D01*
X47411928Y-9725000D01*
X38310046Y-9725000D01*
X39344647Y-8690400D01*
X47414833Y-8690400D01*
X47415000Y-8714250D01*
G04 #@! TA.AperFunction,Conductor*
D17*
G36*
X47415000Y-8714250D02*
G01*
X47573750Y-8873000D01*
X48423000Y-8873000D01*
X48423000Y-8853000D01*
X48657000Y-8853000D01*
X48657001Y-11216052D01*
X48261126Y-11611928D01*
X47850000Y-11611928D01*
X47696255Y-11627071D01*
X47548418Y-11671916D01*
X47412171Y-11744742D01*
X47292749Y-11842749D01*
X47194742Y-11962171D01*
X47121916Y-12098418D01*
X47077071Y-12246255D01*
X47061928Y-12400000D01*
X47061928Y-12700000D01*
X47077071Y-12853745D01*
X47109266Y-12959881D01*
X47074188Y-13075518D01*
X47061928Y-13200000D01*
X47065000Y-13214250D01*
X47223750Y-13373000D01*
X47445364Y-13373000D01*
X47548418Y-13428084D01*
X47696255Y-13472929D01*
X47850000Y-13488072D01*
X48509500Y-13488072D01*
X48509500Y-13511928D01*
X47850000Y-13511928D01*
X47696255Y-13527071D01*
X47548418Y-13571916D01*
X47445364Y-13627000D01*
X47223750Y-13627000D01*
X47065000Y-13785750D01*
X47061928Y-13800000D01*
X47074188Y-13924482D01*
X47109266Y-14040119D01*
X47077071Y-14146255D01*
X47061928Y-14300000D01*
X47061928Y-14590000D01*
X46199569Y-14590000D01*
X46188405Y-14569113D01*
X46121724Y-14487863D01*
X46151185Y-14463685D01*
X46230537Y-14366994D01*
X46289502Y-14256680D01*
X46325812Y-14136982D01*
X46338072Y-14012500D01*
X46335000Y-13785750D01*
X46176250Y-13627000D01*
X45127000Y-13627000D01*
X45127000Y-13647000D01*
X44873000Y-13647000D01*
X44873000Y-13627000D01*
X43823750Y-13627000D01*
X43665000Y-13785750D01*
X43661928Y-14012500D01*
X43674188Y-14136982D01*
X43710498Y-14256680D01*
X43769463Y-14366994D01*
X43848815Y-14463685D01*
X43878276Y-14487863D01*
X43811595Y-14569113D01*
X43729528Y-14722649D01*
X43678992Y-14889245D01*
X43661928Y-15062499D01*
X43661928Y-15587501D01*
X43678992Y-15760755D01*
X43729528Y-15927351D01*
X43811595Y-16080887D01*
X43922038Y-16215462D01*
X44056613Y-16325905D01*
X44210149Y-16407972D01*
X44376745Y-16458508D01*
X44549999Y-16475572D01*
X45450001Y-16475572D01*
X45623255Y-16458508D01*
X45789851Y-16407972D01*
X45943387Y-16325905D01*
X46077962Y-16215462D01*
X46188405Y-16080887D01*
X46199569Y-16060000D01*
X47451395Y-16060000D01*
X47487500Y-16063556D01*
X47523605Y-16060000D01*
X47631585Y-16049365D01*
X47770133Y-16007337D01*
X47897820Y-15939087D01*
X48009738Y-15847238D01*
X48032758Y-15819188D01*
X48463875Y-15388072D01*
X48522482Y-15388072D01*
X48320708Y-15589846D01*
X48292663Y-15612862D01*
X48200814Y-15724780D01*
X48135359Y-15847238D01*
X48132564Y-15852467D01*
X48090535Y-15991015D01*
X48076344Y-16135100D01*
X48079901Y-16171215D01*
X48079900Y-18617146D01*
X48052778Y-18657737D01*
X47987949Y-18814247D01*
X47954900Y-18980397D01*
X47954900Y-19065000D01*
X44744447Y-19065000D01*
X43145258Y-17465812D01*
X43122238Y-17437762D01*
X43010320Y-17345913D01*
X42882633Y-17277663D01*
X42744085Y-17235635D01*
X42636105Y-17225000D01*
X42600000Y-17221444D01*
X42563895Y-17225000D01*
X40364447Y-17225000D01*
X39801258Y-16661812D01*
X39778238Y-16633762D01*
X39666320Y-16541913D01*
X39538633Y-16473663D01*
X39400085Y-16431635D01*
X39292105Y-16421000D01*
X39256000Y-16417444D01*
X39219895Y-16421000D01*
X38433250Y-16421000D01*
X38585000Y-16269250D01*
X38588072Y-16255000D01*
X38575812Y-16130518D01*
X38539502Y-16010820D01*
X38480537Y-15900506D01*
X38401185Y-15803815D01*
X38304494Y-15724463D01*
X38194180Y-15665498D01*
X38074482Y-15629188D01*
X37950000Y-15616928D01*
X37260750Y-15620000D01*
X37102000Y-15778750D01*
X37102000Y-16421000D01*
X36848000Y-16421000D01*
X36848000Y-15778750D01*
X36689250Y-15620000D01*
X36000000Y-15616928D01*
X35875518Y-15629188D01*
X35755820Y-15665498D01*
X35645506Y-15724463D01*
X35548815Y-15803815D01*
X35469463Y-15900506D01*
X35410498Y-16010820D01*
X35374188Y-16130518D01*
X35361928Y-16255000D01*
X35365000Y-16269250D01*
X35516750Y-16421000D01*
X34318447Y-16421000D01*
X33958258Y-16060812D01*
X33935238Y-16032762D01*
X33823320Y-15940913D01*
X33695633Y-15872663D01*
X33557085Y-15830635D01*
X33449105Y-15820000D01*
X33413000Y-15816444D01*
X33376895Y-15820000D01*
X33373439Y-15820000D01*
X33287829Y-15749742D01*
X33151582Y-15676916D01*
X33003745Y-15632071D01*
X32850000Y-15616928D01*
X32418118Y-15616928D01*
X35047546Y-12987500D01*
X43661928Y-12987500D01*
X43665000Y-13214250D01*
X43823750Y-13373000D01*
X44873000Y-13373000D01*
X44873000Y-12511250D01*
X45127000Y-12511250D01*
X45127000Y-13373000D01*
X46176250Y-13373000D01*
X46335000Y-13214250D01*
X46338072Y-12987500D01*
X46325812Y-12863018D01*
X46289502Y-12743320D01*
X46230537Y-12633006D01*
X46151185Y-12536315D01*
X46054494Y-12456963D01*
X45944180Y-12397998D01*
X45824482Y-12361688D01*
X45700000Y-12349428D01*
X45285750Y-12352500D01*
X45127000Y-12511250D01*
X44873000Y-12511250D01*
X44714250Y-12352500D01*
X44300000Y-12349428D01*
X44175518Y-12361688D01*
X44055820Y-12397998D01*
X43945506Y-12456963D01*
X43848815Y-12536315D01*
X43769463Y-12633006D01*
X43710498Y-12743320D01*
X43674188Y-12863018D01*
X43661928Y-12987500D01*
X35047546Y-12987500D01*
X38310046Y-9725000D01*
X47411928Y-9725000D01*
X47424188Y-9849482D01*
X47460498Y-9969180D01*
X47519463Y-10079494D01*
X47598815Y-10176185D01*
X47695506Y-10255537D01*
X47805820Y-10314502D01*
X47925518Y-10350812D01*
X48050000Y-10363072D01*
X48264250Y-10360000D01*
X48423000Y-10201250D01*
X48423000Y-9127000D01*
X47573750Y-9127000D01*
X47415000Y-9285750D01*
X47411928Y-9725000D01*
X38310046Y-9725000D01*
X39344647Y-8690400D01*
X47414833Y-8690400D01*
X47415000Y-8714250D01*
G37*
G04 #@! TD.AperFunction*
D16*
X17921916Y-17373418D02*
X17877071Y-17521255D01*
X17861928Y-17675000D01*
X17861928Y-17854702D01*
X17792633Y-17817663D01*
X17654085Y-17775635D01*
X17546105Y-17765000D01*
X17510000Y-17761444D01*
X17473895Y-17765000D01*
X13364250Y-17765000D01*
X13276250Y-17677000D01*
X13054636Y-17677000D01*
X12951582Y-17621916D01*
X12803745Y-17577071D01*
X12650000Y-17561928D01*
X11990500Y-17561928D01*
X11990500Y-17423000D01*
X12010500Y-17423000D01*
X12010500Y-17403000D01*
X12264500Y-17403000D01*
X12264500Y-17423000D01*
X13276250Y-17423000D01*
X13384250Y-17315000D01*
X17953141Y-17315000D01*
X17921916Y-17373418D01*
G04 #@! TA.AperFunction,Conductor*
D17*
G36*
X17921916Y-17373418D02*
G01*
X17877071Y-17521255D01*
X17861928Y-17675000D01*
X17861928Y-17854702D01*
X17792633Y-17817663D01*
X17654085Y-17775635D01*
X17546105Y-17765000D01*
X17510000Y-17761444D01*
X17473895Y-17765000D01*
X13364250Y-17765000D01*
X13276250Y-17677000D01*
X13054636Y-17677000D01*
X12951582Y-17621916D01*
X12803745Y-17577071D01*
X12650000Y-17561928D01*
X11990500Y-17561928D01*
X11990500Y-17423000D01*
X12010500Y-17423000D01*
X12010500Y-17403000D01*
X12264500Y-17403000D01*
X12264500Y-17423000D01*
X13276250Y-17423000D01*
X13384250Y-17315000D01*
X17953141Y-17315000D01*
X17921916Y-17373418D01*
G37*
G04 #@! TD.AperFunction*
M02*
