G04 #@! TF.GenerationSoftware,KiCad,Pcbnew,(5.1.8)-1*
G04 #@! TF.CreationDate,2021-05-20T13:25:16+02:00*
G04 #@! TF.ProjectId,UART_peripheral_card_A,55415254-5f70-4657-9269-70686572616c,A V1.1*
G04 #@! TF.SameCoordinates,PX4fa1be0PY3fe56c0*
G04 #@! TF.FileFunction,Soldermask,Top*
G04 #@! TF.FilePolarity,Negative*
%FSLAX46Y46*%
G04 Gerber Fmt 4.6, Leading zero omitted, Abs format (unit mm)*
G04 Created by KiCad (PCBNEW (5.1.8)-1) date 2021-05-20 13:25:16*
%MOMM*%
%LPD*%
G01*
G04 APERTURE LIST*
%ADD10R,1.700000X7.500000*%
%ADD11C,3.000000*%
%ADD12R,1.700000X1.700000*%
%ADD13O,1.700000X1.700000*%
G04 APERTURE END LIST*
D10*
X72500000Y-49900000D03*
X69960000Y-49900000D03*
X67420000Y-49900000D03*
X64880000Y-49900000D03*
X62340000Y-49900000D03*
X59800000Y-49900000D03*
X57260000Y-49900000D03*
X54720000Y-49900000D03*
X52180000Y-49900000D03*
X49640000Y-49900000D03*
X47100000Y-49900000D03*
X44560000Y-49900000D03*
X42020000Y-49900000D03*
X39480000Y-49900000D03*
X36940000Y-49900000D03*
X34400000Y-49900000D03*
X24240000Y-49900000D03*
X26780000Y-49900000D03*
X29320000Y-49900000D03*
X31860000Y-49900000D03*
D11*
X77000000Y-9200000D03*
G36*
G01*
X24450000Y-42025000D02*
X24450000Y-42975000D01*
G75*
G02*
X24200000Y-43225000I-250000J0D01*
G01*
X23700000Y-43225000D01*
G75*
G02*
X23450000Y-42975000I0J250000D01*
G01*
X23450000Y-42025000D01*
G75*
G02*
X23700000Y-41775000I250000J0D01*
G01*
X24200000Y-41775000D01*
G75*
G02*
X24450000Y-42025000I0J-250000D01*
G01*
G37*
G36*
G01*
X22550000Y-42025000D02*
X22550000Y-42975000D01*
G75*
G02*
X22300000Y-43225000I-250000J0D01*
G01*
X21800000Y-43225000D01*
G75*
G02*
X21550000Y-42975000I0J250000D01*
G01*
X21550000Y-42025000D01*
G75*
G02*
X21800000Y-41775000I250000J0D01*
G01*
X22300000Y-41775000D01*
G75*
G02*
X22550000Y-42025000I0J-250000D01*
G01*
G37*
G36*
G01*
X22550000Y-40025000D02*
X22550000Y-40975000D01*
G75*
G02*
X22300000Y-41225000I-250000J0D01*
G01*
X21800000Y-41225000D01*
G75*
G02*
X21550000Y-40975000I0J250000D01*
G01*
X21550000Y-40025000D01*
G75*
G02*
X21800000Y-39775000I250000J0D01*
G01*
X22300000Y-39775000D01*
G75*
G02*
X22550000Y-40025000I0J-250000D01*
G01*
G37*
G36*
G01*
X24450000Y-40025000D02*
X24450000Y-40975000D01*
G75*
G02*
X24200000Y-41225000I-250000J0D01*
G01*
X23700000Y-41225000D01*
G75*
G02*
X23450000Y-40975000I0J250000D01*
G01*
X23450000Y-40025000D01*
G75*
G02*
X23700000Y-39775000I250000J0D01*
G01*
X24200000Y-39775000D01*
G75*
G02*
X24450000Y-40025000I0J-250000D01*
G01*
G37*
G36*
G01*
X49050000Y-22525000D02*
X49050000Y-23475000D01*
G75*
G02*
X48800000Y-23725000I-250000J0D01*
G01*
X48300000Y-23725000D01*
G75*
G02*
X48050000Y-23475000I0J250000D01*
G01*
X48050000Y-22525000D01*
G75*
G02*
X48300000Y-22275000I250000J0D01*
G01*
X48800000Y-22275000D01*
G75*
G02*
X49050000Y-22525000I0J-250000D01*
G01*
G37*
G36*
G01*
X50950000Y-22525000D02*
X50950000Y-23475000D01*
G75*
G02*
X50700000Y-23725000I-250000J0D01*
G01*
X50200000Y-23725000D01*
G75*
G02*
X49950000Y-23475000I0J250000D01*
G01*
X49950000Y-22525000D01*
G75*
G02*
X50200000Y-22275000I250000J0D01*
G01*
X50700000Y-22275000D01*
G75*
G02*
X50950000Y-22525000I0J-250000D01*
G01*
G37*
G36*
G01*
X17050000Y-27975000D02*
X17050000Y-27025000D01*
G75*
G02*
X17300000Y-26775000I250000J0D01*
G01*
X17800000Y-26775000D01*
G75*
G02*
X18050000Y-27025000I0J-250000D01*
G01*
X18050000Y-27975000D01*
G75*
G02*
X17800000Y-28225000I-250000J0D01*
G01*
X17300000Y-28225000D01*
G75*
G02*
X17050000Y-27975000I0J250000D01*
G01*
G37*
G36*
G01*
X18950000Y-27975000D02*
X18950000Y-27025000D01*
G75*
G02*
X19200000Y-26775000I250000J0D01*
G01*
X19700000Y-26775000D01*
G75*
G02*
X19950000Y-27025000I0J-250000D01*
G01*
X19950000Y-27975000D01*
G75*
G02*
X19700000Y-28225000I-250000J0D01*
G01*
X19200000Y-28225000D01*
G75*
G02*
X18950000Y-27975000I0J250000D01*
G01*
G37*
G36*
G01*
X50950000Y-8525000D02*
X50950000Y-9475000D01*
G75*
G02*
X50700000Y-9725000I-250000J0D01*
G01*
X50200000Y-9725000D01*
G75*
G02*
X49950000Y-9475000I0J250000D01*
G01*
X49950000Y-8525000D01*
G75*
G02*
X50200000Y-8275000I250000J0D01*
G01*
X50700000Y-8275000D01*
G75*
G02*
X50950000Y-8525000I0J-250000D01*
G01*
G37*
G36*
G01*
X49050000Y-8525000D02*
X49050000Y-9475000D01*
G75*
G02*
X48800000Y-9725000I-250000J0D01*
G01*
X48300000Y-9725000D01*
G75*
G02*
X48050000Y-9475000I0J250000D01*
G01*
X48050000Y-8525000D01*
G75*
G02*
X48300000Y-8275000I250000J0D01*
G01*
X48800000Y-8275000D01*
G75*
G02*
X49050000Y-8525000I0J-250000D01*
G01*
G37*
G36*
G01*
X31450000Y-27975000D02*
X31450000Y-27025000D01*
G75*
G02*
X31700000Y-26775000I250000J0D01*
G01*
X32200000Y-26775000D01*
G75*
G02*
X32450000Y-27025000I0J-250000D01*
G01*
X32450000Y-27975000D01*
G75*
G02*
X32200000Y-28225000I-250000J0D01*
G01*
X31700000Y-28225000D01*
G75*
G02*
X31450000Y-27975000I0J250000D01*
G01*
G37*
G36*
G01*
X29550000Y-27975000D02*
X29550000Y-27025000D01*
G75*
G02*
X29800000Y-26775000I250000J0D01*
G01*
X30300000Y-26775000D01*
G75*
G02*
X30550000Y-27025000I0J-250000D01*
G01*
X30550000Y-27975000D01*
G75*
G02*
X30300000Y-28225000I-250000J0D01*
G01*
X29800000Y-28225000D01*
G75*
G02*
X29550000Y-27975000I0J250000D01*
G01*
G37*
D12*
X90500000Y-29500000D03*
D13*
X90500000Y-32040000D03*
X90500000Y-34580000D03*
X90500000Y-37120000D03*
D12*
X90500000Y-16000000D03*
D13*
X90500000Y-18540000D03*
X90500000Y-21080000D03*
D12*
X13000000Y-34500000D03*
D13*
X13000000Y-37040000D03*
X13000000Y-39580000D03*
G36*
G01*
X54549998Y-26987500D02*
X55450002Y-26987500D01*
G75*
G02*
X55700000Y-27237498I0J-249998D01*
G01*
X55700000Y-27762502D01*
G75*
G02*
X55450002Y-28012500I-249998J0D01*
G01*
X54549998Y-28012500D01*
G75*
G02*
X54300000Y-27762502I0J249998D01*
G01*
X54300000Y-27237498D01*
G75*
G02*
X54549998Y-26987500I249998J0D01*
G01*
G37*
G36*
G01*
X54549998Y-25162500D02*
X55450002Y-25162500D01*
G75*
G02*
X55700000Y-25412498I0J-249998D01*
G01*
X55700000Y-25937502D01*
G75*
G02*
X55450002Y-26187500I-249998J0D01*
G01*
X54549998Y-26187500D01*
G75*
G02*
X54300000Y-25937502I0J249998D01*
G01*
X54300000Y-25412498D01*
G75*
G02*
X54549998Y-25162500I249998J0D01*
G01*
G37*
G36*
G01*
X54549998Y-28575000D02*
X55450002Y-28575000D01*
G75*
G02*
X55700000Y-28824998I0J-249998D01*
G01*
X55700000Y-29350002D01*
G75*
G02*
X55450002Y-29600000I-249998J0D01*
G01*
X54549998Y-29600000D01*
G75*
G02*
X54300000Y-29350002I0J249998D01*
G01*
X54300000Y-28824998D01*
G75*
G02*
X54549998Y-28575000I249998J0D01*
G01*
G37*
G36*
G01*
X54549998Y-30400000D02*
X55450002Y-30400000D01*
G75*
G02*
X55700000Y-30649998I0J-249998D01*
G01*
X55700000Y-31175002D01*
G75*
G02*
X55450002Y-31425000I-249998J0D01*
G01*
X54549998Y-31425000D01*
G75*
G02*
X54300000Y-31175002I0J249998D01*
G01*
X54300000Y-30649998D01*
G75*
G02*
X54549998Y-30400000I249998J0D01*
G01*
G37*
G36*
G01*
X44950002Y-27100000D02*
X44049998Y-27100000D01*
G75*
G02*
X43800000Y-26850002I0J249998D01*
G01*
X43800000Y-26324998D01*
G75*
G02*
X44049998Y-26075000I249998J0D01*
G01*
X44950002Y-26075000D01*
G75*
G02*
X45200000Y-26324998I0J-249998D01*
G01*
X45200000Y-26850002D01*
G75*
G02*
X44950002Y-27100000I-249998J0D01*
G01*
G37*
G36*
G01*
X44950002Y-28925000D02*
X44049998Y-28925000D01*
G75*
G02*
X43800000Y-28675002I0J249998D01*
G01*
X43800000Y-28149998D01*
G75*
G02*
X44049998Y-27900000I249998J0D01*
G01*
X44950002Y-27900000D01*
G75*
G02*
X45200000Y-28149998I0J-249998D01*
G01*
X45200000Y-28675002D01*
G75*
G02*
X44950002Y-28925000I-249998J0D01*
G01*
G37*
G36*
G01*
X54549998Y-13900000D02*
X55450002Y-13900000D01*
G75*
G02*
X55700000Y-14149998I0J-249998D01*
G01*
X55700000Y-14675002D01*
G75*
G02*
X55450002Y-14925000I-249998J0D01*
G01*
X54549998Y-14925000D01*
G75*
G02*
X54300000Y-14675002I0J249998D01*
G01*
X54300000Y-14149998D01*
G75*
G02*
X54549998Y-13900000I249998J0D01*
G01*
G37*
G36*
G01*
X54549998Y-12075000D02*
X55450002Y-12075000D01*
G75*
G02*
X55700000Y-12324998I0J-249998D01*
G01*
X55700000Y-12850002D01*
G75*
G02*
X55450002Y-13100000I-249998J0D01*
G01*
X54549998Y-13100000D01*
G75*
G02*
X54300000Y-12850002I0J249998D01*
G01*
X54300000Y-12324998D01*
G75*
G02*
X54549998Y-12075000I249998J0D01*
G01*
G37*
G36*
G01*
X54549998Y-17400000D02*
X55450002Y-17400000D01*
G75*
G02*
X55700000Y-17649998I0J-249998D01*
G01*
X55700000Y-18175002D01*
G75*
G02*
X55450002Y-18425000I-249998J0D01*
G01*
X54549998Y-18425000D01*
G75*
G02*
X54300000Y-18175002I0J249998D01*
G01*
X54300000Y-17649998D01*
G75*
G02*
X54549998Y-17400000I249998J0D01*
G01*
G37*
G36*
G01*
X54549998Y-15575000D02*
X55450002Y-15575000D01*
G75*
G02*
X55700000Y-15824998I0J-249998D01*
G01*
X55700000Y-16350002D01*
G75*
G02*
X55450002Y-16600000I-249998J0D01*
G01*
X54549998Y-16600000D01*
G75*
G02*
X54300000Y-16350002I0J249998D01*
G01*
X54300000Y-15824998D01*
G75*
G02*
X54549998Y-15575000I249998J0D01*
G01*
G37*
G36*
G01*
X45450002Y-15837500D02*
X44549998Y-15837500D01*
G75*
G02*
X44300000Y-15587502I0J249998D01*
G01*
X44300000Y-15062498D01*
G75*
G02*
X44549998Y-14812500I249998J0D01*
G01*
X45450002Y-14812500D01*
G75*
G02*
X45700000Y-15062498I0J-249998D01*
G01*
X45700000Y-15587502D01*
G75*
G02*
X45450002Y-15837500I-249998J0D01*
G01*
G37*
G36*
G01*
X45450002Y-14012500D02*
X44549998Y-14012500D01*
G75*
G02*
X44300000Y-13762502I0J249998D01*
G01*
X44300000Y-13237498D01*
G75*
G02*
X44549998Y-12987500I249998J0D01*
G01*
X45450002Y-12987500D01*
G75*
G02*
X45700000Y-13237498I0J-249998D01*
G01*
X45700000Y-13762502D01*
G75*
G02*
X45450002Y-14012500I-249998J0D01*
G01*
G37*
G36*
G01*
X55450002Y-21600000D02*
X54549998Y-21600000D01*
G75*
G02*
X54300000Y-21350002I0J249998D01*
G01*
X54300000Y-20824998D01*
G75*
G02*
X54549998Y-20575000I249998J0D01*
G01*
X55450002Y-20575000D01*
G75*
G02*
X55700000Y-20824998I0J-249998D01*
G01*
X55700000Y-21350002D01*
G75*
G02*
X55450002Y-21600000I-249998J0D01*
G01*
G37*
G36*
G01*
X55450002Y-23425000D02*
X54549998Y-23425000D01*
G75*
G02*
X54300000Y-23175002I0J249998D01*
G01*
X54300000Y-22649998D01*
G75*
G02*
X54549998Y-22400000I249998J0D01*
G01*
X55450002Y-22400000D01*
G75*
G02*
X55700000Y-22649998I0J-249998D01*
G01*
X55700000Y-23175002D01*
G75*
G02*
X55450002Y-23425000I-249998J0D01*
G01*
G37*
G36*
G01*
X48200000Y-37525000D02*
X47900000Y-37525000D01*
G75*
G02*
X47750000Y-37375000I0J150000D01*
G01*
X47750000Y-36350000D01*
G75*
G02*
X47900000Y-36200000I150000J0D01*
G01*
X48200000Y-36200000D01*
G75*
G02*
X48350000Y-36350000I0J-150000D01*
G01*
X48350000Y-37375000D01*
G75*
G02*
X48200000Y-37525000I-150000J0D01*
G01*
G37*
G36*
G01*
X50100000Y-37525000D02*
X49800000Y-37525000D01*
G75*
G02*
X49650000Y-37375000I0J150000D01*
G01*
X49650000Y-36350000D01*
G75*
G02*
X49800000Y-36200000I150000J0D01*
G01*
X50100000Y-36200000D01*
G75*
G02*
X50250000Y-36350000I0J-150000D01*
G01*
X50250000Y-37375000D01*
G75*
G02*
X50100000Y-37525000I-150000J0D01*
G01*
G37*
G36*
G01*
X50100000Y-39800000D02*
X49800000Y-39800000D01*
G75*
G02*
X49650000Y-39650000I0J150000D01*
G01*
X49650000Y-38625000D01*
G75*
G02*
X49800000Y-38475000I150000J0D01*
G01*
X50100000Y-38475000D01*
G75*
G02*
X50250000Y-38625000I0J-150000D01*
G01*
X50250000Y-39650000D01*
G75*
G02*
X50100000Y-39800000I-150000J0D01*
G01*
G37*
G36*
G01*
X49150000Y-39800000D02*
X48850000Y-39800000D01*
G75*
G02*
X48700000Y-39650000I0J150000D01*
G01*
X48700000Y-38625000D01*
G75*
G02*
X48850000Y-38475000I150000J0D01*
G01*
X49150000Y-38475000D01*
G75*
G02*
X49300000Y-38625000I0J-150000D01*
G01*
X49300000Y-39650000D01*
G75*
G02*
X49150000Y-39800000I-150000J0D01*
G01*
G37*
G36*
G01*
X48200000Y-39800000D02*
X47900000Y-39800000D01*
G75*
G02*
X47750000Y-39650000I0J150000D01*
G01*
X47750000Y-38625000D01*
G75*
G02*
X47900000Y-38475000I150000J0D01*
G01*
X48200000Y-38475000D01*
G75*
G02*
X48350000Y-38625000I0J-150000D01*
G01*
X48350000Y-39650000D01*
G75*
G02*
X48200000Y-39800000I-150000J0D01*
G01*
G37*
G36*
G01*
X53200000Y-39800000D02*
X52900000Y-39800000D01*
G75*
G02*
X52750000Y-39650000I0J150000D01*
G01*
X52750000Y-38625000D01*
G75*
G02*
X52900000Y-38475000I150000J0D01*
G01*
X53200000Y-38475000D01*
G75*
G02*
X53350000Y-38625000I0J-150000D01*
G01*
X53350000Y-39650000D01*
G75*
G02*
X53200000Y-39800000I-150000J0D01*
G01*
G37*
G36*
G01*
X54150000Y-39800000D02*
X53850000Y-39800000D01*
G75*
G02*
X53700000Y-39650000I0J150000D01*
G01*
X53700000Y-38625000D01*
G75*
G02*
X53850000Y-38475000I150000J0D01*
G01*
X54150000Y-38475000D01*
G75*
G02*
X54300000Y-38625000I0J-150000D01*
G01*
X54300000Y-39650000D01*
G75*
G02*
X54150000Y-39800000I-150000J0D01*
G01*
G37*
G36*
G01*
X55100000Y-39800000D02*
X54800000Y-39800000D01*
G75*
G02*
X54650000Y-39650000I0J150000D01*
G01*
X54650000Y-38625000D01*
G75*
G02*
X54800000Y-38475000I150000J0D01*
G01*
X55100000Y-38475000D01*
G75*
G02*
X55250000Y-38625000I0J-150000D01*
G01*
X55250000Y-39650000D01*
G75*
G02*
X55100000Y-39800000I-150000J0D01*
G01*
G37*
G36*
G01*
X55100000Y-37525000D02*
X54800000Y-37525000D01*
G75*
G02*
X54650000Y-37375000I0J150000D01*
G01*
X54650000Y-36350000D01*
G75*
G02*
X54800000Y-36200000I150000J0D01*
G01*
X55100000Y-36200000D01*
G75*
G02*
X55250000Y-36350000I0J-150000D01*
G01*
X55250000Y-37375000D01*
G75*
G02*
X55100000Y-37525000I-150000J0D01*
G01*
G37*
G36*
G01*
X53200000Y-37525000D02*
X52900000Y-37525000D01*
G75*
G02*
X52750000Y-37375000I0J150000D01*
G01*
X52750000Y-36350000D01*
G75*
G02*
X52900000Y-36200000I150000J0D01*
G01*
X53200000Y-36200000D01*
G75*
G02*
X53350000Y-36350000I0J-150000D01*
G01*
X53350000Y-37375000D01*
G75*
G02*
X53200000Y-37525000I-150000J0D01*
G01*
G37*
G36*
G01*
X63200000Y-39800000D02*
X62900000Y-39800000D01*
G75*
G02*
X62750000Y-39650000I0J150000D01*
G01*
X62750000Y-38625000D01*
G75*
G02*
X62900000Y-38475000I150000J0D01*
G01*
X63200000Y-38475000D01*
G75*
G02*
X63350000Y-38625000I0J-150000D01*
G01*
X63350000Y-39650000D01*
G75*
G02*
X63200000Y-39800000I-150000J0D01*
G01*
G37*
G36*
G01*
X64150000Y-39800000D02*
X63850000Y-39800000D01*
G75*
G02*
X63700000Y-39650000I0J150000D01*
G01*
X63700000Y-38625000D01*
G75*
G02*
X63850000Y-38475000I150000J0D01*
G01*
X64150000Y-38475000D01*
G75*
G02*
X64300000Y-38625000I0J-150000D01*
G01*
X64300000Y-39650000D01*
G75*
G02*
X64150000Y-39800000I-150000J0D01*
G01*
G37*
G36*
G01*
X65100000Y-39800000D02*
X64800000Y-39800000D01*
G75*
G02*
X64650000Y-39650000I0J150000D01*
G01*
X64650000Y-38625000D01*
G75*
G02*
X64800000Y-38475000I150000J0D01*
G01*
X65100000Y-38475000D01*
G75*
G02*
X65250000Y-38625000I0J-150000D01*
G01*
X65250000Y-39650000D01*
G75*
G02*
X65100000Y-39800000I-150000J0D01*
G01*
G37*
G36*
G01*
X65100000Y-37525000D02*
X64800000Y-37525000D01*
G75*
G02*
X64650000Y-37375000I0J150000D01*
G01*
X64650000Y-36350000D01*
G75*
G02*
X64800000Y-36200000I150000J0D01*
G01*
X65100000Y-36200000D01*
G75*
G02*
X65250000Y-36350000I0J-150000D01*
G01*
X65250000Y-37375000D01*
G75*
G02*
X65100000Y-37525000I-150000J0D01*
G01*
G37*
G36*
G01*
X63200000Y-37525000D02*
X62900000Y-37525000D01*
G75*
G02*
X62750000Y-37375000I0J150000D01*
G01*
X62750000Y-36350000D01*
G75*
G02*
X62900000Y-36200000I150000J0D01*
G01*
X63200000Y-36200000D01*
G75*
G02*
X63350000Y-36350000I0J-150000D01*
G01*
X63350000Y-37375000D01*
G75*
G02*
X63200000Y-37525000I-150000J0D01*
G01*
G37*
G36*
G01*
X58200000Y-37525000D02*
X57900000Y-37525000D01*
G75*
G02*
X57750000Y-37375000I0J150000D01*
G01*
X57750000Y-36350000D01*
G75*
G02*
X57900000Y-36200000I150000J0D01*
G01*
X58200000Y-36200000D01*
G75*
G02*
X58350000Y-36350000I0J-150000D01*
G01*
X58350000Y-37375000D01*
G75*
G02*
X58200000Y-37525000I-150000J0D01*
G01*
G37*
G36*
G01*
X60100000Y-37525000D02*
X59800000Y-37525000D01*
G75*
G02*
X59650000Y-37375000I0J150000D01*
G01*
X59650000Y-36350000D01*
G75*
G02*
X59800000Y-36200000I150000J0D01*
G01*
X60100000Y-36200000D01*
G75*
G02*
X60250000Y-36350000I0J-150000D01*
G01*
X60250000Y-37375000D01*
G75*
G02*
X60100000Y-37525000I-150000J0D01*
G01*
G37*
G36*
G01*
X60100000Y-39800000D02*
X59800000Y-39800000D01*
G75*
G02*
X59650000Y-39650000I0J150000D01*
G01*
X59650000Y-38625000D01*
G75*
G02*
X59800000Y-38475000I150000J0D01*
G01*
X60100000Y-38475000D01*
G75*
G02*
X60250000Y-38625000I0J-150000D01*
G01*
X60250000Y-39650000D01*
G75*
G02*
X60100000Y-39800000I-150000J0D01*
G01*
G37*
G36*
G01*
X59150000Y-39800000D02*
X58850000Y-39800000D01*
G75*
G02*
X58700000Y-39650000I0J150000D01*
G01*
X58700000Y-38625000D01*
G75*
G02*
X58850000Y-38475000I150000J0D01*
G01*
X59150000Y-38475000D01*
G75*
G02*
X59300000Y-38625000I0J-150000D01*
G01*
X59300000Y-39650000D01*
G75*
G02*
X59150000Y-39800000I-150000J0D01*
G01*
G37*
G36*
G01*
X58200000Y-39800000D02*
X57900000Y-39800000D01*
G75*
G02*
X57750000Y-39650000I0J150000D01*
G01*
X57750000Y-38625000D01*
G75*
G02*
X57900000Y-38475000I150000J0D01*
G01*
X58200000Y-38475000D01*
G75*
G02*
X58350000Y-38625000I0J-150000D01*
G01*
X58350000Y-39650000D01*
G75*
G02*
X58200000Y-39800000I-150000J0D01*
G01*
G37*
G36*
G01*
X66200000Y-22800000D02*
X65900000Y-22800000D01*
G75*
G02*
X65750000Y-22650000I0J150000D01*
G01*
X65750000Y-21625000D01*
G75*
G02*
X65900000Y-21475000I150000J0D01*
G01*
X66200000Y-21475000D01*
G75*
G02*
X66350000Y-21625000I0J-150000D01*
G01*
X66350000Y-22650000D01*
G75*
G02*
X66200000Y-22800000I-150000J0D01*
G01*
G37*
G36*
G01*
X67150000Y-22800000D02*
X66850000Y-22800000D01*
G75*
G02*
X66700000Y-22650000I0J150000D01*
G01*
X66700000Y-21625000D01*
G75*
G02*
X66850000Y-21475000I150000J0D01*
G01*
X67150000Y-21475000D01*
G75*
G02*
X67300000Y-21625000I0J-150000D01*
G01*
X67300000Y-22650000D01*
G75*
G02*
X67150000Y-22800000I-150000J0D01*
G01*
G37*
G36*
G01*
X68100000Y-22800000D02*
X67800000Y-22800000D01*
G75*
G02*
X67650000Y-22650000I0J150000D01*
G01*
X67650000Y-21625000D01*
G75*
G02*
X67800000Y-21475000I150000J0D01*
G01*
X68100000Y-21475000D01*
G75*
G02*
X68250000Y-21625000I0J-150000D01*
G01*
X68250000Y-22650000D01*
G75*
G02*
X68100000Y-22800000I-150000J0D01*
G01*
G37*
G36*
G01*
X68100000Y-20525000D02*
X67800000Y-20525000D01*
G75*
G02*
X67650000Y-20375000I0J150000D01*
G01*
X67650000Y-19350000D01*
G75*
G02*
X67800000Y-19200000I150000J0D01*
G01*
X68100000Y-19200000D01*
G75*
G02*
X68250000Y-19350000I0J-150000D01*
G01*
X68250000Y-20375000D01*
G75*
G02*
X68100000Y-20525000I-150000J0D01*
G01*
G37*
G36*
G01*
X66200000Y-20525000D02*
X65900000Y-20525000D01*
G75*
G02*
X65750000Y-20375000I0J150000D01*
G01*
X65750000Y-19350000D01*
G75*
G02*
X65900000Y-19200000I150000J0D01*
G01*
X66200000Y-19200000D01*
G75*
G02*
X66350000Y-19350000I0J-150000D01*
G01*
X66350000Y-20375000D01*
G75*
G02*
X66200000Y-20525000I-150000J0D01*
G01*
G37*
G36*
G01*
X20500000Y-25295000D02*
X20500000Y-25595000D01*
G75*
G02*
X20350000Y-25745000I-150000J0D01*
G01*
X18650000Y-25745000D01*
G75*
G02*
X18500000Y-25595000I0J150000D01*
G01*
X18500000Y-25295000D01*
G75*
G02*
X18650000Y-25145000I150000J0D01*
G01*
X20350000Y-25145000D01*
G75*
G02*
X20500000Y-25295000I0J-150000D01*
G01*
G37*
G36*
G01*
X20500000Y-24025000D02*
X20500000Y-24325000D01*
G75*
G02*
X20350000Y-24475000I-150000J0D01*
G01*
X18650000Y-24475000D01*
G75*
G02*
X18500000Y-24325000I0J150000D01*
G01*
X18500000Y-24025000D01*
G75*
G02*
X18650000Y-23875000I150000J0D01*
G01*
X20350000Y-23875000D01*
G75*
G02*
X20500000Y-24025000I0J-150000D01*
G01*
G37*
G36*
G01*
X20500000Y-22755000D02*
X20500000Y-23055000D01*
G75*
G02*
X20350000Y-23205000I-150000J0D01*
G01*
X18650000Y-23205000D01*
G75*
G02*
X18500000Y-23055000I0J150000D01*
G01*
X18500000Y-22755000D01*
G75*
G02*
X18650000Y-22605000I150000J0D01*
G01*
X20350000Y-22605000D01*
G75*
G02*
X20500000Y-22755000I0J-150000D01*
G01*
G37*
G36*
G01*
X20500000Y-21485000D02*
X20500000Y-21785000D01*
G75*
G02*
X20350000Y-21935000I-150000J0D01*
G01*
X18650000Y-21935000D01*
G75*
G02*
X18500000Y-21785000I0J150000D01*
G01*
X18500000Y-21485000D01*
G75*
G02*
X18650000Y-21335000I150000J0D01*
G01*
X20350000Y-21335000D01*
G75*
G02*
X20500000Y-21485000I0J-150000D01*
G01*
G37*
G36*
G01*
X20500000Y-20215000D02*
X20500000Y-20515000D01*
G75*
G02*
X20350000Y-20665000I-150000J0D01*
G01*
X18650000Y-20665000D01*
G75*
G02*
X18500000Y-20515000I0J150000D01*
G01*
X18500000Y-20215000D01*
G75*
G02*
X18650000Y-20065000I150000J0D01*
G01*
X20350000Y-20065000D01*
G75*
G02*
X20500000Y-20215000I0J-150000D01*
G01*
G37*
G36*
G01*
X20500000Y-18945000D02*
X20500000Y-19245000D01*
G75*
G02*
X20350000Y-19395000I-150000J0D01*
G01*
X18650000Y-19395000D01*
G75*
G02*
X18500000Y-19245000I0J150000D01*
G01*
X18500000Y-18945000D01*
G75*
G02*
X18650000Y-18795000I150000J0D01*
G01*
X20350000Y-18795000D01*
G75*
G02*
X20500000Y-18945000I0J-150000D01*
G01*
G37*
G36*
G01*
X20500000Y-17675000D02*
X20500000Y-17975000D01*
G75*
G02*
X20350000Y-18125000I-150000J0D01*
G01*
X18650000Y-18125000D01*
G75*
G02*
X18500000Y-17975000I0J150000D01*
G01*
X18500000Y-17675000D01*
G75*
G02*
X18650000Y-17525000I150000J0D01*
G01*
X20350000Y-17525000D01*
G75*
G02*
X20500000Y-17675000I0J-150000D01*
G01*
G37*
G36*
G01*
X20500000Y-16405000D02*
X20500000Y-16705000D01*
G75*
G02*
X20350000Y-16855000I-150000J0D01*
G01*
X18650000Y-16855000D01*
G75*
G02*
X18500000Y-16705000I0J150000D01*
G01*
X18500000Y-16405000D01*
G75*
G02*
X18650000Y-16255000I150000J0D01*
G01*
X20350000Y-16255000D01*
G75*
G02*
X20500000Y-16405000I0J-150000D01*
G01*
G37*
G36*
G01*
X25500000Y-16405000D02*
X25500000Y-16705000D01*
G75*
G02*
X25350000Y-16855000I-150000J0D01*
G01*
X23650000Y-16855000D01*
G75*
G02*
X23500000Y-16705000I0J150000D01*
G01*
X23500000Y-16405000D01*
G75*
G02*
X23650000Y-16255000I150000J0D01*
G01*
X25350000Y-16255000D01*
G75*
G02*
X25500000Y-16405000I0J-150000D01*
G01*
G37*
G36*
G01*
X25500000Y-17675000D02*
X25500000Y-17975000D01*
G75*
G02*
X25350000Y-18125000I-150000J0D01*
G01*
X23650000Y-18125000D01*
G75*
G02*
X23500000Y-17975000I0J150000D01*
G01*
X23500000Y-17675000D01*
G75*
G02*
X23650000Y-17525000I150000J0D01*
G01*
X25350000Y-17525000D01*
G75*
G02*
X25500000Y-17675000I0J-150000D01*
G01*
G37*
G36*
G01*
X25500000Y-18945000D02*
X25500000Y-19245000D01*
G75*
G02*
X25350000Y-19395000I-150000J0D01*
G01*
X23650000Y-19395000D01*
G75*
G02*
X23500000Y-19245000I0J150000D01*
G01*
X23500000Y-18945000D01*
G75*
G02*
X23650000Y-18795000I150000J0D01*
G01*
X25350000Y-18795000D01*
G75*
G02*
X25500000Y-18945000I0J-150000D01*
G01*
G37*
G36*
G01*
X25500000Y-20215000D02*
X25500000Y-20515000D01*
G75*
G02*
X25350000Y-20665000I-150000J0D01*
G01*
X23650000Y-20665000D01*
G75*
G02*
X23500000Y-20515000I0J150000D01*
G01*
X23500000Y-20215000D01*
G75*
G02*
X23650000Y-20065000I150000J0D01*
G01*
X25350000Y-20065000D01*
G75*
G02*
X25500000Y-20215000I0J-150000D01*
G01*
G37*
G36*
G01*
X25500000Y-21485000D02*
X25500000Y-21785000D01*
G75*
G02*
X25350000Y-21935000I-150000J0D01*
G01*
X23650000Y-21935000D01*
G75*
G02*
X23500000Y-21785000I0J150000D01*
G01*
X23500000Y-21485000D01*
G75*
G02*
X23650000Y-21335000I150000J0D01*
G01*
X25350000Y-21335000D01*
G75*
G02*
X25500000Y-21485000I0J-150000D01*
G01*
G37*
G36*
G01*
X25500000Y-22755000D02*
X25500000Y-23055000D01*
G75*
G02*
X25350000Y-23205000I-150000J0D01*
G01*
X23650000Y-23205000D01*
G75*
G02*
X23500000Y-23055000I0J150000D01*
G01*
X23500000Y-22755000D01*
G75*
G02*
X23650000Y-22605000I150000J0D01*
G01*
X25350000Y-22605000D01*
G75*
G02*
X25500000Y-22755000I0J-150000D01*
G01*
G37*
G36*
G01*
X25500000Y-24025000D02*
X25500000Y-24325000D01*
G75*
G02*
X25350000Y-24475000I-150000J0D01*
G01*
X23650000Y-24475000D01*
G75*
G02*
X23500000Y-24325000I0J150000D01*
G01*
X23500000Y-24025000D01*
G75*
G02*
X23650000Y-23875000I150000J0D01*
G01*
X25350000Y-23875000D01*
G75*
G02*
X25500000Y-24025000I0J-150000D01*
G01*
G37*
G36*
G01*
X25500000Y-25295000D02*
X25500000Y-25595000D01*
G75*
G02*
X25350000Y-25745000I-150000J0D01*
G01*
X23650000Y-25745000D01*
G75*
G02*
X23500000Y-25595000I0J150000D01*
G01*
X23500000Y-25295000D01*
G75*
G02*
X23650000Y-25145000I150000J0D01*
G01*
X25350000Y-25145000D01*
G75*
G02*
X25500000Y-25295000I0J-150000D01*
G01*
G37*
G36*
G01*
X47700000Y-26200000D02*
X47700000Y-25900000D01*
G75*
G02*
X47850000Y-25750000I150000J0D01*
G01*
X48875000Y-25750000D01*
G75*
G02*
X49025000Y-25900000I0J-150000D01*
G01*
X49025000Y-26200000D01*
G75*
G02*
X48875000Y-26350000I-150000J0D01*
G01*
X47850000Y-26350000D01*
G75*
G02*
X47700000Y-26200000I0J150000D01*
G01*
G37*
G36*
G01*
X47700000Y-27150000D02*
X47700000Y-26850000D01*
G75*
G02*
X47850000Y-26700000I150000J0D01*
G01*
X48875000Y-26700000D01*
G75*
G02*
X49025000Y-26850000I0J-150000D01*
G01*
X49025000Y-27150000D01*
G75*
G02*
X48875000Y-27300000I-150000J0D01*
G01*
X47850000Y-27300000D01*
G75*
G02*
X47700000Y-27150000I0J150000D01*
G01*
G37*
G36*
G01*
X47700000Y-28100000D02*
X47700000Y-27800000D01*
G75*
G02*
X47850000Y-27650000I150000J0D01*
G01*
X48875000Y-27650000D01*
G75*
G02*
X49025000Y-27800000I0J-150000D01*
G01*
X49025000Y-28100000D01*
G75*
G02*
X48875000Y-28250000I-150000J0D01*
G01*
X47850000Y-28250000D01*
G75*
G02*
X47700000Y-28100000I0J150000D01*
G01*
G37*
G36*
G01*
X49975000Y-28100000D02*
X49975000Y-27800000D01*
G75*
G02*
X50125000Y-27650000I150000J0D01*
G01*
X51150000Y-27650000D01*
G75*
G02*
X51300000Y-27800000I0J-150000D01*
G01*
X51300000Y-28100000D01*
G75*
G02*
X51150000Y-28250000I-150000J0D01*
G01*
X50125000Y-28250000D01*
G75*
G02*
X49975000Y-28100000I0J150000D01*
G01*
G37*
G36*
G01*
X49975000Y-27150000D02*
X49975000Y-26850000D01*
G75*
G02*
X50125000Y-26700000I150000J0D01*
G01*
X51150000Y-26700000D01*
G75*
G02*
X51300000Y-26850000I0J-150000D01*
G01*
X51300000Y-27150000D01*
G75*
G02*
X51150000Y-27300000I-150000J0D01*
G01*
X50125000Y-27300000D01*
G75*
G02*
X49975000Y-27150000I0J150000D01*
G01*
G37*
G36*
G01*
X49975000Y-26200000D02*
X49975000Y-25900000D01*
G75*
G02*
X50125000Y-25750000I150000J0D01*
G01*
X51150000Y-25750000D01*
G75*
G02*
X51300000Y-25900000I0J-150000D01*
G01*
X51300000Y-26200000D01*
G75*
G02*
X51150000Y-26350000I-150000J0D01*
G01*
X50125000Y-26350000D01*
G75*
G02*
X49975000Y-26200000I0J150000D01*
G01*
G37*
G36*
G01*
X49975000Y-12700000D02*
X49975000Y-12400000D01*
G75*
G02*
X50125000Y-12250000I150000J0D01*
G01*
X51150000Y-12250000D01*
G75*
G02*
X51300000Y-12400000I0J-150000D01*
G01*
X51300000Y-12700000D01*
G75*
G02*
X51150000Y-12850000I-150000J0D01*
G01*
X50125000Y-12850000D01*
G75*
G02*
X49975000Y-12700000I0J150000D01*
G01*
G37*
G36*
G01*
X49975000Y-13650000D02*
X49975000Y-13350000D01*
G75*
G02*
X50125000Y-13200000I150000J0D01*
G01*
X51150000Y-13200000D01*
G75*
G02*
X51300000Y-13350000I0J-150000D01*
G01*
X51300000Y-13650000D01*
G75*
G02*
X51150000Y-13800000I-150000J0D01*
G01*
X50125000Y-13800000D01*
G75*
G02*
X49975000Y-13650000I0J150000D01*
G01*
G37*
G36*
G01*
X49975000Y-14600000D02*
X49975000Y-14300000D01*
G75*
G02*
X50125000Y-14150000I150000J0D01*
G01*
X51150000Y-14150000D01*
G75*
G02*
X51300000Y-14300000I0J-150000D01*
G01*
X51300000Y-14600000D01*
G75*
G02*
X51150000Y-14750000I-150000J0D01*
G01*
X50125000Y-14750000D01*
G75*
G02*
X49975000Y-14600000I0J150000D01*
G01*
G37*
G36*
G01*
X47700000Y-14600000D02*
X47700000Y-14300000D01*
G75*
G02*
X47850000Y-14150000I150000J0D01*
G01*
X48875000Y-14150000D01*
G75*
G02*
X49025000Y-14300000I0J-150000D01*
G01*
X49025000Y-14600000D01*
G75*
G02*
X48875000Y-14750000I-150000J0D01*
G01*
X47850000Y-14750000D01*
G75*
G02*
X47700000Y-14600000I0J150000D01*
G01*
G37*
G36*
G01*
X47700000Y-13650000D02*
X47700000Y-13350000D01*
G75*
G02*
X47850000Y-13200000I150000J0D01*
G01*
X48875000Y-13200000D01*
G75*
G02*
X49025000Y-13350000I0J-150000D01*
G01*
X49025000Y-13650000D01*
G75*
G02*
X48875000Y-13800000I-150000J0D01*
G01*
X47850000Y-13800000D01*
G75*
G02*
X47700000Y-13650000I0J150000D01*
G01*
G37*
G36*
G01*
X47700000Y-12700000D02*
X47700000Y-12400000D01*
G75*
G02*
X47850000Y-12250000I150000J0D01*
G01*
X48875000Y-12250000D01*
G75*
G02*
X49025000Y-12400000I0J-150000D01*
G01*
X49025000Y-12700000D01*
G75*
G02*
X48875000Y-12850000I-150000J0D01*
G01*
X47850000Y-12850000D01*
G75*
G02*
X47700000Y-12700000I0J150000D01*
G01*
G37*
G36*
G01*
X12800000Y-24300000D02*
X12800000Y-24600000D01*
G75*
G02*
X12650000Y-24750000I-150000J0D01*
G01*
X11625000Y-24750000D01*
G75*
G02*
X11475000Y-24600000I0J150000D01*
G01*
X11475000Y-24300000D01*
G75*
G02*
X11625000Y-24150000I150000J0D01*
G01*
X12650000Y-24150000D01*
G75*
G02*
X12800000Y-24300000I0J-150000D01*
G01*
G37*
G36*
G01*
X12800000Y-23350000D02*
X12800000Y-23650000D01*
G75*
G02*
X12650000Y-23800000I-150000J0D01*
G01*
X11625000Y-23800000D01*
G75*
G02*
X11475000Y-23650000I0J150000D01*
G01*
X11475000Y-23350000D01*
G75*
G02*
X11625000Y-23200000I150000J0D01*
G01*
X12650000Y-23200000D01*
G75*
G02*
X12800000Y-23350000I0J-150000D01*
G01*
G37*
G36*
G01*
X12800000Y-22400000D02*
X12800000Y-22700000D01*
G75*
G02*
X12650000Y-22850000I-150000J0D01*
G01*
X11625000Y-22850000D01*
G75*
G02*
X11475000Y-22700000I0J150000D01*
G01*
X11475000Y-22400000D01*
G75*
G02*
X11625000Y-22250000I150000J0D01*
G01*
X12650000Y-22250000D01*
G75*
G02*
X12800000Y-22400000I0J-150000D01*
G01*
G37*
G36*
G01*
X10525000Y-22400000D02*
X10525000Y-22700000D01*
G75*
G02*
X10375000Y-22850000I-150000J0D01*
G01*
X9350000Y-22850000D01*
G75*
G02*
X9200000Y-22700000I0J150000D01*
G01*
X9200000Y-22400000D01*
G75*
G02*
X9350000Y-22250000I150000J0D01*
G01*
X10375000Y-22250000D01*
G75*
G02*
X10525000Y-22400000I0J-150000D01*
G01*
G37*
G36*
G01*
X10525000Y-24300000D02*
X10525000Y-24600000D01*
G75*
G02*
X10375000Y-24750000I-150000J0D01*
G01*
X9350000Y-24750000D01*
G75*
G02*
X9200000Y-24600000I0J150000D01*
G01*
X9200000Y-24300000D01*
G75*
G02*
X9350000Y-24150000I150000J0D01*
G01*
X10375000Y-24150000D01*
G75*
G02*
X10525000Y-24300000I0J-150000D01*
G01*
G37*
G36*
G01*
X10525000Y-19300000D02*
X10525000Y-19600000D01*
G75*
G02*
X10375000Y-19750000I-150000J0D01*
G01*
X9350000Y-19750000D01*
G75*
G02*
X9200000Y-19600000I0J150000D01*
G01*
X9200000Y-19300000D01*
G75*
G02*
X9350000Y-19150000I150000J0D01*
G01*
X10375000Y-19150000D01*
G75*
G02*
X10525000Y-19300000I0J-150000D01*
G01*
G37*
G36*
G01*
X10525000Y-17400000D02*
X10525000Y-17700000D01*
G75*
G02*
X10375000Y-17850000I-150000J0D01*
G01*
X9350000Y-17850000D01*
G75*
G02*
X9200000Y-17700000I0J150000D01*
G01*
X9200000Y-17400000D01*
G75*
G02*
X9350000Y-17250000I150000J0D01*
G01*
X10375000Y-17250000D01*
G75*
G02*
X10525000Y-17400000I0J-150000D01*
G01*
G37*
G36*
G01*
X12800000Y-17400000D02*
X12800000Y-17700000D01*
G75*
G02*
X12650000Y-17850000I-150000J0D01*
G01*
X11625000Y-17850000D01*
G75*
G02*
X11475000Y-17700000I0J150000D01*
G01*
X11475000Y-17400000D01*
G75*
G02*
X11625000Y-17250000I150000J0D01*
G01*
X12650000Y-17250000D01*
G75*
G02*
X12800000Y-17400000I0J-150000D01*
G01*
G37*
G36*
G01*
X12800000Y-18350000D02*
X12800000Y-18650000D01*
G75*
G02*
X12650000Y-18800000I-150000J0D01*
G01*
X11625000Y-18800000D01*
G75*
G02*
X11475000Y-18650000I0J150000D01*
G01*
X11475000Y-18350000D01*
G75*
G02*
X11625000Y-18200000I150000J0D01*
G01*
X12650000Y-18200000D01*
G75*
G02*
X12800000Y-18350000I0J-150000D01*
G01*
G37*
G36*
G01*
X12800000Y-19300000D02*
X12800000Y-19600000D01*
G75*
G02*
X12650000Y-19750000I-150000J0D01*
G01*
X11625000Y-19750000D01*
G75*
G02*
X11475000Y-19600000I0J150000D01*
G01*
X11475000Y-19300000D01*
G75*
G02*
X11625000Y-19150000I150000J0D01*
G01*
X12650000Y-19150000D01*
G75*
G02*
X12800000Y-19300000I0J-150000D01*
G01*
G37*
G36*
G01*
X27200000Y-32700000D02*
X27200000Y-32400000D01*
G75*
G02*
X27350000Y-32250000I150000J0D01*
G01*
X28375000Y-32250000D01*
G75*
G02*
X28525000Y-32400000I0J-150000D01*
G01*
X28525000Y-32700000D01*
G75*
G02*
X28375000Y-32850000I-150000J0D01*
G01*
X27350000Y-32850000D01*
G75*
G02*
X27200000Y-32700000I0J150000D01*
G01*
G37*
G36*
G01*
X27200000Y-33650000D02*
X27200000Y-33350000D01*
G75*
G02*
X27350000Y-33200000I150000J0D01*
G01*
X28375000Y-33200000D01*
G75*
G02*
X28525000Y-33350000I0J-150000D01*
G01*
X28525000Y-33650000D01*
G75*
G02*
X28375000Y-33800000I-150000J0D01*
G01*
X27350000Y-33800000D01*
G75*
G02*
X27200000Y-33650000I0J150000D01*
G01*
G37*
G36*
G01*
X27200000Y-34600000D02*
X27200000Y-34300000D01*
G75*
G02*
X27350000Y-34150000I150000J0D01*
G01*
X28375000Y-34150000D01*
G75*
G02*
X28525000Y-34300000I0J-150000D01*
G01*
X28525000Y-34600000D01*
G75*
G02*
X28375000Y-34750000I-150000J0D01*
G01*
X27350000Y-34750000D01*
G75*
G02*
X27200000Y-34600000I0J150000D01*
G01*
G37*
G36*
G01*
X29475000Y-34600000D02*
X29475000Y-34300000D01*
G75*
G02*
X29625000Y-34150000I150000J0D01*
G01*
X30650000Y-34150000D01*
G75*
G02*
X30800000Y-34300000I0J-150000D01*
G01*
X30800000Y-34600000D01*
G75*
G02*
X30650000Y-34750000I-150000J0D01*
G01*
X29625000Y-34750000D01*
G75*
G02*
X29475000Y-34600000I0J150000D01*
G01*
G37*
G36*
G01*
X29475000Y-32700000D02*
X29475000Y-32400000D01*
G75*
G02*
X29625000Y-32250000I150000J0D01*
G01*
X30650000Y-32250000D01*
G75*
G02*
X30800000Y-32400000I0J-150000D01*
G01*
X30800000Y-32700000D01*
G75*
G02*
X30650000Y-32850000I-150000J0D01*
G01*
X29625000Y-32850000D01*
G75*
G02*
X29475000Y-32700000I0J150000D01*
G01*
G37*
G36*
G01*
X74700000Y-20525000D02*
X74400000Y-20525000D01*
G75*
G02*
X74250000Y-20375000I0J150000D01*
G01*
X74250000Y-19350000D01*
G75*
G02*
X74400000Y-19200000I150000J0D01*
G01*
X74700000Y-19200000D01*
G75*
G02*
X74850000Y-19350000I0J-150000D01*
G01*
X74850000Y-20375000D01*
G75*
G02*
X74700000Y-20525000I-150000J0D01*
G01*
G37*
G36*
G01*
X76600000Y-20525000D02*
X76300000Y-20525000D01*
G75*
G02*
X76150000Y-20375000I0J150000D01*
G01*
X76150000Y-19350000D01*
G75*
G02*
X76300000Y-19200000I150000J0D01*
G01*
X76600000Y-19200000D01*
G75*
G02*
X76750000Y-19350000I0J-150000D01*
G01*
X76750000Y-20375000D01*
G75*
G02*
X76600000Y-20525000I-150000J0D01*
G01*
G37*
G36*
G01*
X76600000Y-22800000D02*
X76300000Y-22800000D01*
G75*
G02*
X76150000Y-22650000I0J150000D01*
G01*
X76150000Y-21625000D01*
G75*
G02*
X76300000Y-21475000I150000J0D01*
G01*
X76600000Y-21475000D01*
G75*
G02*
X76750000Y-21625000I0J-150000D01*
G01*
X76750000Y-22650000D01*
G75*
G02*
X76600000Y-22800000I-150000J0D01*
G01*
G37*
G36*
G01*
X75650000Y-22800000D02*
X75350000Y-22800000D01*
G75*
G02*
X75200000Y-22650000I0J150000D01*
G01*
X75200000Y-21625000D01*
G75*
G02*
X75350000Y-21475000I150000J0D01*
G01*
X75650000Y-21475000D01*
G75*
G02*
X75800000Y-21625000I0J-150000D01*
G01*
X75800000Y-22650000D01*
G75*
G02*
X75650000Y-22800000I-150000J0D01*
G01*
G37*
G36*
G01*
X74700000Y-22800000D02*
X74400000Y-22800000D01*
G75*
G02*
X74250000Y-22650000I0J150000D01*
G01*
X74250000Y-21625000D01*
G75*
G02*
X74400000Y-21475000I150000J0D01*
G01*
X74700000Y-21475000D01*
G75*
G02*
X74850000Y-21625000I0J-150000D01*
G01*
X74850000Y-22650000D01*
G75*
G02*
X74700000Y-22800000I-150000J0D01*
G01*
G37*
G36*
G01*
X82475000Y-20200000D02*
X82475000Y-19900000D01*
G75*
G02*
X82625000Y-19750000I150000J0D01*
G01*
X83650000Y-19750000D01*
G75*
G02*
X83800000Y-19900000I0J-150000D01*
G01*
X83800000Y-20200000D01*
G75*
G02*
X83650000Y-20350000I-150000J0D01*
G01*
X82625000Y-20350000D01*
G75*
G02*
X82475000Y-20200000I0J150000D01*
G01*
G37*
G36*
G01*
X82475000Y-22100000D02*
X82475000Y-21800000D01*
G75*
G02*
X82625000Y-21650000I150000J0D01*
G01*
X83650000Y-21650000D01*
G75*
G02*
X83800000Y-21800000I0J-150000D01*
G01*
X83800000Y-22100000D01*
G75*
G02*
X83650000Y-22250000I-150000J0D01*
G01*
X82625000Y-22250000D01*
G75*
G02*
X82475000Y-22100000I0J150000D01*
G01*
G37*
G36*
G01*
X80200000Y-22100000D02*
X80200000Y-21800000D01*
G75*
G02*
X80350000Y-21650000I150000J0D01*
G01*
X81375000Y-21650000D01*
G75*
G02*
X81525000Y-21800000I0J-150000D01*
G01*
X81525000Y-22100000D01*
G75*
G02*
X81375000Y-22250000I-150000J0D01*
G01*
X80350000Y-22250000D01*
G75*
G02*
X80200000Y-22100000I0J150000D01*
G01*
G37*
G36*
G01*
X80200000Y-21150000D02*
X80200000Y-20850000D01*
G75*
G02*
X80350000Y-20700000I150000J0D01*
G01*
X81375000Y-20700000D01*
G75*
G02*
X81525000Y-20850000I0J-150000D01*
G01*
X81525000Y-21150000D01*
G75*
G02*
X81375000Y-21300000I-150000J0D01*
G01*
X80350000Y-21300000D01*
G75*
G02*
X80200000Y-21150000I0J150000D01*
G01*
G37*
G36*
G01*
X80200000Y-20200000D02*
X80200000Y-19900000D01*
G75*
G02*
X80350000Y-19750000I150000J0D01*
G01*
X81375000Y-19750000D01*
G75*
G02*
X81525000Y-19900000I0J-150000D01*
G01*
X81525000Y-20200000D01*
G75*
G02*
X81375000Y-20350000I-150000J0D01*
G01*
X80350000Y-20350000D01*
G75*
G02*
X80200000Y-20200000I0J150000D01*
G01*
G37*
G36*
G01*
X33000000Y-25295000D02*
X33000000Y-25595000D01*
G75*
G02*
X32850000Y-25745000I-150000J0D01*
G01*
X31200000Y-25745000D01*
G75*
G02*
X31050000Y-25595000I0J150000D01*
G01*
X31050000Y-25295000D01*
G75*
G02*
X31200000Y-25145000I150000J0D01*
G01*
X32850000Y-25145000D01*
G75*
G02*
X33000000Y-25295000I0J-150000D01*
G01*
G37*
G36*
G01*
X33000000Y-24025000D02*
X33000000Y-24325000D01*
G75*
G02*
X32850000Y-24475000I-150000J0D01*
G01*
X31200000Y-24475000D01*
G75*
G02*
X31050000Y-24325000I0J150000D01*
G01*
X31050000Y-24025000D01*
G75*
G02*
X31200000Y-23875000I150000J0D01*
G01*
X32850000Y-23875000D01*
G75*
G02*
X33000000Y-24025000I0J-150000D01*
G01*
G37*
G36*
G01*
X33000000Y-22755000D02*
X33000000Y-23055000D01*
G75*
G02*
X32850000Y-23205000I-150000J0D01*
G01*
X31200000Y-23205000D01*
G75*
G02*
X31050000Y-23055000I0J150000D01*
G01*
X31050000Y-22755000D01*
G75*
G02*
X31200000Y-22605000I150000J0D01*
G01*
X32850000Y-22605000D01*
G75*
G02*
X33000000Y-22755000I0J-150000D01*
G01*
G37*
G36*
G01*
X33000000Y-21485000D02*
X33000000Y-21785000D01*
G75*
G02*
X32850000Y-21935000I-150000J0D01*
G01*
X31200000Y-21935000D01*
G75*
G02*
X31050000Y-21785000I0J150000D01*
G01*
X31050000Y-21485000D01*
G75*
G02*
X31200000Y-21335000I150000J0D01*
G01*
X32850000Y-21335000D01*
G75*
G02*
X33000000Y-21485000I0J-150000D01*
G01*
G37*
G36*
G01*
X33000000Y-20215000D02*
X33000000Y-20515000D01*
G75*
G02*
X32850000Y-20665000I-150000J0D01*
G01*
X31200000Y-20665000D01*
G75*
G02*
X31050000Y-20515000I0J150000D01*
G01*
X31050000Y-20215000D01*
G75*
G02*
X31200000Y-20065000I150000J0D01*
G01*
X32850000Y-20065000D01*
G75*
G02*
X33000000Y-20215000I0J-150000D01*
G01*
G37*
G36*
G01*
X33000000Y-18945000D02*
X33000000Y-19245000D01*
G75*
G02*
X32850000Y-19395000I-150000J0D01*
G01*
X31200000Y-19395000D01*
G75*
G02*
X31050000Y-19245000I0J150000D01*
G01*
X31050000Y-18945000D01*
G75*
G02*
X31200000Y-18795000I150000J0D01*
G01*
X32850000Y-18795000D01*
G75*
G02*
X33000000Y-18945000I0J-150000D01*
G01*
G37*
G36*
G01*
X33000000Y-17675000D02*
X33000000Y-17975000D01*
G75*
G02*
X32850000Y-18125000I-150000J0D01*
G01*
X31200000Y-18125000D01*
G75*
G02*
X31050000Y-17975000I0J150000D01*
G01*
X31050000Y-17675000D01*
G75*
G02*
X31200000Y-17525000I150000J0D01*
G01*
X32850000Y-17525000D01*
G75*
G02*
X33000000Y-17675000I0J-150000D01*
G01*
G37*
G36*
G01*
X33000000Y-16405000D02*
X33000000Y-16705000D01*
G75*
G02*
X32850000Y-16855000I-150000J0D01*
G01*
X31200000Y-16855000D01*
G75*
G02*
X31050000Y-16705000I0J150000D01*
G01*
X31050000Y-16405000D01*
G75*
G02*
X31200000Y-16255000I150000J0D01*
G01*
X32850000Y-16255000D01*
G75*
G02*
X33000000Y-16405000I0J-150000D01*
G01*
G37*
G36*
G01*
X37950000Y-16405000D02*
X37950000Y-16705000D01*
G75*
G02*
X37800000Y-16855000I-150000J0D01*
G01*
X36150000Y-16855000D01*
G75*
G02*
X36000000Y-16705000I0J150000D01*
G01*
X36000000Y-16405000D01*
G75*
G02*
X36150000Y-16255000I150000J0D01*
G01*
X37800000Y-16255000D01*
G75*
G02*
X37950000Y-16405000I0J-150000D01*
G01*
G37*
G36*
G01*
X37950000Y-17675000D02*
X37950000Y-17975000D01*
G75*
G02*
X37800000Y-18125000I-150000J0D01*
G01*
X36150000Y-18125000D01*
G75*
G02*
X36000000Y-17975000I0J150000D01*
G01*
X36000000Y-17675000D01*
G75*
G02*
X36150000Y-17525000I150000J0D01*
G01*
X37800000Y-17525000D01*
G75*
G02*
X37950000Y-17675000I0J-150000D01*
G01*
G37*
G36*
G01*
X37950000Y-18945000D02*
X37950000Y-19245000D01*
G75*
G02*
X37800000Y-19395000I-150000J0D01*
G01*
X36150000Y-19395000D01*
G75*
G02*
X36000000Y-19245000I0J150000D01*
G01*
X36000000Y-18945000D01*
G75*
G02*
X36150000Y-18795000I150000J0D01*
G01*
X37800000Y-18795000D01*
G75*
G02*
X37950000Y-18945000I0J-150000D01*
G01*
G37*
G36*
G01*
X37950000Y-20215000D02*
X37950000Y-20515000D01*
G75*
G02*
X37800000Y-20665000I-150000J0D01*
G01*
X36150000Y-20665000D01*
G75*
G02*
X36000000Y-20515000I0J150000D01*
G01*
X36000000Y-20215000D01*
G75*
G02*
X36150000Y-20065000I150000J0D01*
G01*
X37800000Y-20065000D01*
G75*
G02*
X37950000Y-20215000I0J-150000D01*
G01*
G37*
G36*
G01*
X37950000Y-21485000D02*
X37950000Y-21785000D01*
G75*
G02*
X37800000Y-21935000I-150000J0D01*
G01*
X36150000Y-21935000D01*
G75*
G02*
X36000000Y-21785000I0J150000D01*
G01*
X36000000Y-21485000D01*
G75*
G02*
X36150000Y-21335000I150000J0D01*
G01*
X37800000Y-21335000D01*
G75*
G02*
X37950000Y-21485000I0J-150000D01*
G01*
G37*
G36*
G01*
X37950000Y-22755000D02*
X37950000Y-23055000D01*
G75*
G02*
X37800000Y-23205000I-150000J0D01*
G01*
X36150000Y-23205000D01*
G75*
G02*
X36000000Y-23055000I0J150000D01*
G01*
X36000000Y-22755000D01*
G75*
G02*
X36150000Y-22605000I150000J0D01*
G01*
X37800000Y-22605000D01*
G75*
G02*
X37950000Y-22755000I0J-150000D01*
G01*
G37*
G36*
G01*
X37950000Y-24025000D02*
X37950000Y-24325000D01*
G75*
G02*
X37800000Y-24475000I-150000J0D01*
G01*
X36150000Y-24475000D01*
G75*
G02*
X36000000Y-24325000I0J150000D01*
G01*
X36000000Y-24025000D01*
G75*
G02*
X36150000Y-23875000I150000J0D01*
G01*
X37800000Y-23875000D01*
G75*
G02*
X37950000Y-24025000I0J-150000D01*
G01*
G37*
G36*
G01*
X37950000Y-25295000D02*
X37950000Y-25595000D01*
G75*
G02*
X37800000Y-25745000I-150000J0D01*
G01*
X36150000Y-25745000D01*
G75*
G02*
X36000000Y-25595000I0J150000D01*
G01*
X36000000Y-25295000D01*
G75*
G02*
X36150000Y-25145000I150000J0D01*
G01*
X37800000Y-25145000D01*
G75*
G02*
X37950000Y-25295000I0J-150000D01*
G01*
G37*
G36*
G01*
X83235000Y-17240001D02*
X83235000Y-16339999D01*
G75*
G02*
X83484999Y-16090000I249999J0D01*
G01*
X84010001Y-16090000D01*
G75*
G02*
X84260000Y-16339999I0J-249999D01*
G01*
X84260000Y-17240001D01*
G75*
G02*
X84010001Y-17490000I-249999J0D01*
G01*
X83484999Y-17490000D01*
G75*
G02*
X83235000Y-17240001I0J249999D01*
G01*
G37*
G36*
G01*
X85060000Y-17240001D02*
X85060000Y-16339999D01*
G75*
G02*
X85309999Y-16090000I249999J0D01*
G01*
X85835001Y-16090000D01*
G75*
G02*
X86085000Y-16339999I0J-249999D01*
G01*
X86085000Y-17240001D01*
G75*
G02*
X85835001Y-17490000I-249999J0D01*
G01*
X85309999Y-17490000D01*
G75*
G02*
X85060000Y-17240001I0J249999D01*
G01*
G37*
M02*
