M48
; DRILL file {KiCad (5.1.8)-1} date 02/24/21 11:35:32
; FORMAT={-:-/ absolute / metric / decimal}
; #@! TF.CreationDate,2021-02-24T11:35:32+01:00
; #@! TF.GenerationSoftware,Kicad,Pcbnew,(5.1.8)-1
; #@! TF.FileFunction,Plated,1,2,PTH
FMAT,2
METRIC
T1C0.200
T2C1.000
%
G90
G05
T1
X9.447Y-18.278
X9.837Y-23.273
X13.226Y-17.447
X15.763Y-24.175
X15.91Y-20.67
X17.56Y-26.28
X20.37Y-40.55
X25.26Y-33.92
X27.181Y-22.14
X27.389Y-15.955
X28.47Y-27.99
X29.575Y-18.894
X31.846Y-26.181
X33.252Y-26.668
X33.487Y-17.798
X33.778Y-41.792
X36.137Y-33.73
X37.3Y-14.73
X37.681Y-26.151
X40.226Y-37.263
X40.644Y-18.986
X41.267Y-37.259
X41.975Y-37.28
X44.776Y-35.731
X44.869Y-31.888
X46.37Y-26.54
X46.575Y-45.161
X46.582Y-13.5
X46.93Y-39.37
X47.017Y-34.239
X48.59Y-35.547
X48.666Y-25.315
X48.815Y-19.065
X49.14Y-45.141
X49.524Y-40.962
X50.027Y-41.447
X51.68Y-37.36
X52.337Y-39.137
X52.43Y-13.31
X52.61Y-27.0
X53.14Y-20.54
X53.98Y-36.451
X56.163Y-31.071
X61.2Y-38.44
X61.664Y-34.816
X61.93Y-35.87
X62.837Y-24.546
X66.08Y-38.88
X66.346Y-37.116
X66.48Y-33.76
X68.764Y-19.83
X69.816Y-19.421
X70.65Y-42.1
X71.239Y-31.485
X72.104Y-38.373
X73.519Y-22.473
X74.109Y-25.342
X77.442Y-28.824
X77.722Y-31.067
X77.827Y-31.704
T2
X13.0Y-34.5
X13.0Y-37.04
X13.0Y-39.58
X90.5Y-29.5
X90.5Y-32.04
X90.5Y-34.58
X90.5Y-37.12
X90.5Y-16.0
X90.5Y-18.54
X90.5Y-21.08
T0
M30
