M48
; DRILL file {KiCad (5.1.8)-1} date 05/20/21 13:25:21
; FORMAT={-:-/ absolute / metric / decimal}
; #@! TF.CreationDate,2021-05-20T13:25:21+02:00
; #@! TF.GenerationSoftware,Kicad,Pcbnew,(5.1.8)-1
; #@! TF.FileFunction,Plated,1,2,PTH
FMAT,2
METRIC
T1C0.200
T2C1.000
%
G90
G05
T1
X8.25Y-21.94
X9.249Y-18.462
X15.71Y-17.17
X16.3Y-26.53
X20.43Y-41.34
X20.622Y-14.788
X21.047Y-23.595
X21.061Y-22.192
X21.34Y-25.724
X22.73Y-19.15
X23.12Y-33.67
X24.698Y-26.16
X25.029Y-11.824
X25.526Y-8.888
X26.082Y-15.899
X26.41Y-33.06
X26.752Y-30.866
X28.38Y-25.31
X28.44Y-39.22
X28.72Y-22.56
X28.915Y-17.825
X29.113Y-43.76
X30.137Y-33.743
X30.45Y-41.706
X32.0Y-15.312
X32.464Y-29.208
X32.901Y-39.252
X33.453Y-35.564
X33.645Y-23.044
X33.829Y-23.899
X33.895Y-24.567
X33.996Y-34.284
X34.184Y-14.788
X34.36Y-16.29
X34.404Y-23.044
X34.605Y-24.055
X34.68Y-13.26
X35.25Y-24.469
X35.355Y-19.095
X35.422Y-35.803
X35.949Y-36.202
X36.24Y-11.824
X37.8Y-38.88
X38.207Y-24.843
X38.688Y-23.564
X40.919Y-38.071
X46.28Y-27.08
X46.775Y-39.55
X46.775Y-44.903
X46.796Y-13.5
X47.113Y-16.789
X47.912Y-33.797
X48.232Y-35.752
X48.48Y-10.7
X48.515Y-25.329
X49.887Y-40.329
X49.887Y-44.903
X51.91Y-38.91
X52.029Y-27.0
X52.11Y-32.55
X52.294Y-36.49
X53.125Y-13.225
X53.777Y-19.762
X54.222Y-36.34
X56.21Y-39.13
X56.682Y-30.88
X56.89Y-21.57
X57.045Y-8.97
X57.685Y-35.677
X61.19Y-39.13
X63.377Y-23.697
X63.905Y-37.218
X66.65Y-38.37
X67.0Y-19.772
X67.273Y-33.797
X67.903Y-39.753
X69.43Y-21.67
X69.975Y-19.861
X70.844Y-30.278
X72.806Y-42.74
X73.42Y-36.17
X73.47Y-23.97
X74.208Y-33.642
X74.402Y-34.86
X77.438Y-21.096
X80.32Y-40.88
X82.494Y-30.164
T2
X90.5Y-16.0
X90.5Y-18.54
X90.5Y-21.08
X13.0Y-34.5
X13.0Y-37.04
X13.0Y-39.58
X90.5Y-29.5
X90.5Y-32.04
X90.5Y-34.58
X90.5Y-37.12
T0
M30
